<mxfile host="app.diagrams.net" modified="2023-03-21T15:32:15.855Z" agent="5.0 (Macintosh; Intel Mac OS X 10_15_7) AppleWebKit/537.36 (KHTML, like Gecko) Chrome/111.0.0.0 Safari/537.36" etag="arje_e-hU_jnLqeZWx0S" version="21.0.8" type="github">
  <diagram id="3228e29e-7158-1315-38df-8450db1d8a1d" name="Page-1">
    <mxGraphModel dx="584" dy="61" grid="0" gridSize="10" guides="1" tooltips="1" connect="1" arrows="1" fold="1" page="1" pageScale="1" pageWidth="700" pageHeight="450" background="#EFF1F3" math="0" shadow="0">
      <root>
        <mxCell id="0" />
        <mxCell id="1" parent="0" />
        <mxCell id="ivUwxklFu8LjhaQiQ8-M-5" value="" style="rounded=1;whiteSpace=wrap;html=1;fillColor=none;strokeColor=#4A919B;" parent="1" vertex="1">
          <mxGeometry x="198.5" y="1094" width="321" height="60" as="geometry" />
        </mxCell>
        <mxCell id="23kUrq4-E0xQPG93kGuy-30" value="" style="rounded=1;whiteSpace=wrap;html=1;fillColor=none;strokeColor=#4A919B;" parent="1" vertex="1">
          <mxGeometry x="198.5" y="1154" width="321" height="60" as="geometry" />
        </mxCell>
        <mxCell id="23kUrq4-E0xQPG93kGuy-45" value="" style="rounded=1;whiteSpace=wrap;html=1;fillColor=none;strokeColor=#4A919B;" parent="1" vertex="1">
          <mxGeometry x="198.5" y="1274" width="321" height="60" as="geometry" />
        </mxCell>
        <mxCell id="23kUrq4-E0xQPG93kGuy-28" value="" style="rounded=1;whiteSpace=wrap;html=1;fillColor=none;strokeColor=#4A919B;" parent="1" vertex="1">
          <mxGeometry x="198.5" y="1034" width="321" height="60" as="geometry" />
        </mxCell>
        <mxCell id="Sud6pk3loR96N63fgRS5-2" value="&lt;font color=&quot;#4a919b&quot; style=&quot;font-size: 20px;&quot;&gt;房间服务器&lt;/font&gt;" style="text;html=1;strokeColor=none;fillColor=none;align=left;verticalAlign=middle;whiteSpace=wrap;rounded=0;" parent="1" vertex="1">
          <mxGeometry x="532.5" y="1171.5" width="130" height="30" as="geometry" />
        </mxCell>
        <mxCell id="bbJikc91H-Vk9zqwdZrJ-3" value="&lt;font color=&quot;#4a919b&quot; style=&quot;font-size: 20px;&quot;&gt;DBServer&lt;/font&gt;" style="text;html=1;strokeColor=none;fillColor=none;align=left;verticalAlign=middle;whiteSpace=wrap;rounded=0;" parent="1" vertex="1">
          <mxGeometry x="532.5" y="1231.5" width="100" height="30" as="geometry" />
        </mxCell>
        <mxCell id="bbJikc91H-Vk9zqwdZrJ-4" value="" style="shape=image;verticalLabelPosition=bottom;labelBackgroundColor=default;verticalAlign=top;aspect=fixed;imageAspect=0;image=data:image/svg+xml,PHN2ZyB4bWxuczp4bGluaz0iaHR0cDovL3d3dy53My5vcmcvMTk5OS94bGluayIgeG1sbnM9Imh0dHA6Ly93d3cudzMub3JnLzIwMDAvc3ZnIiBoZWlnaHQ9IjEyOCIgd2lkdGg9IjEyOCIgdmVyc2lvbj0iMS4xIiB2aWV3Qm94PSIwIDAgMTAyNCAxMDI0IiBjbGFzcz0iaWNvbiI+PHBhdGggZmlsbD0iIzRBOTE5QiIgZD0iTTkxNS4yIDg0NC44bC02LjQtOC41MzMzMzNjLTYuNC0xMC42NjY2NjctMTIuOC0xOS4yLTIxLjMzMzMzMy0yNy43MzMzMzQtNi40LTYuNC0yMS4zMzMzMzMtMTQuOTMzMzMzLTIzLjQ2NjY2Ny0yMy40NjY2NjYgNi40IDAgMTAuNjY2NjY3IDAgMTQuOTMzMzMzLTIuMTMzMzM0IDguNTMzMzMzLTIuMTMzMzMzIDE0LjkzMzMzMyAwIDIzLjQ2NjY2Ny0yLjEzMzMzMyA0LjI2NjY2NyAwIDYuNC0yLjEzMzMzMyAxMC42NjY2NjctMi4xMzMzMzN2LTIuMTMzMzM0Yy00LjI2NjY2Ny00LjI2NjY2Ny02LjQtMTAuNjY2NjY3LTEwLjY2NjY2Ny0xNC45MzMzMzMtMTAuNjY2NjY3LTEyLjgtMjEuMzMzMzMzLTIzLjQ2NjY2Ny0zNC4xMzMzMzMtMzQuMTMzMzMzLTYuNC02LjQtMTQuOTMzMzMzLTEwLjY2NjY2Ny0yMS4zMzMzMzQtMTQuOTMzMzM0LTIuMTMzMzMzLTIuMTMzMzMzLTYuNC0yLjEzMzMzMy04LjUzMzMzMy02LjQtMi4xMzMzMzMtNi40LTYuNC0xMi44LTYuNC0xOS4yLTQuMjY2NjY3LTE0LjkzMzMzMy0xMC42NjY2NjctMjkuODY2NjY3LTE0LjkzMzMzMy00NC44LTIuMTMzMzMzLTEwLjY2NjY2Ny00LjI2NjY2Ny0xOS4yLTguNTMzMzM0LTI5Ljg2NjY2Ni0xNy4wNjY2NjctNDAuNTMzMzMzLTQyLjY2NjY2Ny03NC42NjY2NjctNzguOTMzMzMzLTEwMC4yNjY2NjctOC41MzMzMzMtNi40LTE3LjA2NjY2Ny0xMC42NjY2NjctMjcuNzMzMzMzLTEyLjgtNi40IDAtMTAuNjY2NjY3LTIuMTMzMzMzLTE3LjA2NjY2Ny0yLjEzMzMzMy00LjI2NjY2Ny0yLjEzMzMzMy02LjQtNi40LTguNTMzMzMzLTguNTMzMzM0LTEwLjY2NjY2Ny04LjUzMzMzMy0yMy40NjY2NjctMTQuOTMzMzMzLTM2LjI2NjY2Ny0xOS4yLTguNTMzMzMzLTIuMTMzMzMzLTE3LjA2NjY2NyAyLjEzMzMzMy0xOS4yIDEwLjY2NjY2Ny04LjUzMzMzMyAxNC45MzMzMzMgNi40IDMyIDEwLjY2NjY2NyA0MC41MzMzMzMgNC4yNjY2NjcgNi40IDYuNCAxMi44IDguNTMzMzMzIDE5LjIgMi4xMzMzMzMgNC4yNjY2NjcgMi4xMzMzMzMgOC41MzMzMzMgMi4xMzMzMzMgMTIuOCAyLjEzMzMzMyAxMC42NjY2NjcgNC4yNjY2NjcgMjMuNDY2NjY3IDguNTMzMzM0IDM0LjEzMzMzNCAyLjEzMzMzMyA2LjQgNC4yNjY2NjcgMTAuNjY2NjY3IDYuNCAxNC45MzMzMzMgMi4xMzMzMzMgMi4xMzMzMzMgNC4yNjY2NjcgNi40IDQuMjY2NjY2IDguNTMzMzMzLTIuMTMzMzMzIDYuNC02LjQgMTAuNjY2NjY3LTYuNCAxNy4wNjY2NjctMTAuNjY2NjY3IDI1LjYtMTAuNjY2NjY3IDU1LjQ2NjY2Ny0yLjEzMzMzMyA4My4yIDIuMTMzMzMzIDYuNCAxMC42NjY2NjcgMjEuMzMzMzMzIDIxLjMzMzMzMyAxNy4wNjY2NjcgMTAuNjY2NjY3LTQuMjY2NjY3IDEwLjY2NjY2Ny0xNy4wNjY2NjcgMTQuOTMzMzM0LTI5Ljg2NjY2NyAwLTIuMTMzMzMzIDIuMTMzMzMzLTQuMjY2NjY3IDIuMTMzMzMzLTYuNCAyLjEzMzMzMyA2LjQgNC4yNjY2NjcgMTQuOTMzMzMzIDYuNCAyMS4zMzMzMzMgNi40IDEyLjggMTQuOTMzMzMzIDI1LjYgMjUuNiAzNi4yNjY2NjcgNC4yNjY2NjcgNi40IDEwLjY2NjY2NyAxMC42NjY2NjcgMTQuOTMzMzMzIDE3LjA2NjY2NyAxMC42NjY2NjcgOC41MzMzMzMgNC4yNjY2NjcgMTAuNjY2NjY3IDgzLjIgNDkuMDY2NjY2IDAgMCAzMiAxNC45MzMzMzMgNDYuOTMzMzM0IDIxLjMzMzMzNCAxNC45MzMzMzMgNi40IDI5Ljg2NjY2NyAxMC42NjY2NjcgNDQuOCAxNC45MzMzMzMgMi4xMzMzMzMgMCAyLjEzMzMzMy00LjI2NjY2NyAyLjEzMzMzMy02LjR6TTY5My4zMzMzMzMgNTUwLjRjLTIuMTMzMzMzLTguNTMzMzMzLTYuNC0xOS4yLTEwLjY2NjY2Ni0yNS42LTYuNC02LjQgMi4xMzMzMzMtMTIuOCAxMC42NjY2NjYtMTAuNjY2NjY3aDIuMTMzMzM0YzQuMjY2NjY3IDAgNi40IDQuMjY2NjY3IDguNTMzMzMzIDYuNCAwIDIuMTMzMzMzIDIuMTMzMzMzIDIuMTMzMzMzIDIuMTMzMzMzIDQuMjY2NjY3IDIuMTMzMzMzIDEwLjY2NjY2Ny0yLjEzMzMzMyAyMy40NjY2NjctMTIuOCAyNS42eiIvPjxwYXRoIGZpbGw9IiM0QTkxOUIiIGQ9Ik00Ni45MzMzMzMgMjkwLjEzMzMzM2EzNzEuMiAxMTkuNDY2NjY3IDAgMSAwIDc0Mi40IDAgMzcxLjIgMTE5LjQ2NjY2NyAwIDEgMC03NDIuNCAwWiIvPjxwYXRoIGZpbGw9IiM0QTkxOUIiIGQ9Ik02NzguNCA3OTMuNmgtNi40Yy0xNC45MzMzMzMgMC01My4zMzMzMzMtNi40LTc2LjgtNTUuNDY2NjY3di00LjI2NjY2NmMtNi40LTE3LjA2NjY2Ny0xMC42NjY2NjctMzYuMjY2NjY3LTEwLjY2NjY2Ny01NS40NjY2NjctNDkuMDY2NjY3IDguNTMzMzMzLTEwNi42NjY2NjcgMTIuOC0xNjYuNCAxMi44LTE2NC4yNjY2NjcgMC0zMDIuOTMzMzMzLTM0LjEzMzMzMy0zNTItODEuMDY2NjY3LTguNTMzMzMzLTYuNC0xOS4yLTIuMTMzMzMzLTE5LjIgOC41MzMzMzR2MTEzLjA2NjY2NmMwIDY2LjEzMzMzMyAxNjYuNCAxMTkuNDY2NjY3IDM3MS4yIDExOS40NjY2NjcgMTEwLjkzMzMzMyAwIDIxMS4yLTE0LjkzMzMzMyAyNzcuMzMzMzM0LTQwLjUzMzMzMy02LjQtNC4yNjY2NjctMTAuNjY2NjY3LTEwLjY2NjY2Ny0xNy4wNjY2NjctMTcuMDY2NjY3ek00MTguMTMzMzMzIDYzMS40NjY2NjdjNjQgMCAxMjMuNzMzMzMzLTQuMjY2NjY3IDE3NC45MzMzMzQtMTQuOTMzMzM0di0yLjEzMzMzM2MwLTIuMTMzMzMzLTIuMTMzMzMzLTQuMjY2NjY3LTIuMTMzMzM0LTYuNC00LjI2NjY2Ny0xMi44LTYuNC0yNS42LTEwLjY2NjY2Ni00MC41MzMzMzMgMC0yLjEzMzMzMy0yLjEzMzMzMy02LjQtMi4xMzMzMzQtOC41MzMzMzQgMC0yLjEzMzMzMy0yLjEzMzMzMy0yLjEzMzMzMy0yLjEzMzMzMy00LjI2NjY2NnYtNC4yNjY2NjdsLTIuMTMzMzMzLTIuMTMzMzMzYy02LjQtMTIuOC0yNy43MzMzMzMtNDYuOTMzMzMzLTE0LjkzMzMzNC04Ny40NjY2NjctNDQuOCA2LjQtOTEuNzMzMzMzIDguNTMzMzMzLTE0Mi45MzMzMzMgOC41MzMzMzMtMTY0LjI2NjY2NyAwLTMwMi45MzMzMzMtMzQuMTMzMzMzLTM1Mi04MS4wNjY2NjYtOC41MzMzMzMtNi40LTE5LjItMi4xMzMzMzMtMTkuMiA4LjUzMzMzM1Y1MTJjMCA2Ni4xMzMzMzMgMTY2LjQgMTE5LjQ2NjY2NyAzNzMuMzMzMzMzIDExOS40NjY2Njd6Ii8+PC9zdmc+;" parent="1" vertex="1">
          <mxGeometry x="298" y="1274" width="61.5" height="61.5" as="geometry" />
        </mxCell>
        <mxCell id="bbJikc91H-Vk9zqwdZrJ-5" value="&lt;font color=&quot;#4a919b&quot;&gt;&lt;span style=&quot;font-size: 20px;&quot;&gt;DB&lt;/span&gt;&lt;/font&gt;" style="text;html=1;strokeColor=none;fillColor=none;align=left;verticalAlign=middle;whiteSpace=wrap;rounded=0;" parent="1" vertex="1">
          <mxGeometry x="536.5" y="1286" width="90" height="30" as="geometry" />
        </mxCell>
        <mxCell id="23kUrq4-E0xQPG93kGuy-14" value="" style="shape=image;verticalLabelPosition=bottom;verticalAlign=top;imageAspect=0;aspect=fixed;image=data:image/svg+xml,PHN2ZyB4bWxuczp4bGluaz0iaHR0cDovL3d3dy53My5vcmcvMTk5OS94bGluayIgeG1sbnM9Imh0dHA6Ly93d3cudzMub3JnLzIwMDAvc3ZnIiBoZWlnaHQ9IjIwMCIgd2lkdGg9IjIwMCIgdmVyc2lvbj0iMS4xIiB2aWV3Qm94PSIwIDAgMTAyNCAxMDI0IiBjbGFzcz0iaWNvbiI+PHBhdGggZmlsbD0iIzRBOTE5QiIgZD0iTTY5OC44IDMzMGM0Ny42IDQ3LjYgODcuMiA5OC40IDExOCAxNDkuNmwyMi40LTM0Yy0zMC44LTQ4LjgtNjguOC05Ni44LTExNC0xNDJDNTY2LjggMTQ1LjIgMzcxLjYgNzIgMjQwIDEwOS42bDMwLjQgMzAuNGMxMTcuMi0yMiAyODcuMiA0OS4yIDQyOC40IDE5MHogbTYwLjgtMTkyLjhsMzAuOC0zMC44Yy02Ny4yLTE5LjItMTUwLjQtMTAtMjM3LjIgMjQuNGw0MCAyNC40YzYwLjgtMjAuNCAxMTgtMjcuMiAxNjYuNC0xOHogbS01MjQgMTAwLjRjMjkuMi0yOS4yIDI5LjItNzYuOCAwLTEwNi0yOS4yLTI5LjItNzYuOC0yOS4yLTEwNiAwLTI5LjIgMjkuMi0yOS4yIDc2LjggMCAxMDYgMjkuMiAyOS4yIDc2LjggMjkuMiAxMDYgMHpNMTUxLjIgMTU1LjZhMzcuOTA0IDM3LjkwNCAwIDEgMSA1My42IDUzLjYwOEEzNy45MDQgMzcuOTA0IDAgMCAxIDE1MS4yIDE1NS42eiBtNDI2IDY4OS4yYzUwLjgtMzEuMiAxMDEuMi03MC44IDE0OC0xMTcuNiAxNTguNC0xNTguNCAyMzEuNi0zNTMuNiAxOTQtNDg1LjJsLTMwLjQgMzAuNGMyMiAxMTcuMi00OC44IDI4Ny4yLTE5MCA0MjguNC00OS4yIDQ5LjItMTAyIDkwLTE1NC44IDEyMS4ybDMzLjIgMjIuOHogbTIxNC02MDcuMmMyOS4yIDI5LjIgNzYuOCAyOS4yIDEwNiAwIDI5LjItMjkuMiAyOS4yLTc2LjggMC0xMDYtMjkuMi0yOS4yLTc2LjgtMjkuMi0xMDYgMC0yOS4yIDI5LjItMjkuMiA3Ni44IDAgMTA2eiBtMzAuOC04MmEzNy45MDQgMzcuOTA0IDAgMSAxIDUzLjYgNTMuNjA4QTM3LjkwNCAzNy45MDQgMCAwIDEgODIyIDE1NS42eiBtNDggNDM1LjZjMjEuMiA2MC44IDI4IDExOC44IDE4LjggMTY3LjJsMzAuNCAzMC40YzE5LjItNjYuNCA5LjYtMTQ5LjItMjQuOC0yMzUuNmwtMjQuNCAzOHpNMjcwLjQgODkwLjhsLTMwLjQgMzAuNGM2NS42IDE4LjggMTQ3LjIgMTAgMjMyLjQtMjMuMmwtMzYuNC0yNS4yYy02MC40IDIwLjQtMTE3LjIgMjcuMi0xNjUuNiAxOHpNMzI4IDcwMC44Yy00OC40LTQ4LjQtODguNC0xMDAtMTE5LjItMTUxLjZsLTIxLjIgMzYuNGMzMC44IDQ4LjggNjguOCA5Ni44IDExNCAxNDEuNiAxNTguNCAxNTguNCAzNTMuNiAyMzEuNiA0ODUuMiAxOTRsLTMwLjQtMzAuNGMtMTE3LjIgMjItMjg3LjItNDguOC00MjguNC0xOTB6IG0tMTcyLjgtMjY2Yy0yMC01OS4yLTI2LTExNS4yLTE3LjItMTYyLjRsLTMwLjQtMzAuNGMtMTguOCA2Ni0xMCAxNDguNCAyNCAyMzMuNmwyMy42LTQwLjh6IG02MzYgMzU4LjRjLTI5LjIgMjkuMi0yOS4yIDc2LjggMCAxMDYgMjkuMiAyOS4yIDc2LjggMjkuMiAxMDYgMCAyOS4yLTI5LjIgMjkuMi03Ni44IDAtMTA2LTI5LjItMjkuMi03Ni40LTI5LjItMTA2IDB6IG04NC40IDg2LjhhMzcuOTA0IDM3LjkwNCAwIDEgMS01My42LTUzLjYwOEEzNy45MDQgMzcuOTA0IDAgMCAxIDg3NS42IDg4MHogbS02NDAtODYuOGMtMjkuMi0yOS4yLTc2LjgtMjkuMi0xMDYgMC0yOS4yIDI5LjItMjkuMiA3Ni44IDAgMTA2IDI5LjIgMjkuMiA3Ni44IDI5LjIgMTA2IDAgMjkuMi0yOS4yIDI5LjItNzYuNCAwLTEwNnpNMjA0LjggODgwYTM3LjkwNCAzNy45MDQgMCAxIDEtNTMuNi01My42MDhBMzcuOTA0IDM3LjkwNCAwIDAgMSAyMDQuOCA4ODB6IG0tNjYuOC0xMjEuNkMxMTYgNjQxLjIgMTg3LjIgNDcxLjIgMzI4IDMzMGM0Ny4yLTQ3LjIgOTcuNi04Ni40IDE0OC0xMTcuMmwtMzUuMi0yMS42Yy00Ny42IDMwLjQtOTQuOCA2OC0xMzkuMiAxMTItMTU4LjQgMTU4LjQtMjMxLjYgMzUzLjYtMTk0IDQ4NS4ybDMwLjQtMzB6IG0zMjAuOC05NC40YzkuMiAwIDE2LjQtNy4yIDE2LjQtMTYuNFYzODQuOGMwLTYuOC00LTEyLjgtMTAuNC0xNS4yLTYtMi40LTEzLjItMS4yLTE4IDMuNmwtOTMuMiA5NS42Yy02LjQgNi40LTYuNCAxNi44IDAuNCAyMy4yIDYuNCA2LjQgMTYuOCA2IDIzLjItMC40bDY1LjItNjYuOHYyMjIuNGMwIDkuNiA3LjIgMTYuOCAxNi40IDE2Ljh6TTU2OCAzNzEuNmMtOS4yIDAtMTYuNCA3LjItMTYuNCAxNi40djI2Mi44YzAgNi44IDQgMTIuOCAxMCAxNS4yIDIgMC44IDQgMS4yIDYgMS4yIDQuNCAwIDguNC0xLjYgMTEuNi00LjhsOTMuMi05NS42YzYuNC02LjQgNi40LTE2LjgtMC40LTIzLjItNi40LTYuNC0xNi44LTYtMjMuMiAwLjRsLTY1LjIgNjYuOFYzODcuNmMwLjgtOC44LTYuNC0xNi0xNS42LTE2eiBtMCAwIi8+PHBhdGggZmlsbD0iIzRBOTE5QiIgZD0iTTcxMi44IDkzNC44Yy0xMjggMC0yODQuOC03Ni00MTQtMjA0LjgtNDQuNC00NC40LTgyLjgtOTItMTE0LjQtMTQyLjRsLTEuMi0yIDI1LjYtNDQuNCAzLjYgNmMzMiA1My4yIDcxLjYgMTA0IDExOC44IDE1MC44IDEzNS4yIDEzNS4yIDMwNiAyMTEuMiA0MjQuOCAxODguOGwyLTAuNCAzNi44IDM2LjgtNi40IDJjLTI0IDYuNC00OS4yIDkuNi03NS42IDkuNnpNMTkyLjQgNTg1LjJjMzEuMiA0OS4yIDY4LjggOTYgMTEyIDEzOS4yIDE1MS4yIDE1MS4yIDM0MC44IDIyOC44IDQ3NC40IDE5NC44bC0yNC0yNGMtNTguOCAxMC40LTEyOS42LTEuNi0yMDUuNi0zNC40LTc4LTM0LTE1NS42LTg4LjQtMjI0LjQtMTU3LjItNDUuNi00NS42LTg0LjgtOTUuMi0xMTYuNC0xNDYuOGwtMTYgMjguNHogbTEyMS42IDM0OS42Yy0yNi44IDAtNTEuNi0zLjItNzUuMi0xMGwtNi40LTIgMzYuOC0zNi44IDIgMC40YzQ2LjggOC44IDEwMy4yIDIuNCAxNjMuNi0xOC40bDItMC44IDQ0IDMwLjgtNi44IDIuOGMtNTYuOCAyMi44LTExMC44IDM0LTE2MCAzNHogbS02Ni40LTE1LjZjNjEuNiAxNS42IDEzNiA4IDIxNi0yMi40bC0yOC40LTIwYy02MCAyMC40LTExNi40IDI2LjgtMTYzLjYgMTguNGwtMjQgMjR6IG0tNjUuMiA2Yy0yMS4yIDAtNDAuOC04LjQtNTUuNi0yMy4yLTE0LjgtMTQuOC0yMy4yLTM0LjgtMjMuMi01NS42IDAtMjEuMiA4LjQtNDAuOCAyMy4yLTU1LjYgMTQuOC0xNC44IDM0LjgtMjMuMiA1NS42LTIzLjIgMjEuMiAwIDQwLjggOC40IDU1LjYgMjMuMiAxNC44IDE0LjggMjMuMiAzNC44IDIzLjIgNTUuNiAwIDIxLjItOC40IDQwLjgtMjMuMiA1NS42LTE0LjQgMTQuOC0zNC40IDIzLjItNTUuNiAyMy4yeiBtMC0xNDkuNmMtMTguOCAwLTM2LjggNy4yLTUwIDIwLjgtMTMuMiAxMy4yLTIwLjggMzEuMi0yMC44IDUwczcuMiAzNi44IDIwLjggNTBjMTMuMiAxMy4yIDMxLjIgMjAuOCA1MCAyMC44czM2LjgtNy4yIDUwLTIwLjhjMTMuMi0xMy4yIDIwLjgtMzEuMiAyMC44LTUwcy03LjItMzYuOC0yMC44LTUwYy0xMy4yLTEzLjYtMzAuOC0yMC44LTUwLTIwLjh6IG02NjIgMTQ5LjZjLTIwIDAtNDAuNC03LjYtNTUuNi0yMy4yLTMwLjgtMzAuOC0zMC44LTgwLjggMC0xMTEuNiAzMC44LTMwLjggODAuOC0zMC44IDExMS42IDAgMzAuOCAzMC44IDMwLjggODAuOCAwIDExMS42LTE1LjYgMTUuNi0zNiAyMy4yLTU2IDIzLjJ6TTc5NC40IDc5NmMtMjcuNiAyNy42LTI3LjYgNzIuNCAwIDEwMC40IDI3LjYgMjcuNiA3Mi40IDI3LjYgMTAwLjQgMCAyNy42LTI3LjYgMjcuNi03Mi40IDAtMTAwLjQtMjgtMjcuNi03Mi44LTI3LjYtMTAwLjQgMHpNMTc4IDg5NS4yYy0xMS4yIDAtMjEuNi00LjQtMjkuNi0xMi40cy0xMi40LTE4LjQtMTIuNC0yOS42YzAtMTEuMiA0LjQtMjEuNiAxMi40LTI5LjZzMTguNC0xMi40IDI5LjYtMTIuNGMxMS4yIDAgMjEuNiA0LjQgMjkuNiAxMi40czEyLjQgMTguNCAxMi40IDI5LjZjMCAxMS4yLTQuNCAyMS42LTEyLjQgMjkuNnMtMTguNCAxMi40LTI5LjYgMTIuNHogbTAtNzZjLTkuMiAwLTE3LjYgMy42LTI0IDEwLTYuNCA2LjQtMTAgMTQuOC0xMCAyNHMzLjYgMTcuNiAxMCAyNGM2LjQgNi40IDE0LjggMTAgMjQgMTBzMTcuNi0zLjYgMjQtMTBjNi40LTYuNCAxMC0xNC44IDEwLTI0cy0zLjYtMTcuNi0xMC0yNGMtNi40LTYuNC0xNC44LTEwLTI0LTEweiBtNjcwLjggNzZjLTExLjIgMC0yMS42LTQuNC0yOS42LTEyLjRzLTEyLjQtMTguNC0xMi40LTI5LjZjMC0xMS4yIDQuNC0yMS42IDEyLjQtMjkuNnMxOC40LTEyLjQgMjkuNi0xMi40YzExLjIgMCAyMS42IDQuNCAyOS42IDEyLjRzMTIuNCAxOC40IDEyLjQgMjkuNmMwIDExLjItNC40IDIxLjYtMTIuNCAyOS42LTcuNiA4LTE4LjQgMTIuNC0yOS42IDEyLjR6IG0wLTc2Yy05LjIgMC0xNy42IDMuNi0yNCAxMC02LjQgNi40LTEwIDE0LjgtMTAgMjRzMy42IDE3LjYgMTAgMjRjNi40IDYuNCAxNC44IDEwIDI0IDEwczE3LjYtMy42IDI0LTEwYzYuNC02LjQgMTAtMTQuOCAxMC0yNHMtMy42LTE3LjYtMTAtMjRjLTYuNC02LjQtMTQuOC0xMC0yNC0xMHogbS0yNzEuNiAzMC40bC00MC40LTI4LjQgNS4yLTMuMmM1NC40LTMyIDEwNi03Mi40IDE1NC0xMjAuNCAxMzUuMi0xMzUuMiAyMTEuMi0zMDYgMTg4LjgtNDI0LjhsLTAuNC0yIDM2LjgtMzYuOCAyIDYuNGMzOS4yIDEzNi44LTM5LjIgMzMzLjItMTk0LjggNDg5LjItNDYgNDYtOTYgODYtMTQ4LjggMTE4LjRsLTIuNCAxLjZ6IG0tMjUuNi0yNy42bDI2IDE4YzUxLjItMzEuNiAxMDAtNzAuOCAxNDUuMi0xMTUuNiAxNTEuMi0xNTEuMiAyMjguOC0zNDAuOCAxOTQuOC00NzQuNGwtMjQgMjRjMjEuNiAxMjEuMi01NS4yIDI5My4yLTE5MS42IDQyOS42LTQ3LjIgNDYuOC05Ny42IDg2LjQtMTUwLjQgMTE4LjR6IG0zNjkuNi0yNS42bC0zNi44LTM2LjggMC40LTJjOC44LTQ3LjIgMi40LTEwNC40LTE4LjgtMTY1LjJsLTAuOC0yIDMwLTQ1LjYgMi44IDcuMmMzNS42IDg4LjggNDQgMTcxLjIgMjQuOCAyMzhsLTEuNiA2LjR6IG0tMjgtMzkuMmwyNCAyNGMxNS42LTYxLjYgNy4yLTEzOC44LTIzLjYtMjE5LjJsLTE5LjIgMjkuNmMyMC44IDYwLjQgMjcuMiAxMTcuNiAxOC44IDE2NS42eiBtLTc4Ny42IDM5LjJsLTItNi40Yy0zOS4yLTEzNi44IDM5LjItMzMzLjIgMTk1LjItNDg5LjIgNDMuNi00My42IDkwLjQtODEuMiAxNDAtMTEyLjhsMi0xLjIgNDMuMiAyNi40LTUuNiAzLjZjLTUyIDMxLjItMTAxLjYgNzAuNC0xNDcuNiAxMTYtMTM1LjIgMTM1LjItMjExLjIgMzA2LTE4OC44IDQyNC44bDAuNCAyLTM2LjggMzYuOHogbTMzNS4yLTYwMGMtNDggMzAuOC05NCA2OC0xMzYuNCAxMTAuNC0xNTEuMiAxNTEuMi0yMjguOCAzNDAuOC0xOTQuOCA0NzQuNGwyNC0yNGMtMTAuNC01OC44IDEuNi0xMjkuNiAzNC40LTIwNS42IDM0LTc4IDg4LjQtMTU1LjYgMTU3LjItMjI0LjQgNDQuOC00NC44IDkyLjgtODMuMiAxNDMuMi0xMTQuNGwtMjcuNi0xNi40ek01NjggNjcwLjhjLTIuOCAwLTUuMi0wLjQtNy42LTEuNi03LjYtMy4yLTEyLjgtMTAuNC0xMi44LTE4LjhWMzg4YzAtMTEuMiA5LjItMjAuNCAyMC40LTIwLjRzMjAuNCA5LjIgMjAuNCAyMC40djIxMi44bDU4LjQtNjBjNC00IDguOC02IDE0LjQtNnMxMC40IDIgMTQuNCA2YzQgMy42IDYgOC44IDYgMTQuNHMtMiAxMC40LTYgMTQuNGwtOTMuMiA5NS42Yy0zLjYgMy42LTguOCA1LjYtMTQuNCA1LjZ6IG0wLTI5NS4yYy02LjggMC0xMi40IDUuNi0xMi40IDEyLjR2MjYyLjhjMCA1LjIgMy4yIDkuNiA3LjYgMTEuNiA0LjggMiAxMCAwLjggMTMuNi0yLjhsOTMuMi05NS42YzIuNC0yLjQgMy42LTUuNiAzLjYtOC44IDAtMy4yLTEuMi02LjQtMy42LTguOC0yLjQtMi40LTUuNi0zLjYtOC44LTMuNi0zLjIgMC02LjQgMS4yLTguOCAzLjZsLTcyIDc0VjM4OGMwLTcuMi01LjYtMTIuNC0xMi40LTEyLjR6TTQ1OC44IDY2OGMtMTEuMiAwLTIwLjQtOS4yLTIwLjQtMjAuNHYtMjEyLjhsLTU4LjQgNjBjLTQgNC04LjggNi0xNC40IDZzLTEwLjQtMi0xNC40LTZjLTQtMy42LTYtOC44LTYtMTQuNHMyLTEwLjQgNi0xNC40bDkzLjItOTUuNmM1LjYtNiAxNC44LTcuNiAyMi40LTQuOCA3LjYgMy4yIDEyLjggMTAuNCAxMi44IDE4Ljh2MjYyLjhjLTAuNCAxMS42LTkuNiAyMC44LTIwLjggMjAuOHogbS0xMi40LTI1Mi44djIzMi40YzAgNi44IDUuNiAxMi40IDEyLjQgMTIuNHMxMi40LTUuNiAxMi40LTEyLjRWMzg0LjhjMC01LjItMy4yLTkuNi03LjYtMTEuNi00LjgtMi0xMC0wLjgtMTMuNiAyLjhsLTkzLjIgOTZjLTIuNCAyLjQtMy42IDUuNi0zLjYgOC44IDAgMy4yIDEuMiA2LjQgMy42IDguOCAyLjQgMi40IDUuNiAzLjYgOC44IDMuNiAzLjIgMCA2LjQtMS4yIDguOC0zLjZsNzItNzQuNHogbTM3MC40IDcybC0zLjItNS42Yy0zMS42LTUyLjQtNzEuMi0xMDIuNC0xMTcuNi0xNDguOEM1NjAuNCAxOTcuNiAzOTAgMTIxLjYgMjcxLjIgMTQ0bC0yIDAuNC0zNi44LTM2LjggNi40LTJDMzc1LjYgNjYuNCA1NzIgMTQ0LjggNzI4IDMwMC40YzQ0LjQgNDQuNCA4Mi44IDkyLjQgMTE0LjQgMTQyLjRsMS4yIDItMjYuOCA0Mi40ek0zMTUuMiAxMzJjNDguOCAwIDEwNCAxMi44IDE2MiAzOCA3OCAzNCAxNTUuNiA4OC40IDIyNC40IDE1Ny4yIDQ1LjIgNDUuMiA4NCA5NCAxMTUuMiAxNDQuOGwxNy42LTI2LjhjLTMxLjItNDkuMi02OC44LTk2LTExMi0xMzkuMi0xNTEuMi0xNTAuOC0zNDAuOC0yMjguNC00NzQuOC0xOTQuNGwyNCAyNGMxNC0yLjQgMjguNC0zLjYgNDMuNi0zLjZ6IG0tMTg0IDM1Mi44bC0zLjItNy42Yy0zNC44LTg4LTQzLjItMTY5LjYtMjQtMjM2LjRsMi02LjQgMzYuOCAzNi44LTAuNCAyYy04LjggNDYtMi44IDEwMS4yIDE3LjIgMTYwLjRsMC40IDEuNi0yOC44IDQ5LjZ6IG0tMjEuNi0yMzUuMmMtMTUuNiA2MC44LTcuNiAxMzcuMiAyMi44IDIxNi44bDE4LjQtMzJjLTE5LjYtNTguOC0yNS42LTExNC0xNy4yLTE2MC40bC0yNC0yNC40eiBtNzM0LjggMTRjLTIxLjIgMC00MC44LTguNC01NS42LTIzLjItMTQuOC0xNC44LTIzLjItMzQuOC0yMy4yLTU1LjYgMC0yMS4yIDguNC00MC44IDIzLjItNTUuNiAxNC44LTE0LjggMzQuOC0yMy4yIDU1LjYtMjMuMiAyMS4yIDAgNDAuOCA4LjQgNTUuNiAyMy4yIDE0LjggMTQuOCAyMy4yIDM0LjggMjMuMiA1NS42IDAgMjEuMi04LjQgNDAuOC0yMy4yIDU1LjYtMTQuOCAxNC44LTM0LjggMjMuMi01NS42IDIzLjJ6IG0wLTE1MGMtMTguOCAwLTM2LjggNy4yLTUwIDIwLjgtMTMuMiAxMy4yLTIwLjggMzEuMi0yMC44IDUwczcuMiAzNi44IDIwLjggNTBjMTMuMiAxMy4yIDMxLjIgMjAuOCA1MCAyMC44czM2LjgtNy4yIDUwLTIwLjhjMTMuMi0xMy4yIDIwLjgtMzEuMiAyMC44LTUwcy03LjItMzYuOC0yMC44LTUwYy0xMy4yLTEzLjItMzEuMi0yMC44LTUwLTIwLjh6TTE4Mi40IDI2My42Yy0yMS4yIDAtNDAuOC04LjQtNTUuNi0yMy4yLTE0LjgtMTQuOC0yMy4yLTM0LjgtMjMuMi01NS42IDAtMjEuMiA4LjQtNDAuOCAyMy4yLTU1LjYgMTQuOC0xNC44IDM0LjgtMjMuMiA1NS42LTIzLjIgMjEuMiAwIDQwLjggOC40IDU1LjYgMjMuMiAxNC44IDE0LjggMjMuMiAzNC44IDIzLjIgNTUuNiAwIDIxLjItOC40IDQwLjgtMjMuMiA1NS42LTE0LjQgMTQuOC0zNC40IDIzLjItNTUuNiAyMy4yeiBtMC0xNTBjLTE4LjggMC0zNi44IDcuMi01MCAyMC44LTEzLjIgMTMuMi0yMC44IDMxLjItMjAuOCA1MHM3LjIgMzYuOCAyMC44IDUwYzEzLjIgMTMuMiAzMS4yIDIwLjggNTAgMjAuOHMzNi44LTcuMiA1MC0yMC44YzEzLjItMTMuMiAyMC44LTMxLjIgMjAuOC01MHMtNy4yLTM2LjgtMjAuOC01MGMtMTMuMi0xMy4yLTMwLjgtMjAuOC01MC0yMC44eiBtNjY2LjQgMTEwLjhjLTExLjIgMC0yMS42LTQuNC0yOS42LTEyLjRzLTEyLjQtMTguNC0xMi40LTI5LjZjMC0xMS4yIDQuNC0yMS42IDEyLjQtMjkuNiAxNi40LTE2LjQgNDIuOC0xNi40IDU5LjIgMCA4IDggMTIuNCAxOC40IDEyLjQgMjkuNiAwIDExLjItNC40IDIxLjYtMTIuNCAyOS42LTcuNiA4LTE4LjQgMTIuNC0yOS42IDEyLjR6IG0tMjQtNjZjLTYuNCA2LjQtMTAgMTQuOC0xMCAyNHMzLjYgMTcuNiAxMCAyNGM2LjQgNi40IDE0LjggMTAgMjQgMTBzMTcuNi0zLjYgMjQtMTBjNi40LTYuNCAxMC0xNC44IDEwLTI0cy0zLjYtMTcuNi0xMC0yNGMtMTMuMi0xMy4yLTM0LjgtMTMuMi00OCAwek0xNzggMjI0LjRjLTExLjIgMC0yMS42LTQuNC0yOS42LTEyLjRTMTM2IDE5My42IDEzNiAxODIuNGMwLTExLjIgNC40LTIxLjYgMTIuNC0yOS42IDE2LjQtMTYuNCA0Mi44LTE2LjQgNTkuMiAwIDggOCAxMi40IDE4LjQgMTIuNCAyOS42IDAgMTEuMi00LjQgMjEuNi0xMi40IDI5LjZzLTE4LjQgMTIuNC0yOS42IDEyLjR6IG0wLTc2Yy04LjggMC0xNy4yIDMuMi0yNCAxMC02LjQgNi40LTEwIDE0LjgtMTAgMjRzMy42IDE3LjYgMTAgMjRjNi40IDYuNCAxNC44IDEwIDI0IDEwczE3LjYtMy42IDI0LTEwYzYuNC02LjQgMTAtMTQuOCAxMC0yNHMtMy42LTE3LjYtMTAtMjRjLTYuNC02LjgtMTUuMi0xMC0yNC0xMHpNNTkyLjggMTYwbC00OC40LTI5LjYgNy42LTIuOGM4OS42LTM1LjYgMTcyLjQtNDQgMjQwLTI0LjhsNi40IDItMzcuMiAzNy4yLTItMC40Yy00Ny4yLTguOC0xMDQtMi44LTE2NC40IDE4bC0yIDAuNHogbS0zMC40LTI4LjRsMzEuNiAxOS4yYzYwLjQtMjAuNCAxMTcuMi0yNi40IDE2NC44LTE4bDI0LjQtMjQuNGMtNjIuNC0xNS42LTE0MC03LjItMjIwLjggMjMuMnoiLz48L3N2Zz4=" parent="1" vertex="1">
          <mxGeometry x="226" y="1040" width="52" height="52" as="geometry" />
        </mxCell>
        <mxCell id="23kUrq4-E0xQPG93kGuy-15" value="" style="shape=image;verticalLabelPosition=bottom;verticalAlign=top;imageAspect=0;aspect=fixed;image=data:image/svg+xml,PHN2ZyB4bWxuczp4bGluaz0iaHR0cDovL3d3dy53My5vcmcvMTk5OS94bGluayIgeG1sbnM9Imh0dHA6Ly93d3cudzMub3JnLzIwMDAvc3ZnIiBoZWlnaHQ9IjIwMCIgd2lkdGg9IjIwMCIgdmVyc2lvbj0iMS4xIiB2aWV3Qm94PSIwIDAgMTAyNCAxMDI0IiBjbGFzcz0iaWNvbiI+PHBhdGggZmlsbD0iIzRBOTE5QiIgZD0iTTY5OC44IDMzMGM0Ny42IDQ3LjYgODcuMiA5OC40IDExOCAxNDkuNmwyMi40LTM0Yy0zMC44LTQ4LjgtNjguOC05Ni44LTExNC0xNDJDNTY2LjggMTQ1LjIgMzcxLjYgNzIgMjQwIDEwOS42bDMwLjQgMzAuNGMxMTcuMi0yMiAyODcuMiA0OS4yIDQyOC40IDE5MHogbTYwLjgtMTkyLjhsMzAuOC0zMC44Yy02Ny4yLTE5LjItMTUwLjQtMTAtMjM3LjIgMjQuNGw0MCAyNC40YzYwLjgtMjAuNCAxMTgtMjcuMiAxNjYuNC0xOHogbS01MjQgMTAwLjRjMjkuMi0yOS4yIDI5LjItNzYuOCAwLTEwNi0yOS4yLTI5LjItNzYuOC0yOS4yLTEwNiAwLTI5LjIgMjkuMi0yOS4yIDc2LjggMCAxMDYgMjkuMiAyOS4yIDc2LjggMjkuMiAxMDYgMHpNMTUxLjIgMTU1LjZhMzcuOTA0IDM3LjkwNCAwIDEgMSA1My42IDUzLjYwOEEzNy45MDQgMzcuOTA0IDAgMCAxIDE1MS4yIDE1NS42eiBtNDI2IDY4OS4yYzUwLjgtMzEuMiAxMDEuMi03MC44IDE0OC0xMTcuNiAxNTguNC0xNTguNCAyMzEuNi0zNTMuNiAxOTQtNDg1LjJsLTMwLjQgMzAuNGMyMiAxMTcuMi00OC44IDI4Ny4yLTE5MCA0MjguNC00OS4yIDQ5LjItMTAyIDkwLTE1NC44IDEyMS4ybDMzLjIgMjIuOHogbTIxNC02MDcuMmMyOS4yIDI5LjIgNzYuOCAyOS4yIDEwNiAwIDI5LjItMjkuMiAyOS4yLTc2LjggMC0xMDYtMjkuMi0yOS4yLTc2LjgtMjkuMi0xMDYgMC0yOS4yIDI5LjItMjkuMiA3Ni44IDAgMTA2eiBtMzAuOC04MmEzNy45MDQgMzcuOTA0IDAgMSAxIDUzLjYgNTMuNjA4QTM3LjkwNCAzNy45MDQgMCAwIDEgODIyIDE1NS42eiBtNDggNDM1LjZjMjEuMiA2MC44IDI4IDExOC44IDE4LjggMTY3LjJsMzAuNCAzMC40YzE5LjItNjYuNCA5LjYtMTQ5LjItMjQuOC0yMzUuNmwtMjQuNCAzOHpNMjcwLjQgODkwLjhsLTMwLjQgMzAuNGM2NS42IDE4LjggMTQ3LjIgMTAgMjMyLjQtMjMuMmwtMzYuNC0yNS4yYy02MC40IDIwLjQtMTE3LjIgMjcuMi0xNjUuNiAxOHpNMzI4IDcwMC44Yy00OC40LTQ4LjQtODguNC0xMDAtMTE5LjItMTUxLjZsLTIxLjIgMzYuNGMzMC44IDQ4LjggNjguOCA5Ni44IDExNCAxNDEuNiAxNTguNCAxNTguNCAzNTMuNiAyMzEuNiA0ODUuMiAxOTRsLTMwLjQtMzAuNGMtMTE3LjIgMjItMjg3LjItNDguOC00MjguNC0xOTB6IG0tMTcyLjgtMjY2Yy0yMC01OS4yLTI2LTExNS4yLTE3LjItMTYyLjRsLTMwLjQtMzAuNGMtMTguOCA2Ni0xMCAxNDguNCAyNCAyMzMuNmwyMy42LTQwLjh6IG02MzYgMzU4LjRjLTI5LjIgMjkuMi0yOS4yIDc2LjggMCAxMDYgMjkuMiAyOS4yIDc2LjggMjkuMiAxMDYgMCAyOS4yLTI5LjIgMjkuMi03Ni44IDAtMTA2LTI5LjItMjkuMi03Ni40LTI5LjItMTA2IDB6IG04NC40IDg2LjhhMzcuOTA0IDM3LjkwNCAwIDEgMS01My42LTUzLjYwOEEzNy45MDQgMzcuOTA0IDAgMCAxIDg3NS42IDg4MHogbS02NDAtODYuOGMtMjkuMi0yOS4yLTc2LjgtMjkuMi0xMDYgMC0yOS4yIDI5LjItMjkuMiA3Ni44IDAgMTA2IDI5LjIgMjkuMiA3Ni44IDI5LjIgMTA2IDAgMjkuMi0yOS4yIDI5LjItNzYuNCAwLTEwNnpNMjA0LjggODgwYTM3LjkwNCAzNy45MDQgMCAxIDEtNTMuNi01My42MDhBMzcuOTA0IDM3LjkwNCAwIDAgMSAyMDQuOCA4ODB6IG0tNjYuOC0xMjEuNkMxMTYgNjQxLjIgMTg3LjIgNDcxLjIgMzI4IDMzMGM0Ny4yLTQ3LjIgOTcuNi04Ni40IDE0OC0xMTcuMmwtMzUuMi0yMS42Yy00Ny42IDMwLjQtOTQuOCA2OC0xMzkuMiAxMTItMTU4LjQgMTU4LjQtMjMxLjYgMzUzLjYtMTk0IDQ4NS4ybDMwLjQtMzB6IG0zMjAuOC05NC40YzkuMiAwIDE2LjQtNy4yIDE2LjQtMTYuNFYzODQuOGMwLTYuOC00LTEyLjgtMTAuNC0xNS4yLTYtMi40LTEzLjItMS4yLTE4IDMuNmwtOTMuMiA5NS42Yy02LjQgNi40LTYuNCAxNi44IDAuNCAyMy4yIDYuNCA2LjQgMTYuOCA2IDIzLjItMC40bDY1LjItNjYuOHYyMjIuNGMwIDkuNiA3LjIgMTYuOCAxNi40IDE2Ljh6TTU2OCAzNzEuNmMtOS4yIDAtMTYuNCA3LjItMTYuNCAxNi40djI2Mi44YzAgNi44IDQgMTIuOCAxMCAxNS4yIDIgMC44IDQgMS4yIDYgMS4yIDQuNCAwIDguNC0xLjYgMTEuNi00LjhsOTMuMi05NS42YzYuNC02LjQgNi40LTE2LjgtMC40LTIzLjItNi40LTYuNC0xNi44LTYtMjMuMiAwLjRsLTY1LjIgNjYuOFYzODcuNmMwLjgtOC44LTYuNC0xNi0xNS42LTE2eiBtMCAwIi8+PHBhdGggZmlsbD0iIzRBOTE5QiIgZD0iTTcxMi44IDkzNC44Yy0xMjggMC0yODQuOC03Ni00MTQtMjA0LjgtNDQuNC00NC40LTgyLjgtOTItMTE0LjQtMTQyLjRsLTEuMi0yIDI1LjYtNDQuNCAzLjYgNmMzMiA1My4yIDcxLjYgMTA0IDExOC44IDE1MC44IDEzNS4yIDEzNS4yIDMwNiAyMTEuMiA0MjQuOCAxODguOGwyLTAuNCAzNi44IDM2LjgtNi40IDJjLTI0IDYuNC00OS4yIDkuNi03NS42IDkuNnpNMTkyLjQgNTg1LjJjMzEuMiA0OS4yIDY4LjggOTYgMTEyIDEzOS4yIDE1MS4yIDE1MS4yIDM0MC44IDIyOC44IDQ3NC40IDE5NC44bC0yNC0yNGMtNTguOCAxMC40LTEyOS42LTEuNi0yMDUuNi0zNC40LTc4LTM0LTE1NS42LTg4LjQtMjI0LjQtMTU3LjItNDUuNi00NS42LTg0LjgtOTUuMi0xMTYuNC0xNDYuOGwtMTYgMjguNHogbTEyMS42IDM0OS42Yy0yNi44IDAtNTEuNi0zLjItNzUuMi0xMGwtNi40LTIgMzYuOC0zNi44IDIgMC40YzQ2LjggOC44IDEwMy4yIDIuNCAxNjMuNi0xOC40bDItMC44IDQ0IDMwLjgtNi44IDIuOGMtNTYuOCAyMi44LTExMC44IDM0LTE2MCAzNHogbS02Ni40LTE1LjZjNjEuNiAxNS42IDEzNiA4IDIxNi0yMi40bC0yOC40LTIwYy02MCAyMC40LTExNi40IDI2LjgtMTYzLjYgMTguNGwtMjQgMjR6IG0tNjUuMiA2Yy0yMS4yIDAtNDAuOC04LjQtNTUuNi0yMy4yLTE0LjgtMTQuOC0yMy4yLTM0LjgtMjMuMi01NS42IDAtMjEuMiA4LjQtNDAuOCAyMy4yLTU1LjYgMTQuOC0xNC44IDM0LjgtMjMuMiA1NS42LTIzLjIgMjEuMiAwIDQwLjggOC40IDU1LjYgMjMuMiAxNC44IDE0LjggMjMuMiAzNC44IDIzLjIgNTUuNiAwIDIxLjItOC40IDQwLjgtMjMuMiA1NS42LTE0LjQgMTQuOC0zNC40IDIzLjItNTUuNiAyMy4yeiBtMC0xNDkuNmMtMTguOCAwLTM2LjggNy4yLTUwIDIwLjgtMTMuMiAxMy4yLTIwLjggMzEuMi0yMC44IDUwczcuMiAzNi44IDIwLjggNTBjMTMuMiAxMy4yIDMxLjIgMjAuOCA1MCAyMC44czM2LjgtNy4yIDUwLTIwLjhjMTMuMi0xMy4yIDIwLjgtMzEuMiAyMC44LTUwcy03LjItMzYuOC0yMC44LTUwYy0xMy4yLTEzLjYtMzAuOC0yMC44LTUwLTIwLjh6IG02NjIgMTQ5LjZjLTIwIDAtNDAuNC03LjYtNTUuNi0yMy4yLTMwLjgtMzAuOC0zMC44LTgwLjggMC0xMTEuNiAzMC44LTMwLjggODAuOC0zMC44IDExMS42IDAgMzAuOCAzMC44IDMwLjggODAuOCAwIDExMS42LTE1LjYgMTUuNi0zNiAyMy4yLTU2IDIzLjJ6TTc5NC40IDc5NmMtMjcuNiAyNy42LTI3LjYgNzIuNCAwIDEwMC40IDI3LjYgMjcuNiA3Mi40IDI3LjYgMTAwLjQgMCAyNy42LTI3LjYgMjcuNi03Mi40IDAtMTAwLjQtMjgtMjcuNi03Mi44LTI3LjYtMTAwLjQgMHpNMTc4IDg5NS4yYy0xMS4yIDAtMjEuNi00LjQtMjkuNi0xMi40cy0xMi40LTE4LjQtMTIuNC0yOS42YzAtMTEuMiA0LjQtMjEuNiAxMi40LTI5LjZzMTguNC0xMi40IDI5LjYtMTIuNGMxMS4yIDAgMjEuNiA0LjQgMjkuNiAxMi40czEyLjQgMTguNCAxMi40IDI5LjZjMCAxMS4yLTQuNCAyMS42LTEyLjQgMjkuNnMtMTguNCAxMi40LTI5LjYgMTIuNHogbTAtNzZjLTkuMiAwLTE3LjYgMy42LTI0IDEwLTYuNCA2LjQtMTAgMTQuOC0xMCAyNHMzLjYgMTcuNiAxMCAyNGM2LjQgNi40IDE0LjggMTAgMjQgMTBzMTcuNi0zLjYgMjQtMTBjNi40LTYuNCAxMC0xNC44IDEwLTI0cy0zLjYtMTcuNi0xMC0yNGMtNi40LTYuNC0xNC44LTEwLTI0LTEweiBtNjcwLjggNzZjLTExLjIgMC0yMS42LTQuNC0yOS42LTEyLjRzLTEyLjQtMTguNC0xMi40LTI5LjZjMC0xMS4yIDQuNC0yMS42IDEyLjQtMjkuNnMxOC40LTEyLjQgMjkuNi0xMi40YzExLjIgMCAyMS42IDQuNCAyOS42IDEyLjRzMTIuNCAxOC40IDEyLjQgMjkuNmMwIDExLjItNC40IDIxLjYtMTIuNCAyOS42LTcuNiA4LTE4LjQgMTIuNC0yOS42IDEyLjR6IG0wLTc2Yy05LjIgMC0xNy42IDMuNi0yNCAxMC02LjQgNi40LTEwIDE0LjgtMTAgMjRzMy42IDE3LjYgMTAgMjRjNi40IDYuNCAxNC44IDEwIDI0IDEwczE3LjYtMy42IDI0LTEwYzYuNC02LjQgMTAtMTQuOCAxMC0yNHMtMy42LTE3LjYtMTAtMjRjLTYuNC02LjQtMTQuOC0xMC0yNC0xMHogbS0yNzEuNiAzMC40bC00MC40LTI4LjQgNS4yLTMuMmM1NC40LTMyIDEwNi03Mi40IDE1NC0xMjAuNCAxMzUuMi0xMzUuMiAyMTEuMi0zMDYgMTg4LjgtNDI0LjhsLTAuNC0yIDM2LjgtMzYuOCAyIDYuNGMzOS4yIDEzNi44LTM5LjIgMzMzLjItMTk0LjggNDg5LjItNDYgNDYtOTYgODYtMTQ4LjggMTE4LjRsLTIuNCAxLjZ6IG0tMjUuNi0yNy42bDI2IDE4YzUxLjItMzEuNiAxMDAtNzAuOCAxNDUuMi0xMTUuNiAxNTEuMi0xNTEuMiAyMjguOC0zNDAuOCAxOTQuOC00NzQuNGwtMjQgMjRjMjEuNiAxMjEuMi01NS4yIDI5My4yLTE5MS42IDQyOS42LTQ3LjIgNDYuOC05Ny42IDg2LjQtMTUwLjQgMTE4LjR6IG0zNjkuNi0yNS42bC0zNi44LTM2LjggMC40LTJjOC44LTQ3LjIgMi40LTEwNC40LTE4LjgtMTY1LjJsLTAuOC0yIDMwLTQ1LjYgMi44IDcuMmMzNS42IDg4LjggNDQgMTcxLjIgMjQuOCAyMzhsLTEuNiA2LjR6IG0tMjgtMzkuMmwyNCAyNGMxNS42LTYxLjYgNy4yLTEzOC44LTIzLjYtMjE5LjJsLTE5LjIgMjkuNmMyMC44IDYwLjQgMjcuMiAxMTcuNiAxOC44IDE2NS42eiBtLTc4Ny42IDM5LjJsLTItNi40Yy0zOS4yLTEzNi44IDM5LjItMzMzLjIgMTk1LjItNDg5LjIgNDMuNi00My42IDkwLjQtODEuMiAxNDAtMTEyLjhsMi0xLjIgNDMuMiAyNi40LTUuNiAzLjZjLTUyIDMxLjItMTAxLjYgNzAuNC0xNDcuNiAxMTYtMTM1LjIgMTM1LjItMjExLjIgMzA2LTE4OC44IDQyNC44bDAuNCAyLTM2LjggMzYuOHogbTMzNS4yLTYwMGMtNDggMzAuOC05NCA2OC0xMzYuNCAxMTAuNC0xNTEuMiAxNTEuMi0yMjguOCAzNDAuOC0xOTQuOCA0NzQuNGwyNC0yNGMtMTAuNC01OC44IDEuNi0xMjkuNiAzNC40LTIwNS42IDM0LTc4IDg4LjQtMTU1LjYgMTU3LjItMjI0LjQgNDQuOC00NC44IDkyLjgtODMuMiAxNDMuMi0xMTQuNGwtMjcuNi0xNi40ek01NjggNjcwLjhjLTIuOCAwLTUuMi0wLjQtNy42LTEuNi03LjYtMy4yLTEyLjgtMTAuNC0xMi44LTE4LjhWMzg4YzAtMTEuMiA5LjItMjAuNCAyMC40LTIwLjRzMjAuNCA5LjIgMjAuNCAyMC40djIxMi44bDU4LjQtNjBjNC00IDguOC02IDE0LjQtNnMxMC40IDIgMTQuNCA2YzQgMy42IDYgOC44IDYgMTQuNHMtMiAxMC40LTYgMTQuNGwtOTMuMiA5NS42Yy0zLjYgMy42LTguOCA1LjYtMTQuNCA1LjZ6IG0wLTI5NS4yYy02LjggMC0xMi40IDUuNi0xMi40IDEyLjR2MjYyLjhjMCA1LjIgMy4yIDkuNiA3LjYgMTEuNiA0LjggMiAxMCAwLjggMTMuNi0yLjhsOTMuMi05NS42YzIuNC0yLjQgMy42LTUuNiAzLjYtOC44IDAtMy4yLTEuMi02LjQtMy42LTguOC0yLjQtMi40LTUuNi0zLjYtOC44LTMuNi0zLjIgMC02LjQgMS4yLTguOCAzLjZsLTcyIDc0VjM4OGMwLTcuMi01LjYtMTIuNC0xMi40LTEyLjR6TTQ1OC44IDY2OGMtMTEuMiAwLTIwLjQtOS4yLTIwLjQtMjAuNHYtMjEyLjhsLTU4LjQgNjBjLTQgNC04LjggNi0xNC40IDZzLTEwLjQtMi0xNC40LTZjLTQtMy42LTYtOC44LTYtMTQuNHMyLTEwLjQgNi0xNC40bDkzLjItOTUuNmM1LjYtNiAxNC44LTcuNiAyMi40LTQuOCA3LjYgMy4yIDEyLjggMTAuNCAxMi44IDE4Ljh2MjYyLjhjLTAuNCAxMS42LTkuNiAyMC44LTIwLjggMjAuOHogbS0xMi40LTI1Mi44djIzMi40YzAgNi44IDUuNiAxMi40IDEyLjQgMTIuNHMxMi40LTUuNiAxMi40LTEyLjRWMzg0LjhjMC01LjItMy4yLTkuNi03LjYtMTEuNi00LjgtMi0xMC0wLjgtMTMuNiAyLjhsLTkzLjIgOTZjLTIuNCAyLjQtMy42IDUuNi0zLjYgOC44IDAgMy4yIDEuMiA2LjQgMy42IDguOCAyLjQgMi40IDUuNiAzLjYgOC44IDMuNiAzLjIgMCA2LjQtMS4yIDguOC0zLjZsNzItNzQuNHogbTM3MC40IDcybC0zLjItNS42Yy0zMS42LTUyLjQtNzEuMi0xMDIuNC0xMTcuNi0xNDguOEM1NjAuNCAxOTcuNiAzOTAgMTIxLjYgMjcxLjIgMTQ0bC0yIDAuNC0zNi44LTM2LjggNi40LTJDMzc1LjYgNjYuNCA1NzIgMTQ0LjggNzI4IDMwMC40YzQ0LjQgNDQuNCA4Mi44IDkyLjQgMTE0LjQgMTQyLjRsMS4yIDItMjYuOCA0Mi40ek0zMTUuMiAxMzJjNDguOCAwIDEwNCAxMi44IDE2MiAzOCA3OCAzNCAxNTUuNiA4OC40IDIyNC40IDE1Ny4yIDQ1LjIgNDUuMiA4NCA5NCAxMTUuMiAxNDQuOGwxNy42LTI2LjhjLTMxLjItNDkuMi02OC44LTk2LTExMi0xMzkuMi0xNTEuMi0xNTAuOC0zNDAuOC0yMjguNC00NzQuOC0xOTQuNGwyNCAyNGMxNC0yLjQgMjguNC0zLjYgNDMuNi0zLjZ6IG0tMTg0IDM1Mi44bC0zLjItNy42Yy0zNC44LTg4LTQzLjItMTY5LjYtMjQtMjM2LjRsMi02LjQgMzYuOCAzNi44LTAuNCAyYy04LjggNDYtMi44IDEwMS4yIDE3LjIgMTYwLjRsMC40IDEuNi0yOC44IDQ5LjZ6IG0tMjEuNi0yMzUuMmMtMTUuNiA2MC44LTcuNiAxMzcuMiAyMi44IDIxNi44bDE4LjQtMzJjLTE5LjYtNTguOC0yNS42LTExNC0xNy4yLTE2MC40bC0yNC0yNC40eiBtNzM0LjggMTRjLTIxLjIgMC00MC44LTguNC01NS42LTIzLjItMTQuOC0xNC44LTIzLjItMzQuOC0yMy4yLTU1LjYgMC0yMS4yIDguNC00MC44IDIzLjItNTUuNiAxNC44LTE0LjggMzQuOC0yMy4yIDU1LjYtMjMuMiAyMS4yIDAgNDAuOCA4LjQgNTUuNiAyMy4yIDE0LjggMTQuOCAyMy4yIDM0LjggMjMuMiA1NS42IDAgMjEuMi04LjQgNDAuOC0yMy4yIDU1LjYtMTQuOCAxNC44LTM0LjggMjMuMi01NS42IDIzLjJ6IG0wLTE1MGMtMTguOCAwLTM2LjggNy4yLTUwIDIwLjgtMTMuMiAxMy4yLTIwLjggMzEuMi0yMC44IDUwczcuMiAzNi44IDIwLjggNTBjMTMuMiAxMy4yIDMxLjIgMjAuOCA1MCAyMC44czM2LjgtNy4yIDUwLTIwLjhjMTMuMi0xMy4yIDIwLjgtMzEuMiAyMC44LTUwcy03LjItMzYuOC0yMC44LTUwYy0xMy4yLTEzLjItMzEuMi0yMC44LTUwLTIwLjh6TTE4Mi40IDI2My42Yy0yMS4yIDAtNDAuOC04LjQtNTUuNi0yMy4yLTE0LjgtMTQuOC0yMy4yLTM0LjgtMjMuMi01NS42IDAtMjEuMiA4LjQtNDAuOCAyMy4yLTU1LjYgMTQuOC0xNC44IDM0LjgtMjMuMiA1NS42LTIzLjIgMjEuMiAwIDQwLjggOC40IDU1LjYgMjMuMiAxNC44IDE0LjggMjMuMiAzNC44IDIzLjIgNTUuNiAwIDIxLjItOC40IDQwLjgtMjMuMiA1NS42LTE0LjQgMTQuOC0zNC40IDIzLjItNTUuNiAyMy4yeiBtMC0xNTBjLTE4LjggMC0zNi44IDcuMi01MCAyMC44LTEzLjIgMTMuMi0yMC44IDMxLjItMjAuOCA1MHM3LjIgMzYuOCAyMC44IDUwYzEzLjIgMTMuMiAzMS4yIDIwLjggNTAgMjAuOHMzNi44LTcuMiA1MC0yMC44YzEzLjItMTMuMiAyMC44LTMxLjIgMjAuOC01MHMtNy4yLTM2LjgtMjAuOC01MGMtMTMuMi0xMy4yLTMwLjgtMjAuOC01MC0yMC44eiBtNjY2LjQgMTEwLjhjLTExLjIgMC0yMS42LTQuNC0yOS42LTEyLjRzLTEyLjQtMTguNC0xMi40LTI5LjZjMC0xMS4yIDQuNC0yMS42IDEyLjQtMjkuNiAxNi40LTE2LjQgNDIuOC0xNi40IDU5LjIgMCA4IDggMTIuNCAxOC40IDEyLjQgMjkuNiAwIDExLjItNC40IDIxLjYtMTIuNCAyOS42LTcuNiA4LTE4LjQgMTIuNC0yOS42IDEyLjR6IG0tMjQtNjZjLTYuNCA2LjQtMTAgMTQuOC0xMCAyNHMzLjYgMTcuNiAxMCAyNGM2LjQgNi40IDE0LjggMTAgMjQgMTBzMTcuNi0zLjYgMjQtMTBjNi40LTYuNCAxMC0xNC44IDEwLTI0cy0zLjYtMTcuNi0xMC0yNGMtMTMuMi0xMy4yLTM0LjgtMTMuMi00OCAwek0xNzggMjI0LjRjLTExLjIgMC0yMS42LTQuNC0yOS42LTEyLjRTMTM2IDE5My42IDEzNiAxODIuNGMwLTExLjIgNC40LTIxLjYgMTIuNC0yOS42IDE2LjQtMTYuNCA0Mi44LTE2LjQgNTkuMiAwIDggOCAxMi40IDE4LjQgMTIuNCAyOS42IDAgMTEuMi00LjQgMjEuNi0xMi40IDI5LjZzLTE4LjQgMTIuNC0yOS42IDEyLjR6IG0wLTc2Yy04LjggMC0xNy4yIDMuMi0yNCAxMC02LjQgNi40LTEwIDE0LjgtMTAgMjRzMy42IDE3LjYgMTAgMjRjNi40IDYuNCAxNC44IDEwIDI0IDEwczE3LjYtMy42IDI0LTEwYzYuNC02LjQgMTAtMTQuOCAxMC0yNHMtMy42LTE3LjYtMTAtMjRjLTYuNC02LjgtMTUuMi0xMC0yNC0xMHpNNTkyLjggMTYwbC00OC40LTI5LjYgNy42LTIuOGM4OS42LTM1LjYgMTcyLjQtNDQgMjQwLTI0LjhsNi40IDItMzcuMiAzNy4yLTItMC40Yy00Ny4yLTguOC0xMDQtMi44LTE2NC40IDE4bC0yIDAuNHogbS0zMC40LTI4LjRsMzEuNiAxOS4yYzYwLjQtMjAuNCAxMTcuMi0yNi40IDE2NC44LTE4bDI0LjQtMjQuNGMtNjIuNC0xNS42LTE0MC03LjItMjIwLjggMjMuMnoiLz48L3N2Zz4=" parent="1" vertex="1">
          <mxGeometry x="300" y="1040" width="52" height="52" as="geometry" />
        </mxCell>
        <mxCell id="23kUrq4-E0xQPG93kGuy-16" value="" style="shape=image;verticalLabelPosition=bottom;verticalAlign=top;imageAspect=0;aspect=fixed;image=data:image/svg+xml,PHN2ZyB4bWxuczp4bGluaz0iaHR0cDovL3d3dy53My5vcmcvMTk5OS94bGluayIgeG1sbnM9Imh0dHA6Ly93d3cudzMub3JnLzIwMDAvc3ZnIiBoZWlnaHQ9IjIwMCIgd2lkdGg9IjIwMCIgdmVyc2lvbj0iMS4xIiB2aWV3Qm94PSIwIDAgMTAyNCAxMDI0IiBjbGFzcz0iaWNvbiI+PHBhdGggZmlsbD0iIzRBOTE5QiIgZD0iTTY5OC44IDMzMGM0Ny42IDQ3LjYgODcuMiA5OC40IDExOCAxNDkuNmwyMi40LTM0Yy0zMC44LTQ4LjgtNjguOC05Ni44LTExNC0xNDJDNTY2LjggMTQ1LjIgMzcxLjYgNzIgMjQwIDEwOS42bDMwLjQgMzAuNGMxMTcuMi0yMiAyODcuMiA0OS4yIDQyOC40IDE5MHogbTYwLjgtMTkyLjhsMzAuOC0zMC44Yy02Ny4yLTE5LjItMTUwLjQtMTAtMjM3LjIgMjQuNGw0MCAyNC40YzYwLjgtMjAuNCAxMTgtMjcuMiAxNjYuNC0xOHogbS01MjQgMTAwLjRjMjkuMi0yOS4yIDI5LjItNzYuOCAwLTEwNi0yOS4yLTI5LjItNzYuOC0yOS4yLTEwNiAwLTI5LjIgMjkuMi0yOS4yIDc2LjggMCAxMDYgMjkuMiAyOS4yIDc2LjggMjkuMiAxMDYgMHpNMTUxLjIgMTU1LjZhMzcuOTA0IDM3LjkwNCAwIDEgMSA1My42IDUzLjYwOEEzNy45MDQgMzcuOTA0IDAgMCAxIDE1MS4yIDE1NS42eiBtNDI2IDY4OS4yYzUwLjgtMzEuMiAxMDEuMi03MC44IDE0OC0xMTcuNiAxNTguNC0xNTguNCAyMzEuNi0zNTMuNiAxOTQtNDg1LjJsLTMwLjQgMzAuNGMyMiAxMTcuMi00OC44IDI4Ny4yLTE5MCA0MjguNC00OS4yIDQ5LjItMTAyIDkwLTE1NC44IDEyMS4ybDMzLjIgMjIuOHogbTIxNC02MDcuMmMyOS4yIDI5LjIgNzYuOCAyOS4yIDEwNiAwIDI5LjItMjkuMiAyOS4yLTc2LjggMC0xMDYtMjkuMi0yOS4yLTc2LjgtMjkuMi0xMDYgMC0yOS4yIDI5LjItMjkuMiA3Ni44IDAgMTA2eiBtMzAuOC04MmEzNy45MDQgMzcuOTA0IDAgMSAxIDUzLjYgNTMuNjA4QTM3LjkwNCAzNy45MDQgMCAwIDEgODIyIDE1NS42eiBtNDggNDM1LjZjMjEuMiA2MC44IDI4IDExOC44IDE4LjggMTY3LjJsMzAuNCAzMC40YzE5LjItNjYuNCA5LjYtMTQ5LjItMjQuOC0yMzUuNmwtMjQuNCAzOHpNMjcwLjQgODkwLjhsLTMwLjQgMzAuNGM2NS42IDE4LjggMTQ3LjIgMTAgMjMyLjQtMjMuMmwtMzYuNC0yNS4yYy02MC40IDIwLjQtMTE3LjIgMjcuMi0xNjUuNiAxOHpNMzI4IDcwMC44Yy00OC40LTQ4LjQtODguNC0xMDAtMTE5LjItMTUxLjZsLTIxLjIgMzYuNGMzMC44IDQ4LjggNjguOCA5Ni44IDExNCAxNDEuNiAxNTguNCAxNTguNCAzNTMuNiAyMzEuNiA0ODUuMiAxOTRsLTMwLjQtMzAuNGMtMTE3LjIgMjItMjg3LjItNDguOC00MjguNC0xOTB6IG0tMTcyLjgtMjY2Yy0yMC01OS4yLTI2LTExNS4yLTE3LjItMTYyLjRsLTMwLjQtMzAuNGMtMTguOCA2Ni0xMCAxNDguNCAyNCAyMzMuNmwyMy42LTQwLjh6IG02MzYgMzU4LjRjLTI5LjIgMjkuMi0yOS4yIDc2LjggMCAxMDYgMjkuMiAyOS4yIDc2LjggMjkuMiAxMDYgMCAyOS4yLTI5LjIgMjkuMi03Ni44IDAtMTA2LTI5LjItMjkuMi03Ni40LTI5LjItMTA2IDB6IG04NC40IDg2LjhhMzcuOTA0IDM3LjkwNCAwIDEgMS01My42LTUzLjYwOEEzNy45MDQgMzcuOTA0IDAgMCAxIDg3NS42IDg4MHogbS02NDAtODYuOGMtMjkuMi0yOS4yLTc2LjgtMjkuMi0xMDYgMC0yOS4yIDI5LjItMjkuMiA3Ni44IDAgMTA2IDI5LjIgMjkuMiA3Ni44IDI5LjIgMTA2IDAgMjkuMi0yOS4yIDI5LjItNzYuNCAwLTEwNnpNMjA0LjggODgwYTM3LjkwNCAzNy45MDQgMCAxIDEtNTMuNi01My42MDhBMzcuOTA0IDM3LjkwNCAwIDAgMSAyMDQuOCA4ODB6IG0tNjYuOC0xMjEuNkMxMTYgNjQxLjIgMTg3LjIgNDcxLjIgMzI4IDMzMGM0Ny4yLTQ3LjIgOTcuNi04Ni40IDE0OC0xMTcuMmwtMzUuMi0yMS42Yy00Ny42IDMwLjQtOTQuOCA2OC0xMzkuMiAxMTItMTU4LjQgMTU4LjQtMjMxLjYgMzUzLjYtMTk0IDQ4NS4ybDMwLjQtMzB6IG0zMjAuOC05NC40YzkuMiAwIDE2LjQtNy4yIDE2LjQtMTYuNFYzODQuOGMwLTYuOC00LTEyLjgtMTAuNC0xNS4yLTYtMi40LTEzLjItMS4yLTE4IDMuNmwtOTMuMiA5NS42Yy02LjQgNi40LTYuNCAxNi44IDAuNCAyMy4yIDYuNCA2LjQgMTYuOCA2IDIzLjItMC40bDY1LjItNjYuOHYyMjIuNGMwIDkuNiA3LjIgMTYuOCAxNi40IDE2Ljh6TTU2OCAzNzEuNmMtOS4yIDAtMTYuNCA3LjItMTYuNCAxNi40djI2Mi44YzAgNi44IDQgMTIuOCAxMCAxNS4yIDIgMC44IDQgMS4yIDYgMS4yIDQuNCAwIDguNC0xLjYgMTEuNi00LjhsOTMuMi05NS42YzYuNC02LjQgNi40LTE2LjgtMC40LTIzLjItNi40LTYuNC0xNi44LTYtMjMuMiAwLjRsLTY1LjIgNjYuOFYzODcuNmMwLjgtOC44LTYuNC0xNi0xNS42LTE2eiBtMCAwIi8+PHBhdGggZmlsbD0iIzRBOTE5QiIgZD0iTTcxMi44IDkzNC44Yy0xMjggMC0yODQuOC03Ni00MTQtMjA0LjgtNDQuNC00NC40LTgyLjgtOTItMTE0LjQtMTQyLjRsLTEuMi0yIDI1LjYtNDQuNCAzLjYgNmMzMiA1My4yIDcxLjYgMTA0IDExOC44IDE1MC44IDEzNS4yIDEzNS4yIDMwNiAyMTEuMiA0MjQuOCAxODguOGwyLTAuNCAzNi44IDM2LjgtNi40IDJjLTI0IDYuNC00OS4yIDkuNi03NS42IDkuNnpNMTkyLjQgNTg1LjJjMzEuMiA0OS4yIDY4LjggOTYgMTEyIDEzOS4yIDE1MS4yIDE1MS4yIDM0MC44IDIyOC44IDQ3NC40IDE5NC44bC0yNC0yNGMtNTguOCAxMC40LTEyOS42LTEuNi0yMDUuNi0zNC40LTc4LTM0LTE1NS42LTg4LjQtMjI0LjQtMTU3LjItNDUuNi00NS42LTg0LjgtOTUuMi0xMTYuNC0xNDYuOGwtMTYgMjguNHogbTEyMS42IDM0OS42Yy0yNi44IDAtNTEuNi0zLjItNzUuMi0xMGwtNi40LTIgMzYuOC0zNi44IDIgMC40YzQ2LjggOC44IDEwMy4yIDIuNCAxNjMuNi0xOC40bDItMC44IDQ0IDMwLjgtNi44IDIuOGMtNTYuOCAyMi44LTExMC44IDM0LTE2MCAzNHogbS02Ni40LTE1LjZjNjEuNiAxNS42IDEzNiA4IDIxNi0yMi40bC0yOC40LTIwYy02MCAyMC40LTExNi40IDI2LjgtMTYzLjYgMTguNGwtMjQgMjR6IG0tNjUuMiA2Yy0yMS4yIDAtNDAuOC04LjQtNTUuNi0yMy4yLTE0LjgtMTQuOC0yMy4yLTM0LjgtMjMuMi01NS42IDAtMjEuMiA4LjQtNDAuOCAyMy4yLTU1LjYgMTQuOC0xNC44IDM0LjgtMjMuMiA1NS42LTIzLjIgMjEuMiAwIDQwLjggOC40IDU1LjYgMjMuMiAxNC44IDE0LjggMjMuMiAzNC44IDIzLjIgNTUuNiAwIDIxLjItOC40IDQwLjgtMjMuMiA1NS42LTE0LjQgMTQuOC0zNC40IDIzLjItNTUuNiAyMy4yeiBtMC0xNDkuNmMtMTguOCAwLTM2LjggNy4yLTUwIDIwLjgtMTMuMiAxMy4yLTIwLjggMzEuMi0yMC44IDUwczcuMiAzNi44IDIwLjggNTBjMTMuMiAxMy4yIDMxLjIgMjAuOCA1MCAyMC44czM2LjgtNy4yIDUwLTIwLjhjMTMuMi0xMy4yIDIwLjgtMzEuMiAyMC44LTUwcy03LjItMzYuOC0yMC44LTUwYy0xMy4yLTEzLjYtMzAuOC0yMC44LTUwLTIwLjh6IG02NjIgMTQ5LjZjLTIwIDAtNDAuNC03LjYtNTUuNi0yMy4yLTMwLjgtMzAuOC0zMC44LTgwLjggMC0xMTEuNiAzMC44LTMwLjggODAuOC0zMC44IDExMS42IDAgMzAuOCAzMC44IDMwLjggODAuOCAwIDExMS42LTE1LjYgMTUuNi0zNiAyMy4yLTU2IDIzLjJ6TTc5NC40IDc5NmMtMjcuNiAyNy42LTI3LjYgNzIuNCAwIDEwMC40IDI3LjYgMjcuNiA3Mi40IDI3LjYgMTAwLjQgMCAyNy42LTI3LjYgMjcuNi03Mi40IDAtMTAwLjQtMjgtMjcuNi03Mi44LTI3LjYtMTAwLjQgMHpNMTc4IDg5NS4yYy0xMS4yIDAtMjEuNi00LjQtMjkuNi0xMi40cy0xMi40LTE4LjQtMTIuNC0yOS42YzAtMTEuMiA0LjQtMjEuNiAxMi40LTI5LjZzMTguNC0xMi40IDI5LjYtMTIuNGMxMS4yIDAgMjEuNiA0LjQgMjkuNiAxMi40czEyLjQgMTguNCAxMi40IDI5LjZjMCAxMS4yLTQuNCAyMS42LTEyLjQgMjkuNnMtMTguNCAxMi40LTI5LjYgMTIuNHogbTAtNzZjLTkuMiAwLTE3LjYgMy42LTI0IDEwLTYuNCA2LjQtMTAgMTQuOC0xMCAyNHMzLjYgMTcuNiAxMCAyNGM2LjQgNi40IDE0LjggMTAgMjQgMTBzMTcuNi0zLjYgMjQtMTBjNi40LTYuNCAxMC0xNC44IDEwLTI0cy0zLjYtMTcuNi0xMC0yNGMtNi40LTYuNC0xNC44LTEwLTI0LTEweiBtNjcwLjggNzZjLTExLjIgMC0yMS42LTQuNC0yOS42LTEyLjRzLTEyLjQtMTguNC0xMi40LTI5LjZjMC0xMS4yIDQuNC0yMS42IDEyLjQtMjkuNnMxOC40LTEyLjQgMjkuNi0xMi40YzExLjIgMCAyMS42IDQuNCAyOS42IDEyLjRzMTIuNCAxOC40IDEyLjQgMjkuNmMwIDExLjItNC40IDIxLjYtMTIuNCAyOS42LTcuNiA4LTE4LjQgMTIuNC0yOS42IDEyLjR6IG0wLTc2Yy05LjIgMC0xNy42IDMuNi0yNCAxMC02LjQgNi40LTEwIDE0LjgtMTAgMjRzMy42IDE3LjYgMTAgMjRjNi40IDYuNCAxNC44IDEwIDI0IDEwczE3LjYtMy42IDI0LTEwYzYuNC02LjQgMTAtMTQuOCAxMC0yNHMtMy42LTE3LjYtMTAtMjRjLTYuNC02LjQtMTQuOC0xMC0yNC0xMHogbS0yNzEuNiAzMC40bC00MC40LTI4LjQgNS4yLTMuMmM1NC40LTMyIDEwNi03Mi40IDE1NC0xMjAuNCAxMzUuMi0xMzUuMiAyMTEuMi0zMDYgMTg4LjgtNDI0LjhsLTAuNC0yIDM2LjgtMzYuOCAyIDYuNGMzOS4yIDEzNi44LTM5LjIgMzMzLjItMTk0LjggNDg5LjItNDYgNDYtOTYgODYtMTQ4LjggMTE4LjRsLTIuNCAxLjZ6IG0tMjUuNi0yNy42bDI2IDE4YzUxLjItMzEuNiAxMDAtNzAuOCAxNDUuMi0xMTUuNiAxNTEuMi0xNTEuMiAyMjguOC0zNDAuOCAxOTQuOC00NzQuNGwtMjQgMjRjMjEuNiAxMjEuMi01NS4yIDI5My4yLTE5MS42IDQyOS42LTQ3LjIgNDYuOC05Ny42IDg2LjQtMTUwLjQgMTE4LjR6IG0zNjkuNi0yNS42bC0zNi44LTM2LjggMC40LTJjOC44LTQ3LjIgMi40LTEwNC40LTE4LjgtMTY1LjJsLTAuOC0yIDMwLTQ1LjYgMi44IDcuMmMzNS42IDg4LjggNDQgMTcxLjIgMjQuOCAyMzhsLTEuNiA2LjR6IG0tMjgtMzkuMmwyNCAyNGMxNS42LTYxLjYgNy4yLTEzOC44LTIzLjYtMjE5LjJsLTE5LjIgMjkuNmMyMC44IDYwLjQgMjcuMiAxMTcuNiAxOC44IDE2NS42eiBtLTc4Ny42IDM5LjJsLTItNi40Yy0zOS4yLTEzNi44IDM5LjItMzMzLjIgMTk1LjItNDg5LjIgNDMuNi00My42IDkwLjQtODEuMiAxNDAtMTEyLjhsMi0xLjIgNDMuMiAyNi40LTUuNiAzLjZjLTUyIDMxLjItMTAxLjYgNzAuNC0xNDcuNiAxMTYtMTM1LjIgMTM1LjItMjExLjIgMzA2LTE4OC44IDQyNC44bDAuNCAyLTM2LjggMzYuOHogbTMzNS4yLTYwMGMtNDggMzAuOC05NCA2OC0xMzYuNCAxMTAuNC0xNTEuMiAxNTEuMi0yMjguOCAzNDAuOC0xOTQuOCA0NzQuNGwyNC0yNGMtMTAuNC01OC44IDEuNi0xMjkuNiAzNC40LTIwNS42IDM0LTc4IDg4LjQtMTU1LjYgMTU3LjItMjI0LjQgNDQuOC00NC44IDkyLjgtODMuMiAxNDMuMi0xMTQuNGwtMjcuNi0xNi40ek01NjggNjcwLjhjLTIuOCAwLTUuMi0wLjQtNy42LTEuNi03LjYtMy4yLTEyLjgtMTAuNC0xMi44LTE4LjhWMzg4YzAtMTEuMiA5LjItMjAuNCAyMC40LTIwLjRzMjAuNCA5LjIgMjAuNCAyMC40djIxMi44bDU4LjQtNjBjNC00IDguOC02IDE0LjQtNnMxMC40IDIgMTQuNCA2YzQgMy42IDYgOC44IDYgMTQuNHMtMiAxMC40LTYgMTQuNGwtOTMuMiA5NS42Yy0zLjYgMy42LTguOCA1LjYtMTQuNCA1LjZ6IG0wLTI5NS4yYy02LjggMC0xMi40IDUuNi0xMi40IDEyLjR2MjYyLjhjMCA1LjIgMy4yIDkuNiA3LjYgMTEuNiA0LjggMiAxMCAwLjggMTMuNi0yLjhsOTMuMi05NS42YzIuNC0yLjQgMy42LTUuNiAzLjYtOC44IDAtMy4yLTEuMi02LjQtMy42LTguOC0yLjQtMi40LTUuNi0zLjYtOC44LTMuNi0zLjIgMC02LjQgMS4yLTguOCAzLjZsLTcyIDc0VjM4OGMwLTcuMi01LjYtMTIuNC0xMi40LTEyLjR6TTQ1OC44IDY2OGMtMTEuMiAwLTIwLjQtOS4yLTIwLjQtMjAuNHYtMjEyLjhsLTU4LjQgNjBjLTQgNC04LjggNi0xNC40IDZzLTEwLjQtMi0xNC40LTZjLTQtMy42LTYtOC44LTYtMTQuNHMyLTEwLjQgNi0xNC40bDkzLjItOTUuNmM1LjYtNiAxNC44LTcuNiAyMi40LTQuOCA3LjYgMy4yIDEyLjggMTAuNCAxMi44IDE4Ljh2MjYyLjhjLTAuNCAxMS42LTkuNiAyMC44LTIwLjggMjAuOHogbS0xMi40LTI1Mi44djIzMi40YzAgNi44IDUuNiAxMi40IDEyLjQgMTIuNHMxMi40LTUuNiAxMi40LTEyLjRWMzg0LjhjMC01LjItMy4yLTkuNi03LjYtMTEuNi00LjgtMi0xMC0wLjgtMTMuNiAyLjhsLTkzLjIgOTZjLTIuNCAyLjQtMy42IDUuNi0zLjYgOC44IDAgMy4yIDEuMiA2LjQgMy42IDguOCAyLjQgMi40IDUuNiAzLjYgOC44IDMuNiAzLjIgMCA2LjQtMS4yIDguOC0zLjZsNzItNzQuNHogbTM3MC40IDcybC0zLjItNS42Yy0zMS42LTUyLjQtNzEuMi0xMDIuNC0xMTcuNi0xNDguOEM1NjAuNCAxOTcuNiAzOTAgMTIxLjYgMjcxLjIgMTQ0bC0yIDAuNC0zNi44LTM2LjggNi40LTJDMzc1LjYgNjYuNCA1NzIgMTQ0LjggNzI4IDMwMC40YzQ0LjQgNDQuNCA4Mi44IDkyLjQgMTE0LjQgMTQyLjRsMS4yIDItMjYuOCA0Mi40ek0zMTUuMiAxMzJjNDguOCAwIDEwNCAxMi44IDE2MiAzOCA3OCAzNCAxNTUuNiA4OC40IDIyNC40IDE1Ny4yIDQ1LjIgNDUuMiA4NCA5NCAxMTUuMiAxNDQuOGwxNy42LTI2LjhjLTMxLjItNDkuMi02OC44LTk2LTExMi0xMzkuMi0xNTEuMi0xNTAuOC0zNDAuOC0yMjguNC00NzQuOC0xOTQuNGwyNCAyNGMxNC0yLjQgMjguNC0zLjYgNDMuNi0zLjZ6IG0tMTg0IDM1Mi44bC0zLjItNy42Yy0zNC44LTg4LTQzLjItMTY5LjYtMjQtMjM2LjRsMi02LjQgMzYuOCAzNi44LTAuNCAyYy04LjggNDYtMi44IDEwMS4yIDE3LjIgMTYwLjRsMC40IDEuNi0yOC44IDQ5LjZ6IG0tMjEuNi0yMzUuMmMtMTUuNiA2MC44LTcuNiAxMzcuMiAyMi44IDIxNi44bDE4LjQtMzJjLTE5LjYtNTguOC0yNS42LTExNC0xNy4yLTE2MC40bC0yNC0yNC40eiBtNzM0LjggMTRjLTIxLjIgMC00MC44LTguNC01NS42LTIzLjItMTQuOC0xNC44LTIzLjItMzQuOC0yMy4yLTU1LjYgMC0yMS4yIDguNC00MC44IDIzLjItNTUuNiAxNC44LTE0LjggMzQuOC0yMy4yIDU1LjYtMjMuMiAyMS4yIDAgNDAuOCA4LjQgNTUuNiAyMy4yIDE0LjggMTQuOCAyMy4yIDM0LjggMjMuMiA1NS42IDAgMjEuMi04LjQgNDAuOC0yMy4yIDU1LjYtMTQuOCAxNC44LTM0LjggMjMuMi01NS42IDIzLjJ6IG0wLTE1MGMtMTguOCAwLTM2LjggNy4yLTUwIDIwLjgtMTMuMiAxMy4yLTIwLjggMzEuMi0yMC44IDUwczcuMiAzNi44IDIwLjggNTBjMTMuMiAxMy4yIDMxLjIgMjAuOCA1MCAyMC44czM2LjgtNy4yIDUwLTIwLjhjMTMuMi0xMy4yIDIwLjgtMzEuMiAyMC44LTUwcy03LjItMzYuOC0yMC44LTUwYy0xMy4yLTEzLjItMzEuMi0yMC44LTUwLTIwLjh6TTE4Mi40IDI2My42Yy0yMS4yIDAtNDAuOC04LjQtNTUuNi0yMy4yLTE0LjgtMTQuOC0yMy4yLTM0LjgtMjMuMi01NS42IDAtMjEuMiA4LjQtNDAuOCAyMy4yLTU1LjYgMTQuOC0xNC44IDM0LjgtMjMuMiA1NS42LTIzLjIgMjEuMiAwIDQwLjggOC40IDU1LjYgMjMuMiAxNC44IDE0LjggMjMuMiAzNC44IDIzLjIgNTUuNiAwIDIxLjItOC40IDQwLjgtMjMuMiA1NS42LTE0LjQgMTQuOC0zNC40IDIzLjItNTUuNiAyMy4yeiBtMC0xNTBjLTE4LjggMC0zNi44IDcuMi01MCAyMC44LTEzLjIgMTMuMi0yMC44IDMxLjItMjAuOCA1MHM3LjIgMzYuOCAyMC44IDUwYzEzLjIgMTMuMiAzMS4yIDIwLjggNTAgMjAuOHMzNi44LTcuMiA1MC0yMC44YzEzLjItMTMuMiAyMC44LTMxLjIgMjAuOC01MHMtNy4yLTM2LjgtMjAuOC01MGMtMTMuMi0xMy4yLTMwLjgtMjAuOC01MC0yMC44eiBtNjY2LjQgMTEwLjhjLTExLjIgMC0yMS42LTQuNC0yOS42LTEyLjRzLTEyLjQtMTguNC0xMi40LTI5LjZjMC0xMS4yIDQuNC0yMS42IDEyLjQtMjkuNiAxNi40LTE2LjQgNDIuOC0xNi40IDU5LjIgMCA4IDggMTIuNCAxOC40IDEyLjQgMjkuNiAwIDExLjItNC40IDIxLjYtMTIuNCAyOS42LTcuNiA4LTE4LjQgMTIuNC0yOS42IDEyLjR6IG0tMjQtNjZjLTYuNCA2LjQtMTAgMTQuOC0xMCAyNHMzLjYgMTcuNiAxMCAyNGM2LjQgNi40IDE0LjggMTAgMjQgMTBzMTcuNi0zLjYgMjQtMTBjNi40LTYuNCAxMC0xNC44IDEwLTI0cy0zLjYtMTcuNi0xMC0yNGMtMTMuMi0xMy4yLTM0LjgtMTMuMi00OCAwek0xNzggMjI0LjRjLTExLjIgMC0yMS42LTQuNC0yOS42LTEyLjRTMTM2IDE5My42IDEzNiAxODIuNGMwLTExLjIgNC40LTIxLjYgMTIuNC0yOS42IDE2LjQtMTYuNCA0Mi44LTE2LjQgNTkuMiAwIDggOCAxMi40IDE4LjQgMTIuNCAyOS42IDAgMTEuMi00LjQgMjEuNi0xMi40IDI5LjZzLTE4LjQgMTIuNC0yOS42IDEyLjR6IG0wLTc2Yy04LjggMC0xNy4yIDMuMi0yNCAxMC02LjQgNi40LTEwIDE0LjgtMTAgMjRzMy42IDE3LjYgMTAgMjRjNi40IDYuNCAxNC44IDEwIDI0IDEwczE3LjYtMy42IDI0LTEwYzYuNC02LjQgMTAtMTQuOCAxMC0yNHMtMy42LTE3LjYtMTAtMjRjLTYuNC02LjgtMTUuMi0xMC0yNC0xMHpNNTkyLjggMTYwbC00OC40LTI5LjYgNy42LTIuOGM4OS42LTM1LjYgMTcyLjQtNDQgMjQwLTI0LjhsNi40IDItMzcuMiAzNy4yLTItMC40Yy00Ny4yLTguOC0xMDQtMi44LTE2NC40IDE4bC0yIDAuNHogbS0zMC40LTI4LjRsMzEuNiAxOS4yYzYwLjQtMjAuNCAxMTcuMi0yNi40IDE2NC44LTE4bDI0LjQtMjQuNGMtNjIuNC0xNS42LTE0MC03LjItMjIwLjggMjMuMnoiLz48L3N2Zz4=" parent="1" vertex="1">
          <mxGeometry x="377" y="1040" width="52" height="52" as="geometry" />
        </mxCell>
        <mxCell id="23kUrq4-E0xQPG93kGuy-17" value="&lt;div style=&quot;text-align: left;&quot;&gt;&lt;span style=&quot;font-size: 20px; color: rgb(74, 145, 155); background-color: initial;&quot;&gt;Gateway&lt;/span&gt;&lt;/div&gt;" style="text;html=1;strokeColor=none;fillColor=none;align=center;verticalAlign=middle;whiteSpace=wrap;rounded=0;" parent="1" vertex="1">
          <mxGeometry x="532.5" y="1053" width="86" height="30" as="geometry" />
        </mxCell>
        <mxCell id="23kUrq4-E0xQPG93kGuy-22" value="" style="shape=image;verticalLabelPosition=bottom;labelBackgroundColor=default;verticalAlign=top;aspect=fixed;imageAspect=0;image=data:image/svg+xml,PHN2ZyB4bWxuczp4bGluaz0iaHR0cDovL3d3dy53My5vcmcvMTk5OS94bGluayIgeG1sbnM9Imh0dHA6Ly93d3cudzMub3JnLzIwMDAvc3ZnIiBoZWlnaHQ9IjEyOCIgd2lkdGg9IjEyOCIgdmVyc2lvbj0iMS4xIiB2aWV3Qm94PSIwIDAgMTAyNCAxMDI0IiBjbGFzcz0iaWNvbiI+PHBhdGggZmlsbD0iIzUzNUU4MCIgZD0iTTcxMS40OTMgMzEyLjEwMWM1MS4zMDUgNTEuMzI2IDk0LjAxNCAxMDYuMTY5IDEyNy4xNzUgMTYxLjIwNmwyNC4xNTctMzYuODAzYy0zMy4wNzQtNTIuNTIxLTc0LjIyNi0xMDQuMzM5LTEyMi44MjMtMTUyLjkxM0M1NjkuMzUzIDExMi45MTYgMzU4LjgyMiAzMy45NTYgMjE3LjE3MSA3NC41MzVsMzIuNzc0IDMyLjc3NGMxMjYuMzItMjMuNzk5IDMwOS40NjcgNTIuNzM0IDQ2MS41NDggMjA0Ljc5MnogbTYyLjE1OS0yMDQuNzkxbDMyLjc1MS0zMi43NzRjLTcxLjI4NS0yMC40MDgtMTYwLjAxMS0xMC41NTctMjUyLjM0NCAyNi4wMzRsNDIuNjA3IDI2LjAxOWM2NC40NTgtMjIuMDA4IDEyNS40NDgtMjguOTgxIDE3Ni45ODYtMTkuMjc5ek0yMTIuMjY2IDIxMi4yNjJjMzEuNTE4LTMxLjUxNSAzMS41MTgtODIuNjA1IDAtMTE0LjA5OS0zMS41MTctMzEuNTE3LTgyLjYwNS0zMS41MTctMTE0LjA5OSAwLTMxLjUxNyAzMS40OTQtMzEuNTE3IDgyLjU4NCAwIDExNC4wOTkgMzEuNDk0IDMxLjUxOCA4Mi41ODEgMzEuNTE4IDExNC4wOTkgMHogbS04NS41NjktODUuNTg5YzE1LjczNS0xNS43MzggNDEuMjgxLTE1LjczOCA1Ny4wMzkgMCAxNS43NTkgMTUuNzU2IDE1Ljc1OSA0MS4zMDEgMCA1Ny4wNjMtMTUuNzU5IDE1Ljc1Ni00MS4zMDQgMTUuNzU2LTU3LjAzOSAwLTE1Ljc1OS0xNS43NjItMTUuNzU5LTQxLjMwNyAwLTU3LjA2M3ogbTQ1My44MjcgNzQwLjIyMmM1NC43ODItMzMuNzU1IDEwOC44NzctNzYuMjk1IDE1OS40NzgtMTI2Ljg5NiAxNzAuNjczLTE3MC42NDkgMjQ5LjYxMi0zODEuMTggMjA5LjA1Ni01MjIuODMxbC0zMi43NzQgMzIuNzc3YzIzLjc5NyAxMjYuMzE3LTUyLjczNCAzMDkuNDY0LTIwNC43OTEgNDYxLjU0NS01My4wMSA1My4wMS0xMDkuNzkzIDk2LjgzLTE2Ni42NDQgMTMwLjQzN2wzNS42NzUgMjQuOTY4eiBtMjMwLjgwNC02NTQuNjMzYzMxLjUxOCAzMS41MTcgODIuNTg3IDMxLjUxNyAxMTQuMTA1IDAgMzEuNTE1LTMxLjUxNSAzMS41MTUtODIuNjA1IDAtMTE0LjA5OS0zMS41MTctMzEuNTE3LTgyLjU4Ny0zMS41MTctMTE0LjEwNSAwLTMxLjUxNSAzMS40OTUtMzEuNTE1IDgyLjU4NSAwIDExNC4wOTl6IG0yOC41MzMtODUuNTg5YzE1Ljc1Ni0xNS43MzggNDEuMzAxLTE1LjczOCA1Ny4wMzkgMCAxNS43NTkgMTUuNzU2IDE1Ljc1OSA0MS4zMDEgMCA1Ny4wNjMtMTUuNzM4IDE1Ljc1Ni00MS4yODMgMTUuNzU2LTU3LjAzOSAwLTE1Ljc1OS0xNS43NjItMTUuNzU5LTQxLjMwNyAwLTU3LjA2M3ogbTU1Ljk3MSA0NjYuNThjMjIuOTI0IDY1LjczOCAzMC4zMjUgMTI3Ljk2MSAyMC40NTEgMTgwLjM5NWwzMi43NzQgMzIuNzU0YzIwLjUxMi03MS42NDkgMTAuNDQ3LTE2MC45MS0yNi41ODktMjUzLjcyOGwtMjYuNjM2IDQwLjU3OXpNMjQ5Ljk0NSA5MTYuMjhsLTMyLjc3NCAzMi43NTRjNzAuNzczIDIwLjI3NyAxNTguNzM0IDEwLjcyNiAyNTAuMzE5LTI1LjIwNWwtMzkuMDQ2LTI3LjMzN2MtNjUuMDM0IDIyLjM4OS0xMjYuNTc0IDI5LjU3Ny0xNzguNDk5IDE5Ljc4OHogbTYyLjE1OS0yMDQuNzkxYy01Mi4wMzMtNTIuMDUtOTUuMjEtMTA3LjcyNS0xMjguNTgzLTE2My41MDhsLTIyLjY0NSAzOS4yNTZjMzMuMDU0IDUyLjQ3NSA3NC4xNjIgMTA0LjIzMSAxMjIuNzE5IDE1Mi43NjFDNDU0LjI0NyA5MTAuNjcxIDY2NC43NzIgOTg5LjYxIDgwNi40MDMgOTQ5LjAzNGwtMzIuNzUxLTMyLjc1NGMtMTI2LjM0MyAyMy43OTctMzA5LjQ3LTUyLjczMS00NjEuNTQ4LTIwNC43OTF6TTEyNS44ODUgNDI0Ljg4MmMtMjEuNDUyLTYzLjcxNi0yOC4xODktMTIzLjk1NS0xOC41NzItMTc0LjkzOGwtMzIuNzc3LTMyLjc3N2MtMjAuMzg0IDcxLjE3OC0xMC41OTUgMTU5LjczNCAyNS44NDggMjUxLjg5NmwyNS41MDEtNDQuMTgxeiBtNjg1LjQ0MyAzODYuNDQyYy0zMS41MTUgMzEuNTE3LTMxLjUxNSA4Mi41ODcgMCAxMTQuMTA1IDMxLjUxOCAzMS41MTUgODIuNTg3IDMxLjUxNSAxMTQuMTA1IDAgMzEuNTE1LTMxLjUxOCAzMS41MTUtODIuNTg3IDAtMTE0LjEwNS0zMS41MTgtMzEuNTE0LTgyLjU4Ny0zMS41MTQtMTE0LjEwNSAweiBtODUuNTcyIDg1LjU3MmMtMTUuNzM4IDE1Ljc1OS00MS4yODMgMTUuNzU5LTU3LjAzOSAwLTE1Ljc1OS0xNS43MzUtMTUuNzU5LTQxLjI4MSAwLTU3LjAzOSAxNS43NTYtMTUuNzU2IDQxLjMwMS0xNS43NTYgNTcuMDM5IDAgMTUuNzU5IDE1Ljc1OSAxNS43NTkgNDEuMzA0IDAgNTcuMDM5eiBtLTY4NC42MzQtODUuNTcyYy0zMS41MTctMzEuNTE1LTgyLjYwNS0zMS41MTUtMTE0LjA5OSAwLTMxLjUxNyAzMS41MTctMzEuNTE3IDgyLjU4NyAwIDExNC4xMDUgMzEuNDk0IDMxLjUxNSA4Mi41ODEgMzEuNTE1IDExNC4wOTkgMCAzMS41MTctMzEuNTE3IDMxLjUxNy04Mi41ODcgMC0xMTQuMTA1eiBtLTI4LjUzIDg1LjU3MmMtMTUuNzU5IDE1Ljc1OS00MS4zMDQgMTUuNzU5LTU3LjAzOSAwLTE1Ljc1OS0xNS43MzUtMTUuNzU5LTQxLjI4MSAwLTU3LjAzOSAxNS43MzUtMTUuNzU2IDQxLjI4MS0xNS43NTYgNTcuMDM5IDAgMTUuNzU5IDE1Ljc1OSAxNS43NTkgNDEuMzA0IDAgNTcuMDM5eiBtLTc2LjQyMy0xMjMuMjQ4Yy0yMy44LTEyNi4zNDMgNTIuNzM0LTMwOS40NyAyMDQuNzkxLTQ2MS41NDggNTAuNzkzLTUwLjc3MyAxMDUuMDQtOTMuMTQyIDE1OS40OTktMTI2LjE0OWwtMzguMTA0LTIzLjI4NWMtNTEuNDk3IDMyLjc1MS0xMDIuMjY3IDczLjI2My0xNDkuOTA0IDEyMC45MDNDMTEyLjkxOSA0NTQuMjQ0IDMzLjk2IDY2NC43NjggNzQuNTM2IDgwNi40MDJsMzIuNzc3LTMyLjc1NHpNNDUzLjY2IDY2Ny4zNDZjOS41ODggMCAxNy40MDgtNy44MiAxNy40MDgtMTcuNDA4VjM3MC42NjFhMTcuMzYzIDE3LjM2MyAwIDAgMC0xMC44NDUtMTYuMTA1IDE3LjE2OSAxNy4xNjkgMCAwIDAtMTguOTkxIDMuOTU2bC05OS4yMzYgMTAxLjY1N2MtNi43NDkgNi44ODktNi42MSAxNy44NzQgMC4yNzkgMjQuNTc2IDYuODg5IDYuNzQ5IDE3Ljg3NCA2LjU2MyAyNC41NzYtMC4yNzlsNjkuNC03MS4wNzZ2MjM2LjU0N2MwIDkuNTg5IDcuODIgMTcuNDA5IDE3LjQwOSAxNy40MDl6IG0xMTYuMjcyLTMxMS4xMTRjLTkuNTg5IDAtMTcuNDA4IDcuODItMTcuNDA4IDE3LjQwOHYyNzkuMjc2YTE3LjM2MyAxNy4zNjMgMCAwIDAgMTAuODQ1IDE2LjEwNSAxNy4xOTMgMTcuMTkzIDAgMCAwIDYuNTYzIDEuMzAzYzQuNjA4IDAgOS4xMjMtMS44MTUgMTIuNDI4LTUuMjZsOTkuMjM2LTEwMS42NTdjNi43NDktNi44ODkgNi42MS0xNy44NzQtMC4yNzktMjQuNTc2LTYuODg5LTYuNzQ5LTE3Ljg3NC02LjU2My0yNC41NzYgMC4yNzlsLTY5LjQgNzEuMDc2VjM3My42NGMtMC4wMDEtOS41ODgtNy44MjEtMTcuNDA4LTE3LjQwOS0xNy40MDh6Ii8+PC9zdmc+;" parent="1" vertex="1">
          <mxGeometry x="224" y="978" width="51" height="51" as="geometry" />
        </mxCell>
        <mxCell id="23kUrq4-E0xQPG93kGuy-23" value="" style="shape=image;verticalLabelPosition=bottom;labelBackgroundColor=default;verticalAlign=top;aspect=fixed;imageAspect=0;image=data:image/svg+xml,PHN2ZyB4bWxuczp4bGluaz0iaHR0cDovL3d3dy53My5vcmcvMTk5OS94bGluayIgeG1sbnM9Imh0dHA6Ly93d3cudzMub3JnLzIwMDAvc3ZnIiBoZWlnaHQ9IjEyOCIgd2lkdGg9IjEyOCIgdmVyc2lvbj0iMS4xIiB2aWV3Qm94PSIwIDAgMTAyNCAxMDI0IiBjbGFzcz0iaWNvbiI+PHBhdGggZmlsbD0iIzUzNUU4MCIgZD0iTTcxMS40OTMgMzEyLjEwMWM1MS4zMDUgNTEuMzI2IDk0LjAxNCAxMDYuMTY5IDEyNy4xNzUgMTYxLjIwNmwyNC4xNTctMzYuODAzYy0zMy4wNzQtNTIuNTIxLTc0LjIyNi0xMDQuMzM5LTEyMi44MjMtMTUyLjkxM0M1NjkuMzUzIDExMi45MTYgMzU4LjgyMiAzMy45NTYgMjE3LjE3MSA3NC41MzVsMzIuNzc0IDMyLjc3NGMxMjYuMzItMjMuNzk5IDMwOS40NjcgNTIuNzM0IDQ2MS41NDggMjA0Ljc5MnogbTYyLjE1OS0yMDQuNzkxbDMyLjc1MS0zMi43NzRjLTcxLjI4NS0yMC40MDgtMTYwLjAxMS0xMC41NTctMjUyLjM0NCAyNi4wMzRsNDIuNjA3IDI2LjAxOWM2NC40NTgtMjIuMDA4IDEyNS40NDgtMjguOTgxIDE3Ni45ODYtMTkuMjc5ek0yMTIuMjY2IDIxMi4yNjJjMzEuNTE4LTMxLjUxNSAzMS41MTgtODIuNjA1IDAtMTE0LjA5OS0zMS41MTctMzEuNTE3LTgyLjYwNS0zMS41MTctMTE0LjA5OSAwLTMxLjUxNyAzMS40OTQtMzEuNTE3IDgyLjU4NCAwIDExNC4wOTkgMzEuNDk0IDMxLjUxOCA4Mi41ODEgMzEuNTE4IDExNC4wOTkgMHogbS04NS41NjktODUuNTg5YzE1LjczNS0xNS43MzggNDEuMjgxLTE1LjczOCA1Ny4wMzkgMCAxNS43NTkgMTUuNzU2IDE1Ljc1OSA0MS4zMDEgMCA1Ny4wNjMtMTUuNzU5IDE1Ljc1Ni00MS4zMDQgMTUuNzU2LTU3LjAzOSAwLTE1Ljc1OS0xNS43NjItMTUuNzU5LTQxLjMwNyAwLTU3LjA2M3ogbTQ1My44MjcgNzQwLjIyMmM1NC43ODItMzMuNzU1IDEwOC44NzctNzYuMjk1IDE1OS40NzgtMTI2Ljg5NiAxNzAuNjczLTE3MC42NDkgMjQ5LjYxMi0zODEuMTggMjA5LjA1Ni01MjIuODMxbC0zMi43NzQgMzIuNzc3YzIzLjc5NyAxMjYuMzE3LTUyLjczNCAzMDkuNDY0LTIwNC43OTEgNDYxLjU0NS01My4wMSA1My4wMS0xMDkuNzkzIDk2LjgzLTE2Ni42NDQgMTMwLjQzN2wzNS42NzUgMjQuOTY4eiBtMjMwLjgwNC02NTQuNjMzYzMxLjUxOCAzMS41MTcgODIuNTg3IDMxLjUxNyAxMTQuMTA1IDAgMzEuNTE1LTMxLjUxNSAzMS41MTUtODIuNjA1IDAtMTE0LjA5OS0zMS41MTctMzEuNTE3LTgyLjU4Ny0zMS41MTctMTE0LjEwNSAwLTMxLjUxNSAzMS40OTUtMzEuNTE1IDgyLjU4NSAwIDExNC4wOTl6IG0yOC41MzMtODUuNTg5YzE1Ljc1Ni0xNS43MzggNDEuMzAxLTE1LjczOCA1Ny4wMzkgMCAxNS43NTkgMTUuNzU2IDE1Ljc1OSA0MS4zMDEgMCA1Ny4wNjMtMTUuNzM4IDE1Ljc1Ni00MS4yODMgMTUuNzU2LTU3LjAzOSAwLTE1Ljc1OS0xNS43NjItMTUuNzU5LTQxLjMwNyAwLTU3LjA2M3ogbTU1Ljk3MSA0NjYuNThjMjIuOTI0IDY1LjczOCAzMC4zMjUgMTI3Ljk2MSAyMC40NTEgMTgwLjM5NWwzMi43NzQgMzIuNzU0YzIwLjUxMi03MS42NDkgMTAuNDQ3LTE2MC45MS0yNi41ODktMjUzLjcyOGwtMjYuNjM2IDQwLjU3OXpNMjQ5Ljk0NSA5MTYuMjhsLTMyLjc3NCAzMi43NTRjNzAuNzczIDIwLjI3NyAxNTguNzM0IDEwLjcyNiAyNTAuMzE5LTI1LjIwNWwtMzkuMDQ2LTI3LjMzN2MtNjUuMDM0IDIyLjM4OS0xMjYuNTc0IDI5LjU3Ny0xNzguNDk5IDE5Ljc4OHogbTYyLjE1OS0yMDQuNzkxYy01Mi4wMzMtNTIuMDUtOTUuMjEtMTA3LjcyNS0xMjguNTgzLTE2My41MDhsLTIyLjY0NSAzOS4yNTZjMzMuMDU0IDUyLjQ3NSA3NC4xNjIgMTA0LjIzMSAxMjIuNzE5IDE1Mi43NjFDNDU0LjI0NyA5MTAuNjcxIDY2NC43NzIgOTg5LjYxIDgwNi40MDMgOTQ5LjAzNGwtMzIuNzUxLTMyLjc1NGMtMTI2LjM0MyAyMy43OTctMzA5LjQ3LTUyLjczMS00NjEuNTQ4LTIwNC43OTF6TTEyNS44ODUgNDI0Ljg4MmMtMjEuNDUyLTYzLjcxNi0yOC4xODktMTIzLjk1NS0xOC41NzItMTc0LjkzOGwtMzIuNzc3LTMyLjc3N2MtMjAuMzg0IDcxLjE3OC0xMC41OTUgMTU5LjczNCAyNS44NDggMjUxLjg5NmwyNS41MDEtNDQuMTgxeiBtNjg1LjQ0MyAzODYuNDQyYy0zMS41MTUgMzEuNTE3LTMxLjUxNSA4Mi41ODcgMCAxMTQuMTA1IDMxLjUxOCAzMS41MTUgODIuNTg3IDMxLjUxNSAxMTQuMTA1IDAgMzEuNTE1LTMxLjUxOCAzMS41MTUtODIuNTg3IDAtMTE0LjEwNS0zMS41MTgtMzEuNTE0LTgyLjU4Ny0zMS41MTQtMTE0LjEwNSAweiBtODUuNTcyIDg1LjU3MmMtMTUuNzM4IDE1Ljc1OS00MS4yODMgMTUuNzU5LTU3LjAzOSAwLTE1Ljc1OS0xNS43MzUtMTUuNzU5LTQxLjI4MSAwLTU3LjAzOSAxNS43NTYtMTUuNzU2IDQxLjMwMS0xNS43NTYgNTcuMDM5IDAgMTUuNzU5IDE1Ljc1OSAxNS43NTkgNDEuMzA0IDAgNTcuMDM5eiBtLTY4NC42MzQtODUuNTcyYy0zMS41MTctMzEuNTE1LTgyLjYwNS0zMS41MTUtMTE0LjA5OSAwLTMxLjUxNyAzMS41MTctMzEuNTE3IDgyLjU4NyAwIDExNC4xMDUgMzEuNDk0IDMxLjUxNSA4Mi41ODEgMzEuNTE1IDExNC4wOTkgMCAzMS41MTctMzEuNTE3IDMxLjUxNy04Mi41ODcgMC0xMTQuMTA1eiBtLTI4LjUzIDg1LjU3MmMtMTUuNzU5IDE1Ljc1OS00MS4zMDQgMTUuNzU5LTU3LjAzOSAwLTE1Ljc1OS0xNS43MzUtMTUuNzU5LTQxLjI4MSAwLTU3LjAzOSAxNS43MzUtMTUuNzU2IDQxLjI4MS0xNS43NTYgNTcuMDM5IDAgMTUuNzU5IDE1Ljc1OSAxNS43NTkgNDEuMzA0IDAgNTcuMDM5eiBtLTc2LjQyMy0xMjMuMjQ4Yy0yMy44LTEyNi4zNDMgNTIuNzM0LTMwOS40NyAyMDQuNzkxLTQ2MS41NDggNTAuNzkzLTUwLjc3MyAxMDUuMDQtOTMuMTQyIDE1OS40OTktMTI2LjE0OWwtMzguMTA0LTIzLjI4NWMtNTEuNDk3IDMyLjc1MS0xMDIuMjY3IDczLjI2My0xNDkuOTA0IDEyMC45MDNDMTEyLjkxOSA0NTQuMjQ0IDMzLjk2IDY2NC43NjggNzQuNTM2IDgwNi40MDJsMzIuNzc3LTMyLjc1NHpNNDUzLjY2IDY2Ny4zNDZjOS41ODggMCAxNy40MDgtNy44MiAxNy40MDgtMTcuNDA4VjM3MC42NjFhMTcuMzYzIDE3LjM2MyAwIDAgMC0xMC44NDUtMTYuMTA1IDE3LjE2OSAxNy4xNjkgMCAwIDAtMTguOTkxIDMuOTU2bC05OS4yMzYgMTAxLjY1N2MtNi43NDkgNi44ODktNi42MSAxNy44NzQgMC4yNzkgMjQuNTc2IDYuODg5IDYuNzQ5IDE3Ljg3NCA2LjU2MyAyNC41NzYtMC4yNzlsNjkuNC03MS4wNzZ2MjM2LjU0N2MwIDkuNTg5IDcuODIgMTcuNDA5IDE3LjQwOSAxNy40MDl6IG0xMTYuMjcyLTMxMS4xMTRjLTkuNTg5IDAtMTcuNDA4IDcuODItMTcuNDA4IDE3LjQwOHYyNzkuMjc2YTE3LjM2MyAxNy4zNjMgMCAwIDAgMTAuODQ1IDE2LjEwNSAxNy4xOTMgMTcuMTkzIDAgMCAwIDYuNTYzIDEuMzAzYzQuNjA4IDAgOS4xMjMtMS44MTUgMTIuNDI4LTUuMjZsOTkuMjM2LTEwMS42NTdjNi43NDktNi44ODkgNi42MS0xNy44NzQtMC4yNzktMjQuNTc2LTYuODg5LTYuNzQ5LTE3Ljg3NC02LjU2My0yNC41NzYgMC4yNzlsLTY5LjQgNzEuMDc2VjM3My42NGMtMC4wMDEtOS41ODgtNy44MjEtMTcuNDA4LTE3LjQwOS0xNy40MDh6Ii8+PC9zdmc+;" parent="1" vertex="1">
          <mxGeometry x="301" y="978" width="51" height="51" as="geometry" />
        </mxCell>
        <mxCell id="23kUrq4-E0xQPG93kGuy-24" value="" style="shape=image;verticalLabelPosition=bottom;labelBackgroundColor=default;verticalAlign=top;aspect=fixed;imageAspect=0;image=data:image/svg+xml,PHN2ZyB4bWxuczp4bGluaz0iaHR0cDovL3d3dy53My5vcmcvMTk5OS94bGluayIgeG1sbnM9Imh0dHA6Ly93d3cudzMub3JnLzIwMDAvc3ZnIiBoZWlnaHQ9IjEyOCIgd2lkdGg9IjEyOCIgdmVyc2lvbj0iMS4xIiB2aWV3Qm94PSIwIDAgMTAyNCAxMDI0IiBjbGFzcz0iaWNvbiI+PHBhdGggZmlsbD0iIzUzNUU4MCIgZD0iTTcxMS40OTMgMzEyLjEwMWM1MS4zMDUgNTEuMzI2IDk0LjAxNCAxMDYuMTY5IDEyNy4xNzUgMTYxLjIwNmwyNC4xNTctMzYuODAzYy0zMy4wNzQtNTIuNTIxLTc0LjIyNi0xMDQuMzM5LTEyMi44MjMtMTUyLjkxM0M1NjkuMzUzIDExMi45MTYgMzU4LjgyMiAzMy45NTYgMjE3LjE3MSA3NC41MzVsMzIuNzc0IDMyLjc3NGMxMjYuMzItMjMuNzk5IDMwOS40NjcgNTIuNzM0IDQ2MS41NDggMjA0Ljc5MnogbTYyLjE1OS0yMDQuNzkxbDMyLjc1MS0zMi43NzRjLTcxLjI4NS0yMC40MDgtMTYwLjAxMS0xMC41NTctMjUyLjM0NCAyNi4wMzRsNDIuNjA3IDI2LjAxOWM2NC40NTgtMjIuMDA4IDEyNS40NDgtMjguOTgxIDE3Ni45ODYtMTkuMjc5ek0yMTIuMjY2IDIxMi4yNjJjMzEuNTE4LTMxLjUxNSAzMS41MTgtODIuNjA1IDAtMTE0LjA5OS0zMS41MTctMzEuNTE3LTgyLjYwNS0zMS41MTctMTE0LjA5OSAwLTMxLjUxNyAzMS40OTQtMzEuNTE3IDgyLjU4NCAwIDExNC4wOTkgMzEuNDk0IDMxLjUxOCA4Mi41ODEgMzEuNTE4IDExNC4wOTkgMHogbS04NS41NjktODUuNTg5YzE1LjczNS0xNS43MzggNDEuMjgxLTE1LjczOCA1Ny4wMzkgMCAxNS43NTkgMTUuNzU2IDE1Ljc1OSA0MS4zMDEgMCA1Ny4wNjMtMTUuNzU5IDE1Ljc1Ni00MS4zMDQgMTUuNzU2LTU3LjAzOSAwLTE1Ljc1OS0xNS43NjItMTUuNzU5LTQxLjMwNyAwLTU3LjA2M3ogbTQ1My44MjcgNzQwLjIyMmM1NC43ODItMzMuNzU1IDEwOC44NzctNzYuMjk1IDE1OS40NzgtMTI2Ljg5NiAxNzAuNjczLTE3MC42NDkgMjQ5LjYxMi0zODEuMTggMjA5LjA1Ni01MjIuODMxbC0zMi43NzQgMzIuNzc3YzIzLjc5NyAxMjYuMzE3LTUyLjczNCAzMDkuNDY0LTIwNC43OTEgNDYxLjU0NS01My4wMSA1My4wMS0xMDkuNzkzIDk2LjgzLTE2Ni42NDQgMTMwLjQzN2wzNS42NzUgMjQuOTY4eiBtMjMwLjgwNC02NTQuNjMzYzMxLjUxOCAzMS41MTcgODIuNTg3IDMxLjUxNyAxMTQuMTA1IDAgMzEuNTE1LTMxLjUxNSAzMS41MTUtODIuNjA1IDAtMTE0LjA5OS0zMS41MTctMzEuNTE3LTgyLjU4Ny0zMS41MTctMTE0LjEwNSAwLTMxLjUxNSAzMS40OTUtMzEuNTE1IDgyLjU4NSAwIDExNC4wOTl6IG0yOC41MzMtODUuNTg5YzE1Ljc1Ni0xNS43MzggNDEuMzAxLTE1LjczOCA1Ny4wMzkgMCAxNS43NTkgMTUuNzU2IDE1Ljc1OSA0MS4zMDEgMCA1Ny4wNjMtMTUuNzM4IDE1Ljc1Ni00MS4yODMgMTUuNzU2LTU3LjAzOSAwLTE1Ljc1OS0xNS43NjItMTUuNzU5LTQxLjMwNyAwLTU3LjA2M3ogbTU1Ljk3MSA0NjYuNThjMjIuOTI0IDY1LjczOCAzMC4zMjUgMTI3Ljk2MSAyMC40NTEgMTgwLjM5NWwzMi43NzQgMzIuNzU0YzIwLjUxMi03MS42NDkgMTAuNDQ3LTE2MC45MS0yNi41ODktMjUzLjcyOGwtMjYuNjM2IDQwLjU3OXpNMjQ5Ljk0NSA5MTYuMjhsLTMyLjc3NCAzMi43NTRjNzAuNzczIDIwLjI3NyAxNTguNzM0IDEwLjcyNiAyNTAuMzE5LTI1LjIwNWwtMzkuMDQ2LTI3LjMzN2MtNjUuMDM0IDIyLjM4OS0xMjYuNTc0IDI5LjU3Ny0xNzguNDk5IDE5Ljc4OHogbTYyLjE1OS0yMDQuNzkxYy01Mi4wMzMtNTIuMDUtOTUuMjEtMTA3LjcyNS0xMjguNTgzLTE2My41MDhsLTIyLjY0NSAzOS4yNTZjMzMuMDU0IDUyLjQ3NSA3NC4xNjIgMTA0LjIzMSAxMjIuNzE5IDE1Mi43NjFDNDU0LjI0NyA5MTAuNjcxIDY2NC43NzIgOTg5LjYxIDgwNi40MDMgOTQ5LjAzNGwtMzIuNzUxLTMyLjc1NGMtMTI2LjM0MyAyMy43OTctMzA5LjQ3LTUyLjczMS00NjEuNTQ4LTIwNC43OTF6TTEyNS44ODUgNDI0Ljg4MmMtMjEuNDUyLTYzLjcxNi0yOC4xODktMTIzLjk1NS0xOC41NzItMTc0LjkzOGwtMzIuNzc3LTMyLjc3N2MtMjAuMzg0IDcxLjE3OC0xMC41OTUgMTU5LjczNCAyNS44NDggMjUxLjg5NmwyNS41MDEtNDQuMTgxeiBtNjg1LjQ0MyAzODYuNDQyYy0zMS41MTUgMzEuNTE3LTMxLjUxNSA4Mi41ODcgMCAxMTQuMTA1IDMxLjUxOCAzMS41MTUgODIuNTg3IDMxLjUxNSAxMTQuMTA1IDAgMzEuNTE1LTMxLjUxOCAzMS41MTUtODIuNTg3IDAtMTE0LjEwNS0zMS41MTgtMzEuNTE0LTgyLjU4Ny0zMS41MTQtMTE0LjEwNSAweiBtODUuNTcyIDg1LjU3MmMtMTUuNzM4IDE1Ljc1OS00MS4yODMgMTUuNzU5LTU3LjAzOSAwLTE1Ljc1OS0xNS43MzUtMTUuNzU5LTQxLjI4MSAwLTU3LjAzOSAxNS43NTYtMTUuNzU2IDQxLjMwMS0xNS43NTYgNTcuMDM5IDAgMTUuNzU5IDE1Ljc1OSAxNS43NTkgNDEuMzA0IDAgNTcuMDM5eiBtLTY4NC42MzQtODUuNTcyYy0zMS41MTctMzEuNTE1LTgyLjYwNS0zMS41MTUtMTE0LjA5OSAwLTMxLjUxNyAzMS41MTctMzEuNTE3IDgyLjU4NyAwIDExNC4xMDUgMzEuNDk0IDMxLjUxNSA4Mi41ODEgMzEuNTE1IDExNC4wOTkgMCAzMS41MTctMzEuNTE3IDMxLjUxNy04Mi41ODcgMC0xMTQuMTA1eiBtLTI4LjUzIDg1LjU3MmMtMTUuNzU5IDE1Ljc1OS00MS4zMDQgMTUuNzU5LTU3LjAzOSAwLTE1Ljc1OS0xNS43MzUtMTUuNzU5LTQxLjI4MSAwLTU3LjAzOSAxNS43MzUtMTUuNzU2IDQxLjI4MS0xNS43NTYgNTcuMDM5IDAgMTUuNzU5IDE1Ljc1OSAxNS43NTkgNDEuMzA0IDAgNTcuMDM5eiBtLTc2LjQyMy0xMjMuMjQ4Yy0yMy44LTEyNi4zNDMgNTIuNzM0LTMwOS40NyAyMDQuNzkxLTQ2MS41NDggNTAuNzkzLTUwLjc3MyAxMDUuMDQtOTMuMTQyIDE1OS40OTktMTI2LjE0OWwtMzguMTA0LTIzLjI4NWMtNTEuNDk3IDMyLjc1MS0xMDIuMjY3IDczLjI2My0xNDkuOTA0IDEyMC45MDNDMTEyLjkxOSA0NTQuMjQ0IDMzLjk2IDY2NC43NjggNzQuNTM2IDgwNi40MDJsMzIuNzc3LTMyLjc1NHpNNDUzLjY2IDY2Ny4zNDZjOS41ODggMCAxNy40MDgtNy44MiAxNy40MDgtMTcuNDA4VjM3MC42NjFhMTcuMzYzIDE3LjM2MyAwIDAgMC0xMC44NDUtMTYuMTA1IDE3LjE2OSAxNy4xNjkgMCAwIDAtMTguOTkxIDMuOTU2bC05OS4yMzYgMTAxLjY1N2MtNi43NDkgNi44ODktNi42MSAxNy44NzQgMC4yNzkgMjQuNTc2IDYuODg5IDYuNzQ5IDE3Ljg3NCA2LjU2MyAyNC41NzYtMC4yNzlsNjkuNC03MS4wNzZ2MjM2LjU0N2MwIDkuNTg5IDcuODIgMTcuNDA5IDE3LjQwOSAxNy40MDl6IG0xMTYuMjcyLTMxMS4xMTRjLTkuNTg5IDAtMTcuNDA4IDcuODItMTcuNDA4IDE3LjQwOHYyNzkuMjc2YTE3LjM2MyAxNy4zNjMgMCAwIDAgMTAuODQ1IDE2LjEwNSAxNy4xOTMgMTcuMTkzIDAgMCAwIDYuNTYzIDEuMzAzYzQuNjA4IDAgOS4xMjMtMS44MTUgMTIuNDI4LTUuMjZsOTkuMjM2LTEwMS42NTdjNi43NDktNi44ODkgNi42MS0xNy44NzQtMC4yNzktMjQuNTc2LTYuODg5LTYuNzQ5LTE3Ljg3NC02LjU2My0yNC41NzYgMC4yNzlsLTY5LjQgNzEuMDc2VjM3My42NGMtMC4wMDEtOS41ODgtNy44MjEtMTcuNDA4LTE3LjQwOS0xNy40MDh6Ii8+PC9zdmc+;" parent="1" vertex="1">
          <mxGeometry x="378" y="978" width="51" height="51" as="geometry" />
        </mxCell>
        <mxCell id="23kUrq4-E0xQPG93kGuy-25" value="" style="rounded=1;whiteSpace=wrap;html=1;fillColor=none;strokeColor=#4A919B;" parent="1" vertex="1">
          <mxGeometry x="198.5" y="974" width="321" height="60" as="geometry" />
        </mxCell>
        <mxCell id="23kUrq4-E0xQPG93kGuy-27" value="&lt;span style=&quot;font-size: 20px;&quot;&gt;&lt;b style=&quot;&quot;&gt;&lt;font color=&quot;#535f80&quot;&gt;·····&lt;/font&gt;&lt;/b&gt;&lt;br&gt;&lt;/span&gt;" style="text;html=1;strokeColor=none;fillColor=none;align=center;verticalAlign=middle;whiteSpace=wrap;rounded=0;fontColor=#4A919B;" parent="1" vertex="1">
          <mxGeometry x="434.5" y="989" width="94" height="30" as="geometry" />
        </mxCell>
        <mxCell id="23kUrq4-E0xQPG93kGuy-29" value="&lt;span style=&quot;font-size: 20px;&quot;&gt;&lt;b style=&quot;&quot;&gt;&lt;font&gt;·····&lt;/font&gt;&lt;/b&gt;&lt;br&gt;&lt;/span&gt;" style="text;html=1;strokeColor=none;fillColor=none;align=center;verticalAlign=middle;whiteSpace=wrap;rounded=0;fontColor=#4A919B;" parent="1" vertex="1">
          <mxGeometry x="434.5" y="1053" width="94" height="30" as="geometry" />
        </mxCell>
        <mxCell id="23kUrq4-E0xQPG93kGuy-31" value="" style="shape=image;verticalLabelPosition=bottom;verticalAlign=top;imageAspect=0;image=data:image/svg+xml,PHN2ZyB4bWxuczp4bGluaz0iaHR0cDovL3d3dy53My5vcmcvMTk5OS94bGluayIgeG1sbnM9Imh0dHA6Ly93d3cudzMub3JnLzIwMDAvc3ZnIiBoZWlnaHQ9IjIwMCIgd2lkdGg9IjIwMCIgdmVyc2lvbj0iMS4xIiB2aWV3Qm94PSIwIDAgMTAyNCAxMDI0IiBjbGFzcz0iaWNvbiI+PGRlZnM+PHN0eWxlIHR5cGU9InRleHQvY3NzIj5AZm9udC1mYWNlIHsgZm9udC1mYW1pbHk6IGZlZWRiYWNrLWljb25mb250OyBzcmM6IHVybCgiLy9hdC5hbGljZG4uY29tL3QvZm9udF8xMDMxMTU4X3U2OXc4eWh4ZHUud29mZjI/dD0xNjMwMDMzNzU5OTQ0IikgZm9ybWF0KCJ3b2ZmMiIpLCB1cmwoIi8vYXQuYWxpY2RuLmNvbS90L2ZvbnRfMTAzMTE1OF91Njl3OHloeGR1LndvZmY/dD0xNjMwMDMzNzU5OTQ0IikgZm9ybWF0KCJ3b2ZmIiksIHVybCgiLy9hdC5hbGljZG4uY29tL3QvZm9udF8xMDMxMTU4X3U2OXc4eWh4ZHUudHRmP3Q9MTYzMDAzMzc1OTk0NCIpIGZvcm1hdCgidHJ1ZXR5cGUiKTsgfSYjeGE7PC9zdHlsZT48L2RlZnM+PHBhdGggZmlsbD0iIzRBOTE5QiIgZD0iTTAgNzI4djEzNmMwIDM1LjMgMjguNyA2NCA2NCA2NGg4OTZjMzUuMyAwIDY0LTI4LjcgNjQtNjRWNzI4YzAtNC40LTMuNi04LTgtOEg4Yy00LjQgMC04IDMuNi04IDh6IG03NzQgOTZjMCA0LjQtMy42IDgtOCA4SDQyNGMtNC40IDAtOC0zLjYtOC04di00OGMwLTQuNCAzLjYtOCA4LThoMzQyYzQuNCAwIDggMy42IDggOHY0OHogbTEyMiAwYzAgNC40LTMuNiA4LTggOGgtNDhjLTQuNCAwLTgtMy42LTgtOHYtNDhjMC00LjQgMy42LTggOC04aDQ4YzQuNCAwIDggMy42IDggOHY0OHpNMCA1MzZ2MTQ0YzAgNC40IDMuNiA4IDggOGgxMDA4YzQuNCAwIDgtMy42IDgtOFY1MzZjMC00LjQtMy42LTgtOC04SDhjLTQuNCAwLTggMy42LTggOHogbTc3NCA5NmMwIDQuNC0zLjYgOC04IDhINDI0Yy00LjQgMC04LTMuNi04LTh2LTQ4YzAtNC40IDMuNi04IDgtOGgzNDJjNC40IDAgOCAzLjYgOCA4djQ4eiBtMTIyIDBjMCA0LjQtMy42IDgtOCA4aC00OGMtNC40IDAtOC0zLjYtOC04di00OGMwLTQuNCAzLjYtOCA4LThoNDhjNC40IDAgOCAzLjYgOCA4djQ4ek0wIDM0NHYxNDRjMCA0LjQgMy42IDggOCA4aDEwMDhjNC40IDAgOC0zLjYgOC04VjM0NGMwLTQuNC0zLjYtOC04LThIOGMtNC40IDAtOCAzLjYtOCA4eiBtNzc0IDk2YzAgNC40LTMuNiA4LTggOEg0MjRjLTQuNCAwLTgtMy42LTgtOHYtNDhjMC00LjQgMy42LTggOC04aDM0MmM0LjQgMCA4IDMuNiA4IDh2NDh6IG0xMjIgMGMwIDQuNC0zLjYgOC04IDhoLTQ4Yy00LjQgMC04LTMuNi04LTh2LTQ4YzAtNC40IDMuNi04IDgtOGg0OGM0LjQgMCA4IDMuNiA4IDh2NDh6TTk2MCA5Nkg2NGMtMzUuMyAwLTY0IDI4LjctNjQgNjR2MTM2YzAgNC40IDMuNiA4IDggOGgxMDA4YzQuNCAwIDgtMy42IDgtOFYxNjBjMC0zNS4zLTI4LjctNjQtNjQtNjR6TTc3NCAyNDhjMCA0LjQtMy42IDgtOCA4SDQyNGMtNC40IDAtOC0zLjYtOC04di00OGMwLTQuNCAzLjYtOCA4LThoMzQyYzQuNCAwIDggMy42IDggOHY0OHogbTEyMiAwYzAgNC40LTMuNiA4LTggOGgtNDhjLTQuNCAwLTgtMy42LTgtOHYtNDhjMC00LjQgMy42LTggOC04aDQ4YzQuNCAwIDggMy42IDggOHY0OHoiLz48L3N2Zz4=" parent="1" vertex="1">
          <mxGeometry x="221" y="1218.5" width="56" height="56" as="geometry" />
        </mxCell>
        <mxCell id="23kUrq4-E0xQPG93kGuy-32" value="" style="shape=image;verticalLabelPosition=bottom;verticalAlign=top;imageAspect=0;image=data:image/svg+xml,PHN2ZyB4bWxuczp4bGluaz0iaHR0cDovL3d3dy53My5vcmcvMTk5OS94bGluayIgeG1sbnM9Imh0dHA6Ly93d3cudzMub3JnLzIwMDAvc3ZnIiBoZWlnaHQ9IjIwMCIgd2lkdGg9IjIwMCIgdmVyc2lvbj0iMS4xIiB2aWV3Qm94PSIwIDAgMTAyNCAxMDI0IiBjbGFzcz0iaWNvbiI+PGRlZnM+PHN0eWxlIHR5cGU9InRleHQvY3NzIj5AZm9udC1mYWNlIHsgZm9udC1mYW1pbHk6IGZlZWRiYWNrLWljb25mb250OyBzcmM6IHVybCgiLy9hdC5hbGljZG4uY29tL3QvZm9udF8xMDMxMTU4X3U2OXc4eWh4ZHUud29mZjI/dD0xNjMwMDMzNzU5OTQ0IikgZm9ybWF0KCJ3b2ZmMiIpLCB1cmwoIi8vYXQuYWxpY2RuLmNvbS90L2ZvbnRfMTAzMTE1OF91Njl3OHloeGR1LndvZmY/dD0xNjMwMDMzNzU5OTQ0IikgZm9ybWF0KCJ3b2ZmIiksIHVybCgiLy9hdC5hbGljZG4uY29tL3QvZm9udF8xMDMxMTU4X3U2OXc4eWh4ZHUudHRmP3Q9MTYzMDAzMzc1OTk0NCIpIGZvcm1hdCgidHJ1ZXR5cGUiKTsgfSYjeGE7PC9zdHlsZT48L2RlZnM+PHBhdGggZmlsbD0iIzRBOTE5QiIgZD0iTTAgNzI4djEzNmMwIDM1LjMgMjguNyA2NCA2NCA2NGg4OTZjMzUuMyAwIDY0LTI4LjcgNjQtNjRWNzI4YzAtNC40LTMuNi04LTgtOEg4Yy00LjQgMC04IDMuNi04IDh6IG03NzQgOTZjMCA0LjQtMy42IDgtOCA4SDQyNGMtNC40IDAtOC0zLjYtOC04di00OGMwLTQuNCAzLjYtOCA4LThoMzQyYzQuNCAwIDggMy42IDggOHY0OHogbTEyMiAwYzAgNC40LTMuNiA4LTggOGgtNDhjLTQuNCAwLTgtMy42LTgtOHYtNDhjMC00LjQgMy42LTggOC04aDQ4YzQuNCAwIDggMy42IDggOHY0OHpNMCA1MzZ2MTQ0YzAgNC40IDMuNiA4IDggOGgxMDA4YzQuNCAwIDgtMy42IDgtOFY1MzZjMC00LjQtMy42LTgtOC04SDhjLTQuNCAwLTggMy42LTggOHogbTc3NCA5NmMwIDQuNC0zLjYgOC04IDhINDI0Yy00LjQgMC04LTMuNi04LTh2LTQ4YzAtNC40IDMuNi04IDgtOGgzNDJjNC40IDAgOCAzLjYgOCA4djQ4eiBtMTIyIDBjMCA0LjQtMy42IDgtOCA4aC00OGMtNC40IDAtOC0zLjYtOC04di00OGMwLTQuNCAzLjYtOCA4LThoNDhjNC40IDAgOCAzLjYgOCA4djQ4ek0wIDM0NHYxNDRjMCA0LjQgMy42IDggOCA4aDEwMDhjNC40IDAgOC0zLjYgOC04VjM0NGMwLTQuNC0zLjYtOC04LThIOGMtNC40IDAtOCAzLjYtOCA4eiBtNzc0IDk2YzAgNC40LTMuNiA4LTggOEg0MjRjLTQuNCAwLTgtMy42LTgtOHYtNDhjMC00LjQgMy42LTggOC04aDM0MmM0LjQgMCA4IDMuNiA4IDh2NDh6IG0xMjIgMGMwIDQuNC0zLjYgOC04IDhoLTQ4Yy00LjQgMC04LTMuNi04LTh2LTQ4YzAtNC40IDMuNi04IDgtOGg0OGM0LjQgMCA4IDMuNiA4IDh2NDh6TTk2MCA5Nkg2NGMtMzUuMyAwLTY0IDI4LjctNjQgNjR2MTM2YzAgNC40IDMuNiA4IDggOGgxMDA4YzQuNCAwIDgtMy42IDgtOFYxNjBjMC0zNS4zLTI4LjctNjQtNjQtNjR6TTc3NCAyNDhjMCA0LjQtMy42IDgtOCA4SDQyNGMtNC40IDAtOC0zLjYtOC04di00OGMwLTQuNCAzLjYtOCA4LThoMzQyYzQuNCAwIDggMy42IDggOHY0OHogbTEyMiAwYzAgNC40LTMuNiA4LTggOGgtNDhjLTQuNCAwLTgtMy42LTgtOHYtNDhjMC00LjQgMy42LTggOC04aDQ4YzQuNCAwIDggMy42IDggOHY0OHoiLz48L3N2Zz4=" parent="1" vertex="1">
          <mxGeometry x="298" y="1218.5" width="56" height="56" as="geometry" />
        </mxCell>
        <mxCell id="23kUrq4-E0xQPG93kGuy-33" value="" style="shape=image;verticalLabelPosition=bottom;verticalAlign=top;imageAspect=0;image=data:image/svg+xml,PHN2ZyB4bWxuczp4bGluaz0iaHR0cDovL3d3dy53My5vcmcvMTk5OS94bGluayIgeG1sbnM9Imh0dHA6Ly93d3cudzMub3JnLzIwMDAvc3ZnIiBoZWlnaHQ9IjIwMCIgd2lkdGg9IjIwMCIgdmVyc2lvbj0iMS4xIiB2aWV3Qm94PSIwIDAgMTAyNCAxMDI0IiBjbGFzcz0iaWNvbiI+PGRlZnM+PHN0eWxlIHR5cGU9InRleHQvY3NzIj5AZm9udC1mYWNlIHsgZm9udC1mYW1pbHk6IGZlZWRiYWNrLWljb25mb250OyBzcmM6IHVybCgiLy9hdC5hbGljZG4uY29tL3QvZm9udF8xMDMxMTU4X3U2OXc4eWh4ZHUud29mZjI/dD0xNjMwMDMzNzU5OTQ0IikgZm9ybWF0KCJ3b2ZmMiIpLCB1cmwoIi8vYXQuYWxpY2RuLmNvbS90L2ZvbnRfMTAzMTE1OF91Njl3OHloeGR1LndvZmY/dD0xNjMwMDMzNzU5OTQ0IikgZm9ybWF0KCJ3b2ZmIiksIHVybCgiLy9hdC5hbGljZG4uY29tL3QvZm9udF8xMDMxMTU4X3U2OXc4eWh4ZHUudHRmP3Q9MTYzMDAzMzc1OTk0NCIpIGZvcm1hdCgidHJ1ZXR5cGUiKTsgfSYjeGE7PC9zdHlsZT48L2RlZnM+PHBhdGggZmlsbD0iIzRBOTE5QiIgZD0iTTAgNzI4djEzNmMwIDM1LjMgMjguNyA2NCA2NCA2NGg4OTZjMzUuMyAwIDY0LTI4LjcgNjQtNjRWNzI4YzAtNC40LTMuNi04LTgtOEg4Yy00LjQgMC04IDMuNi04IDh6IG03NzQgOTZjMCA0LjQtMy42IDgtOCA4SDQyNGMtNC40IDAtOC0zLjYtOC04di00OGMwLTQuNCAzLjYtOCA4LThoMzQyYzQuNCAwIDggMy42IDggOHY0OHogbTEyMiAwYzAgNC40LTMuNiA4LTggOGgtNDhjLTQuNCAwLTgtMy42LTgtOHYtNDhjMC00LjQgMy42LTggOC04aDQ4YzQuNCAwIDggMy42IDggOHY0OHpNMCA1MzZ2MTQ0YzAgNC40IDMuNiA4IDggOGgxMDA4YzQuNCAwIDgtMy42IDgtOFY1MzZjMC00LjQtMy42LTgtOC04SDhjLTQuNCAwLTggMy42LTggOHogbTc3NCA5NmMwIDQuNC0zLjYgOC04IDhINDI0Yy00LjQgMC04LTMuNi04LTh2LTQ4YzAtNC40IDMuNi04IDgtOGgzNDJjNC40IDAgOCAzLjYgOCA4djQ4eiBtMTIyIDBjMCA0LjQtMy42IDgtOCA4aC00OGMtNC40IDAtOC0zLjYtOC04di00OGMwLTQuNCAzLjYtOCA4LThoNDhjNC40IDAgOCAzLjYgOCA4djQ4ek0wIDM0NHYxNDRjMCA0LjQgMy42IDggOCA4aDEwMDhjNC40IDAgOC0zLjYgOC04VjM0NGMwLTQuNC0zLjYtOC04LThIOGMtNC40IDAtOCAzLjYtOCA4eiBtNzc0IDk2YzAgNC40LTMuNiA4LTggOEg0MjRjLTQuNCAwLTgtMy42LTgtOHYtNDhjMC00LjQgMy42LTggOC04aDM0MmM0LjQgMCA4IDMuNiA4IDh2NDh6IG0xMjIgMGMwIDQuNC0zLjYgOC04IDhoLTQ4Yy00LjQgMC04LTMuNi04LTh2LTQ4YzAtNC40IDMuNi04IDgtOGg0OGM0LjQgMCA4IDMuNiA4IDh2NDh6TTk2MCA5Nkg2NGMtMzUuMyAwLTY0IDI4LjctNjQgNjR2MTM2YzAgNC40IDMuNiA4IDggOGgxMDA4YzQuNCAwIDgtMy42IDgtOFYxNjBjMC0zNS4zLTI4LjctNjQtNjQtNjR6TTc3NCAyNDhjMCA0LjQtMy42IDgtOCA4SDQyNGMtNC40IDAtOC0zLjYtOC04di00OGMwLTQuNCAzLjYtOCA4LThoMzQyYzQuNCAwIDggMy42IDggOHY0OHogbTEyMiAwYzAgNC40LTMuNiA4LTggOGgtNDhjLTQuNCAwLTgtMy42LTgtOHYtNDhjMC00LjQgMy42LTggOC04aDQ4YzQuNCAwIDggMy42IDggOHY0OHoiLz48L3N2Zz4=" parent="1" vertex="1">
          <mxGeometry x="375" y="1218.5" width="56" height="56" as="geometry" />
        </mxCell>
        <mxCell id="23kUrq4-E0xQPG93kGuy-34" value="" style="rounded=1;whiteSpace=wrap;html=1;fillColor=none;strokeColor=#4A919B;" parent="1" vertex="1">
          <mxGeometry x="198.5" y="1214" width="321" height="60" as="geometry" />
        </mxCell>
        <mxCell id="23kUrq4-E0xQPG93kGuy-35" value="&lt;span style=&quot;font-size: 20px;&quot;&gt;&lt;b style=&quot;&quot;&gt;&lt;font&gt;·····&lt;/font&gt;&lt;/b&gt;&lt;br&gt;&lt;/span&gt;" style="text;html=1;strokeColor=none;fillColor=none;align=center;verticalAlign=middle;whiteSpace=wrap;rounded=0;fontColor=#4A919B;" parent="1" vertex="1">
          <mxGeometry x="433" y="1171.5" width="94" height="30" as="geometry" />
        </mxCell>
        <mxCell id="23kUrq4-E0xQPG93kGuy-36" value="&lt;span style=&quot;font-size: 20px;&quot;&gt;&lt;b style=&quot;&quot;&gt;&lt;font&gt;·····&lt;/font&gt;&lt;/b&gt;&lt;br&gt;&lt;/span&gt;" style="text;html=1;strokeColor=none;fillColor=none;align=center;verticalAlign=middle;whiteSpace=wrap;rounded=0;fontColor=#4A919B;" parent="1" vertex="1">
          <mxGeometry x="434.5" y="1231.5" width="94" height="30" as="geometry" />
        </mxCell>
        <mxCell id="23kUrq4-E0xQPG93kGuy-37" value="&lt;div style=&quot;text-align: left;&quot;&gt;&lt;span style=&quot;color: rgb(83, 95, 128); font-size: 20px; background-color: initial;&quot;&gt;Logingate&lt;/span&gt;&lt;/div&gt;" style="text;html=1;strokeColor=none;fillColor=none;align=center;verticalAlign=middle;whiteSpace=wrap;rounded=0;" parent="1" vertex="1">
          <mxGeometry x="532.5" y="988.5" width="94" height="30" as="geometry" />
        </mxCell>
        <mxCell id="23kUrq4-E0xQPG93kGuy-38" value="" style="rounded=1;whiteSpace=wrap;html=1;fillColor=none;strokeColor=#4A919B;" parent="1" vertex="1">
          <mxGeometry x="198.5" y="914" width="321" height="60" as="geometry" />
        </mxCell>
        <mxCell id="23kUrq4-E0xQPG93kGuy-39" value="" style="shape=image;verticalLabelPosition=bottom;labelBackgroundColor=default;verticalAlign=top;aspect=fixed;imageAspect=0;image=data:image/svg+xml,PHN2ZyB4bWxuczp4bGluaz0iaHR0cDovL3d3dy53My5vcmcvMTk5OS94bGluayIgeG1sbnM9Imh0dHA6Ly93d3cudzMub3JnLzIwMDAvc3ZnIiBoZWlnaHQ9IjIwMCIgd2lkdGg9IjIwMCIgdmVyc2lvbj0iMS4xIiB2aWV3Qm94PSIwIDAgMTAyNCAxMDI0IiBjbGFzcz0iaWNvbiI+PHBhdGggZmlsbD0iIzRBOTE5QiIgZD0iTTgyMS42IDEwMjBIMjM0LjRjLTI4LjggMC01Mi44LTI0LTUyLjgtNTIuOFY1Ni44YzAtMjguOCAyNC01Mi44IDUyLjgtNTIuOGg1ODhjMjguOCAwIDUyLjggMjQgNTIuOCA1Mi44djkxMC40YzAgMjguOC0yNCA1Mi44LTUzLjYgNTIuOHpNMjM0LjQgMzZjLTExLjIgMC0yMC44IDkuNi0yMC44IDIwLjh2OTEwLjRjMCAxMS4yIDkuNiAyMC44IDIwLjggMjAuOGg1ODhjMTEuMiAwIDIwLjgtOS42IDIwLjgtMjAuOFY1Ni44YzAtMTEuMi05LjYtMjAuOC0yMC44LTIwLjhIMjM0LjR6Ii8+PHBhdGggZmlsbD0iIzRBOTE5QiIgZD0iTTY1OC40IDkwMy4yYy03NiAwLTEzOC40LTYxLjYtMTM4LjQtMTM4LjRzNjEuNi0xMzguNCAxMzguNC0xMzguNGM3NiAwIDEzOC40IDYxLjYgMTM4LjQgMTM4LjRzLTYyLjQgMTM4LjQtMTM4LjQgMTM4LjR6IG0wLTI2MGMtNjcuMiAwLTEyMi40IDU0LjQtMTIyLjQgMTIyLjQgMCA2Ny4yIDU0LjQgMTIyLjQgMTIyLjQgMTIyLjQgNjcuMiAwIDEyMi40LTU0LjQgMTIyLjQtMTIyLjQtMC44LTY4LTU1LjItMTIyLjQtMTIyLjQtMTIyLjR6TTc0OS42IDU0MS42SDMwNi40Yy0yNS42IDAtNDYuNC0yMC44LTQ2LjQtNDYuNFYxMzguNGMwLTI1LjYgMjAuOC00Ni40IDQ2LjQtNDYuNGg0NDIuNGMyNS42IDAgNDYuNCAyMC44IDQ2LjQgNDYuNHYzNTYuOGMwLjggMjUuNi0yMCA0Ni40LTQ1LjYgNDYuNHpNMzA2LjQgMTA4Yy0xNi44IDAtMzAuNCAxMy42LTMwLjQgMzAuNHYzNTYuOGMwIDE2LjggMTMuNiAzMC40IDMwLjQgMzAuNGg0NDIuNGMxNi44IDAgMzAuNC0xMy42IDMwLjQtMzAuNFYxMzguNGMwLTE2LjgtMTMuNi0zMC40LTMwLjQtMzAuNEgzMDYuNHpNNDEyIDc1NmMtMzAuNCAwLTU1LjItMjQuOC01NS4yLTU1LjIgMC0zMC40IDI0LjgtNTUuMiA1NS4yLTU1LjIgMzAuNCAwIDU1LjIgMjQuOCA1NS4yIDU1LjIgMCAzMC40LTI0LjggNTUuMi01NS4yIDU1LjJ6IG0wLTk0LjRjLTIxLjYgMC0zOS4yIDE3LjYtMzkuMiAzOS4yczE3LjYgMzkuMiAzOS4yIDM5LjIgMzkuMi0xNy42IDM5LjItMzkuMi0xNy42LTM5LjItMzkuMi0zOS4yek0zMTUuMiA4ODQuOGMtMzAuNCAwLTU1LjItMjQuOC01NS4yLTU1LjIgMC0zMC40IDI0LjgtNTUuMiA1NS4yLTU1LjIgMzAuNCAwIDU1LjIgMjQuOCA1NS4yIDU1LjIgMC44IDMwLjQtMjQuOCA1NS4yLTU1LjIgNTUuMnogbTAtOTUuMmMtMjEuNiAwLTM5LjIgMTcuNi0zOS4yIDM5LjJzMTcuNiAzOS4yIDM5LjIgMzkuMiAzOS4yLTE3LjYgMzkuMi0zOS4yYzAuOC0yMS42LTE3LjYtMzkuMi0zOS4yLTM5LjJ6Ii8+PHBhdGggZmlsbD0iIzRBOTE5QiIgZD0iTTczMS4yIDc3Mi44SDU4NC44Yy00LjggMC04LTMuMi04LThzMy4yLTggOC04aDE0NS42YzQuOCAwIDggMy4yIDggOCAwLjggNC44LTMuMiA4LTcuMiA4eiIvPjxwYXRoIGZpbGw9IiM0QTkxOUIiIGQ9Ik02NTguNCA4NDUuNmMtNC44IDAtOC00LTgtOGwwLjgtMTQ1LjZjMC00LjggMy4yLTggOC04czggNCA4IDhsLTAuOCAxNDUuNmMwIDQuOC00IDgtOCA4eiIvPjwvc3ZnPg==;" parent="1" vertex="1">
          <mxGeometry x="227.5" y="924" width="40" height="40" as="geometry" />
        </mxCell>
        <mxCell id="23kUrq4-E0xQPG93kGuy-40" value="" style="shape=image;verticalLabelPosition=bottom;labelBackgroundColor=default;verticalAlign=top;aspect=fixed;imageAspect=0;image=data:image/svg+xml,PHN2ZyB4bWxuczp4bGluaz0iaHR0cDovL3d3dy53My5vcmcvMTk5OS94bGluayIgeG1sbnM9Imh0dHA6Ly93d3cudzMub3JnLzIwMDAvc3ZnIiBoZWlnaHQ9IjIwMCIgd2lkdGg9IjIwMCIgdmVyc2lvbj0iMS4xIiB2aWV3Qm94PSIwIDAgMTAyNCAxMDI0IiBjbGFzcz0iaWNvbiI+PHBhdGggZmlsbD0iIzRBOTE5QiIgZD0iTTgyMS42IDEwMjBIMjM0LjRjLTI4LjggMC01Mi44LTI0LTUyLjgtNTIuOFY1Ni44YzAtMjguOCAyNC01Mi44IDUyLjgtNTIuOGg1ODhjMjguOCAwIDUyLjggMjQgNTIuOCA1Mi44djkxMC40YzAgMjguOC0yNCA1Mi44LTUzLjYgNTIuOHpNMjM0LjQgMzZjLTExLjIgMC0yMC44IDkuNi0yMC44IDIwLjh2OTEwLjRjMCAxMS4yIDkuNiAyMC44IDIwLjggMjAuOGg1ODhjMTEuMiAwIDIwLjgtOS42IDIwLjgtMjAuOFY1Ni44YzAtMTEuMi05LjYtMjAuOC0yMC44LTIwLjhIMjM0LjR6Ii8+PHBhdGggZmlsbD0iIzRBOTE5QiIgZD0iTTY1OC40IDkwMy4yYy03NiAwLTEzOC40LTYxLjYtMTM4LjQtMTM4LjRzNjEuNi0xMzguNCAxMzguNC0xMzguNGM3NiAwIDEzOC40IDYxLjYgMTM4LjQgMTM4LjRzLTYyLjQgMTM4LjQtMTM4LjQgMTM4LjR6IG0wLTI2MGMtNjcuMiAwLTEyMi40IDU0LjQtMTIyLjQgMTIyLjQgMCA2Ny4yIDU0LjQgMTIyLjQgMTIyLjQgMTIyLjQgNjcuMiAwIDEyMi40LTU0LjQgMTIyLjQtMTIyLjQtMC44LTY4LTU1LjItMTIyLjQtMTIyLjQtMTIyLjR6TTc0OS42IDU0MS42SDMwNi40Yy0yNS42IDAtNDYuNC0yMC44LTQ2LjQtNDYuNFYxMzguNGMwLTI1LjYgMjAuOC00Ni40IDQ2LjQtNDYuNGg0NDIuNGMyNS42IDAgNDYuNCAyMC44IDQ2LjQgNDYuNHYzNTYuOGMwLjggMjUuNi0yMCA0Ni40LTQ1LjYgNDYuNHpNMzA2LjQgMTA4Yy0xNi44IDAtMzAuNCAxMy42LTMwLjQgMzAuNHYzNTYuOGMwIDE2LjggMTMuNiAzMC40IDMwLjQgMzAuNGg0NDIuNGMxNi44IDAgMzAuNC0xMy42IDMwLjQtMzAuNFYxMzguNGMwLTE2LjgtMTMuNi0zMC40LTMwLjQtMzAuNEgzMDYuNHpNNDEyIDc1NmMtMzAuNCAwLTU1LjItMjQuOC01NS4yLTU1LjIgMC0zMC40IDI0LjgtNTUuMiA1NS4yLTU1LjIgMzAuNCAwIDU1LjIgMjQuOCA1NS4yIDU1LjIgMCAzMC40LTI0LjggNTUuMi01NS4yIDU1LjJ6IG0wLTk0LjRjLTIxLjYgMC0zOS4yIDE3LjYtMzkuMiAzOS4yczE3LjYgMzkuMiAzOS4yIDM5LjIgMzkuMi0xNy42IDM5LjItMzkuMi0xNy42LTM5LjItMzkuMi0zOS4yek0zMTUuMiA4ODQuOGMtMzAuNCAwLTU1LjItMjQuOC01NS4yLTU1LjIgMC0zMC40IDI0LjgtNTUuMiA1NS4yLTU1LjIgMzAuNCAwIDU1LjIgMjQuOCA1NS4yIDU1LjIgMC44IDMwLjQtMjQuOCA1NS4yLTU1LjIgNTUuMnogbTAtOTUuMmMtMjEuNiAwLTM5LjIgMTcuNi0zOS4yIDM5LjJzMTcuNiAzOS4yIDM5LjIgMzkuMiAzOS4yLTE3LjYgMzkuMi0zOS4yYzAuOC0yMS42LTE3LjYtMzkuMi0zOS4yLTM5LjJ6Ii8+PHBhdGggZmlsbD0iIzRBOTE5QiIgZD0iTTczMS4yIDc3Mi44SDU4NC44Yy00LjggMC04LTMuMi04LThzMy4yLTggOC04aDE0NS42YzQuOCAwIDggMy4yIDggOCAwLjggNC44LTMuMiA4LTcuMiA4eiIvPjxwYXRoIGZpbGw9IiM0QTkxOUIiIGQ9Ik02NTguNCA4NDUuNmMtNC44IDAtOC00LTgtOGwwLjgtMTQ1LjZjMC00LjggMy4yLTggOC04czggNCA4IDhsLTAuOCAxNDUuNmMwIDQuOC00IDgtOCA4eiIvPjwvc3ZnPg==;" parent="1" vertex="1">
          <mxGeometry x="303.5" y="924" width="40" height="40" as="geometry" />
        </mxCell>
        <mxCell id="23kUrq4-E0xQPG93kGuy-41" value="" style="shape=image;verticalLabelPosition=bottom;labelBackgroundColor=default;verticalAlign=top;aspect=fixed;imageAspect=0;image=data:image/svg+xml,PHN2ZyB4bWxuczp4bGluaz0iaHR0cDovL3d3dy53My5vcmcvMTk5OS94bGluayIgeG1sbnM9Imh0dHA6Ly93d3cudzMub3JnLzIwMDAvc3ZnIiBoZWlnaHQ9IjIwMCIgd2lkdGg9IjIwMCIgdmVyc2lvbj0iMS4xIiB2aWV3Qm94PSIwIDAgMTAyNCAxMDI0IiBjbGFzcz0iaWNvbiI+PHBhdGggZmlsbD0iIzRBOTE5QiIgZD0iTTgyMS42IDEwMjBIMjM0LjRjLTI4LjggMC01Mi44LTI0LTUyLjgtNTIuOFY1Ni44YzAtMjguOCAyNC01Mi44IDUyLjgtNTIuOGg1ODhjMjguOCAwIDUyLjggMjQgNTIuOCA1Mi44djkxMC40YzAgMjguOC0yNCA1Mi44LTUzLjYgNTIuOHpNMjM0LjQgMzZjLTExLjIgMC0yMC44IDkuNi0yMC44IDIwLjh2OTEwLjRjMCAxMS4yIDkuNiAyMC44IDIwLjggMjAuOGg1ODhjMTEuMiAwIDIwLjgtOS42IDIwLjgtMjAuOFY1Ni44YzAtMTEuMi05LjYtMjAuOC0yMC44LTIwLjhIMjM0LjR6Ii8+PHBhdGggZmlsbD0iIzRBOTE5QiIgZD0iTTY1OC40IDkwMy4yYy03NiAwLTEzOC40LTYxLjYtMTM4LjQtMTM4LjRzNjEuNi0xMzguNCAxMzguNC0xMzguNGM3NiAwIDEzOC40IDYxLjYgMTM4LjQgMTM4LjRzLTYyLjQgMTM4LjQtMTM4LjQgMTM4LjR6IG0wLTI2MGMtNjcuMiAwLTEyMi40IDU0LjQtMTIyLjQgMTIyLjQgMCA2Ny4yIDU0LjQgMTIyLjQgMTIyLjQgMTIyLjQgNjcuMiAwIDEyMi40LTU0LjQgMTIyLjQtMTIyLjQtMC44LTY4LTU1LjItMTIyLjQtMTIyLjQtMTIyLjR6TTc0OS42IDU0MS42SDMwNi40Yy0yNS42IDAtNDYuNC0yMC44LTQ2LjQtNDYuNFYxMzguNGMwLTI1LjYgMjAuOC00Ni40IDQ2LjQtNDYuNGg0NDIuNGMyNS42IDAgNDYuNCAyMC44IDQ2LjQgNDYuNHYzNTYuOGMwLjggMjUuNi0yMCA0Ni40LTQ1LjYgNDYuNHpNMzA2LjQgMTA4Yy0xNi44IDAtMzAuNCAxMy42LTMwLjQgMzAuNHYzNTYuOGMwIDE2LjggMTMuNiAzMC40IDMwLjQgMzAuNGg0NDIuNGMxNi44IDAgMzAuNC0xMy42IDMwLjQtMzAuNFYxMzguNGMwLTE2LjgtMTMuNi0zMC40LTMwLjQtMzAuNEgzMDYuNHpNNDEyIDc1NmMtMzAuNCAwLTU1LjItMjQuOC01NS4yLTU1LjIgMC0zMC40IDI0LjgtNTUuMiA1NS4yLTU1LjIgMzAuNCAwIDU1LjIgMjQuOCA1NS4yIDU1LjIgMCAzMC40LTI0LjggNTUuMi01NS4yIDU1LjJ6IG0wLTk0LjRjLTIxLjYgMC0zOS4yIDE3LjYtMzkuMiAzOS4yczE3LjYgMzkuMiAzOS4yIDM5LjIgMzkuMi0xNy42IDM5LjItMzkuMi0xNy42LTM5LjItMzkuMi0zOS4yek0zMTUuMiA4ODQuOGMtMzAuNCAwLTU1LjItMjQuOC01NS4yLTU1LjIgMC0zMC40IDI0LjgtNTUuMiA1NS4yLTU1LjIgMzAuNCAwIDU1LjIgMjQuOCA1NS4yIDU1LjIgMC44IDMwLjQtMjQuOCA1NS4yLTU1LjIgNTUuMnogbTAtOTUuMmMtMjEuNiAwLTM5LjIgMTcuNi0zOS4yIDM5LjJzMTcuNiAzOS4yIDM5LjIgMzkuMiAzOS4yLTE3LjYgMzkuMi0zOS4yYzAuOC0yMS42LTE3LjYtMzkuMi0zOS4yLTM5LjJ6Ii8+PHBhdGggZmlsbD0iIzRBOTE5QiIgZD0iTTczMS4yIDc3Mi44SDU4NC44Yy00LjggMC04LTMuMi04LThzMy4yLTggOC04aDE0NS42YzQuOCAwIDggMy4yIDggOCAwLjggNC44LTMuMiA4LTcuMiA4eiIvPjxwYXRoIGZpbGw9IiM0QTkxOUIiIGQ9Ik02NTguNCA4NDUuNmMtNC44IDAtOC00LTgtOGwwLjgtMTQ1LjZjMC00LjggMy4yLTggOC04czggNCA4IDhsLTAuOCAxNDUuNmMwIDQuOC00IDgtOCA4eiIvPjwvc3ZnPg==;" parent="1" vertex="1">
          <mxGeometry x="383.5" y="924" width="40" height="40" as="geometry" />
        </mxCell>
        <mxCell id="23kUrq4-E0xQPG93kGuy-43" value="&lt;span style=&quot;font-size: 20px;&quot;&gt;&lt;b style=&quot;&quot;&gt;&lt;font&gt;·····&lt;/font&gt;&lt;/b&gt;&lt;br&gt;&lt;/span&gt;" style="text;html=1;strokeColor=none;fillColor=none;align=center;verticalAlign=middle;whiteSpace=wrap;rounded=0;fontColor=#4A919B;" parent="1" vertex="1">
          <mxGeometry x="433" y="925" width="94" height="30" as="geometry" />
        </mxCell>
        <mxCell id="23kUrq4-E0xQPG93kGuy-44" value="&lt;div style=&quot;&quot;&gt;&lt;span style=&quot;font-size: 20px; color: rgb(74, 145, 155); background-color: initial;&quot;&gt;client&lt;/span&gt;&lt;/div&gt;" style="text;html=1;strokeColor=none;fillColor=none;align=left;verticalAlign=middle;whiteSpace=wrap;rounded=0;" parent="1" vertex="1">
          <mxGeometry x="536.5" y="929" width="75" height="30" as="geometry" />
        </mxCell>
        <mxCell id="23kUrq4-E0xQPG93kGuy-47" value="&lt;div style=&quot;text-align: left;&quot;&gt;&lt;span style=&quot;font-size: 20px; background-color: initial;&quot;&gt;&lt;font color=&quot;#f19c99&quot;&gt;中心服务器&lt;/font&gt;&lt;/span&gt;&lt;/div&gt;" style="text;html=1;strokeColor=none;fillColor=none;align=center;verticalAlign=middle;whiteSpace=wrap;rounded=0;" parent="1" vertex="1">
          <mxGeometry x="51" y="1124" width="111.5" height="30" as="geometry" />
        </mxCell>
        <mxCell id="23kUrq4-E0xQPG93kGuy-48" value="" style="shape=image;verticalLabelPosition=bottom;verticalAlign=top;imageAspect=0;aspect=fixed;image=data:image/svg+xml,PHN2ZyB4bWxuczp4bGluaz0iaHR0cDovL3d3dy53My5vcmcvMTk5OS94bGluayIgeG1sbnM9Imh0dHA6Ly93d3cudzMub3JnLzIwMDAvc3ZnIiBoZWlnaHQ9IjIwMCIgd2lkdGg9IjIwMCIgdmVyc2lvbj0iMS4xIiB2aWV3Qm94PSIwIDAgMTAyNCAxMDI0IiBjbGFzcz0iaWNvbiI+PHBhdGggZmlsbD0iI0YxOUM5OSIgZD0iTTAgNzI4djEzNmMwIDM1LjMgMjguNyA2NCA2NCA2NGg4OTZjMzUuMyAwIDY0LTI4LjcgNjQtNjRWNzI4YzAtNC40LTMuNi04LTgtOEg4Yy00LjQgMC04IDMuNi04IDh6IG03NzQgOTZjMCA0LjQtMy42IDgtOCA4SDQyNGMtNC40IDAtOC0zLjYtOC04di00OGMwLTQuNCAzLjYtOCA4LThoMzQyYzQuNCAwIDggMy42IDggOHY0OHogbTEyMiAwYzAgNC40LTMuNiA4LTggOGgtNDhjLTQuNCAwLTgtMy42LTgtOHYtNDhjMC00LjQgMy42LTggOC04aDQ4YzQuNCAwIDggMy42IDggOHY0OHpNMCA1MzZ2MTQ0YzAgNC40IDMuNiA4IDggOGgxMDA4YzQuNCAwIDgtMy42IDgtOFY1MzZjMC00LjQtMy42LTgtOC04SDhjLTQuNCAwLTggMy42LTggOHogbTc3NCA5NmMwIDQuNC0zLjYgOC04IDhINDI0Yy00LjQgMC04LTMuNi04LTh2LTQ4YzAtNC40IDMuNi04IDgtOGgzNDJjNC40IDAgOCAzLjYgOCA4djQ4eiBtMTIyIDBjMCA0LjQtMy42IDgtOCA4aC00OGMtNC40IDAtOC0zLjYtOC04di00OGMwLTQuNCAzLjYtOCA4LThoNDhjNC40IDAgOCAzLjYgOCA4djQ4ek0wIDM0NHYxNDRjMCA0LjQgMy42IDggOCA4aDEwMDhjNC40IDAgOC0zLjYgOC04VjM0NGMwLTQuNC0zLjYtOC04LThIOGMtNC40IDAtOCAzLjYtOCA4eiBtNzc0IDk2YzAgNC40LTMuNiA4LTggOEg0MjRjLTQuNCAwLTgtMy42LTgtOHYtNDhjMC00LjQgMy42LTggOC04aDM0MmM0LjQgMCA4IDMuNiA4IDh2NDh6IG0xMjIgMGMwIDQuNC0zLjYgOC04IDhoLTQ4Yy00LjQgMC04LTMuNi04LTh2LTQ4YzAtNC40IDMuNi04IDgtOGg0OGM0LjQgMCA4IDMuNiA4IDh2NDh6TTk2MCA5Nkg2NGMtMzUuMyAwLTY0IDI4LjctNjQgNjR2MTM2YzAgNC40IDMuNiA4IDggOGgxMDA4YzQuNCAwIDgtMy42IDgtOFYxNjBjMC0zNS4zLTI4LjctNjQtNjQtNjR6TTc3NCAyNDhjMCA0LjQtMy42IDgtOCA4SDQyNGMtNC40IDAtOC0zLjYtOC04di00OGMwLTQuNCAzLjYtOCA4LThoMzQyYzQuNCAwIDggMy42IDggOHY0OHogbTEyMiAwYzAgNC40LTMuNiA4LTggOGgtNDhjLTQuNCAwLTgtMy42LTgtOHYtNDhjMC00LjQgMy42LTggOC04aDQ4YzQuNCAwIDggMy42IDggOHY0OHoiLz48L3N2Zz4=" parent="1" vertex="1">
          <mxGeometry x="82.25" y="1063" width="56" height="56" as="geometry" />
        </mxCell>
        <mxCell id="23kUrq4-E0xQPG93kGuy-50" value="" style="shape=curlyBracket;whiteSpace=wrap;html=1;rounded=1;labelPosition=left;verticalLabelPosition=middle;align=right;verticalAlign=middle;strokeColor=#F19C99;strokeWidth=3;" parent="1" vertex="1">
          <mxGeometry x="162.5" y="974" width="20" height="301" as="geometry" />
        </mxCell>
        <mxCell id="ivUwxklFu8LjhaQiQ8-M-1" value="&lt;font color=&quot;#4a919b&quot; style=&quot;font-size: 20px;&quot;&gt;大厅服务器&lt;/font&gt;" style="text;html=1;strokeColor=none;fillColor=none;align=left;verticalAlign=middle;whiteSpace=wrap;rounded=0;" parent="1" vertex="1">
          <mxGeometry x="532.5" y="1111.5" width="130" height="30" as="geometry" />
        </mxCell>
        <mxCell id="ivUwxklFu8LjhaQiQ8-M-6" value="&lt;span style=&quot;font-size: 20px;&quot;&gt;&lt;b style=&quot;&quot;&gt;&lt;font&gt;·····&lt;/font&gt;&lt;/b&gt;&lt;br&gt;&lt;/span&gt;" style="text;html=1;strokeColor=none;fillColor=none;align=center;verticalAlign=middle;whiteSpace=wrap;rounded=0;fontColor=#4A919B;" parent="1" vertex="1">
          <mxGeometry x="433" y="1111.5" width="94" height="30" as="geometry" />
        </mxCell>
        <mxCell id="2o3iRJ-ItCkyY5d7TXHD-1" value="" style="shape=image;verticalLabelPosition=bottom;labelBackgroundColor=default;verticalAlign=top;aspect=fixed;imageAspect=0;image=data:image/png,iVBORw0KGgoAAAANSUhEUgAAAMAAAADACAYAAABS3GwHAAAACXBIWXMAAAsTAAALEwEAmpwYAAAURklEQVR4Xu2dC3RV1ZnH9z73hvAYBKLFysPpYyy17cx0xNalzGrt1EpeYCIE0XYUyE1SQJIbVKTO1EintrW0kIRX85KHYCssS4t5yfQBuqbOqFi0dmZNbW11LFhRrCKPJPeePf8Tgo2Qm3vOPufee+69/7PWXYSzv28/fnt/5+zH2d8WghcJkAAJkAAJkAAJkAAJkAAJkAAJkAAJkAAJkAAJkAAJkAAJkAAJkAAJkAAJkAAJkAAJkAAJkAAJkAAJkAAJkAAJkAAJkAAJkAAJkAAJkAAJkAAJkAAJkAAJkAAJkAAJkAAJkAAJkAAJkAAJkAAJkAAJkEBqCcjUJp9lqSsli9c3T1Om8RmUfIpSaqI0RJ+p5GtSyd8FA3LfnmXlh7KMSkqLSwNIAv5rN22aGOwNLkZSIavhD5ukEr8Shtxg5EYfaK+qOjGsLANdE6ABuEYYO4Kr6+qCo/Om3iGEqoNUbmzJIUOO4K2wtCMc2jVkKG96QoAG4AnGcyOZta7lg1FTPISQT50b6uCOEt8/kdNbuW/p0nccaFHUJgEagE1QTsQK61u+IKT4AXTynOgNI/t8NCpLH10e+u0wMgzSIBDQ0KFKLAIY5BbkTV0hpdgCkdGxxDTuTzQMcfMlBdc9+0L3HhqBBsBYKnwDxCLj8P61q7eNCY7ouR9q8xyqOhFXQom7OmtC9wkplRNFyg5NgAYwNBdHdwsamz4sTWM3uj1/60hRUxhWsOtksG8RxwWaAAep0QBcMixsaM3HLM/3Ec14l1E5VX9eSbOkq7rqd04VKf8XAhwD6LYG9PcL86Z+BY3f6vaM0opGidcwXrC6MiM09CdKIf/5I/mzDr7Q/QiNQAOgpcI3gAa42fe1jY2MVJvR+OdoqKMHo5qVIb/eVV3xCv6Whevvn66UuRq9+qs14jMxHLirY1nFtzkucE6PBuCQWXHD9y4xhfEjPDs+5lAV9iLeMqW4qbumovNs3bq6OuOpvClfxf17zg6z+f+dkd7cRXvvuPm4TXmKgQANwEEzKGpsLVKm2gFq4xyo9Yuiq/PrSESWxJvLL6pvnq2k3A6VsU7TgIH9CoPxko7l5S861s1SBRqAjYrvfzqfP/kuoeTXrLZsQ+UsEflw8JRcuOfO8mN2dIvXNX3UNK23jJhmR/4smTeVNOZ3VZfv1dDNOhWNyswuRgWN28+T4sRWNP4SjZJrz9tf09Q0bsQp4wGkOUsjXVMJ+RUYwWqOC4anRwMYhk9+fds0Q5rWk/ijw4jFCvozXhY3YtGqO5ZAvPsD44K7IWd9TOf8kuKhSE9uOccFsdHRAGKwKWhsnSWVib64PC+GSOzb6Isrwyz1ao6+YG1riTTUNiTofFwgxHMBQ5Q8sqzi97EznL0hNICz6t6vszFFa1suVYaw3kYf0WiuRzFAnt8Zrvh3Dd2MVqEBDKpeq9+d0xPYJpWarVHrJobHKzuXhb6TqH73wLjAmiEq1skfFs7u7Kgu/26i8qeRp5Sr0AAGqsDtzAuesDck4wlrvaGezptyD5aPrTUD5xf2FxijzBB3m51GRwMAB7d9bBk1SpM9917c0FyKmZ5tMIS/0rCCZwOGLOW4QGtO2zluv2p48TSN9OVWpGqWpaDx/o9hoI5xgbpEg/FRfEJxQ0d15U80dDNGJWvfACVrN4/vlX3b0R8u0qhNE43ujs7qirWp7k+7LYdSYkVXTWhNqsuhUQeeqGSlAbh5cqLL8Qa6Hjd014R+6kkNeBBJ/8zVhKmrhFT/qhVdFo8Lss4AihpbrseAdate31kcNM1IaXft4j9oNbQEK2Vy2RKFLmsMoGznzsCJV9/6Gl75d+nABKgdcqRZ6ffZk5lrmj8eDMofoZx/47Scfny7OS2DU/msMICijRsnqL6cBwEHu7ccX1H0929Df78xXfrJp8cF0QfRJSpwXFohfDO+0ci7Y5WMN4CihtZP4Is0awX1w47pCPG6FMa8jpryn2voplQlW954biFntAEU1beWKWnt3BJjnIJSUjwTMM3S9nDVy051/SRfWN88B2+urToMoHNQBGRJ562hl/xUJi/zkpEGYD393jn09r2Y575TC5YU28ZEjn151/LlJ7X0fabk5i1ojQuEIeZ1Lav4mc+K5Ul2Ms4AZq5pzQsETHhpkNdqEIpij3ptR3XF+nTp79sto9txEHa03d6xLNSQaVwyygCKG9v+3lTmbjSKD9ptGIPkjqC7VNZVXblfQzctVKw34/HDf/43PBzgzULr2j4meqwyU96MFoGMMYCihub5WKDSdVHyVCQSmLP3tkX/p9Us0kypoLFlLjxQbEG2s3ZsdKbK0t4ALBfko/ImfxOf+t6u2Q43nzgvuGTfwoWnNPXTUm1gXPBjZP5DGgV43TBFWXttxT4NXV+ppLUBFH+n6QKVY/wAA7XPa1CN4Lv/mo6aik2Z1q+1y8IaLxlB9SDeBjPt6gySS7v1kaHKmLYGgC2L/4AGbPX3/3qogg17z/LIZoi5GOw+PqxcFgSeHhe89XUUdaVecdUDY6LvVKXruCAtDaCgsfmLOD2lFRU2UqPSnsQc/5x+r2y83iVQ2NAMr9bSWjPRcet+wFDm9em4ZpJWBtDf358wZTWm5MKabbdNyZNLu6qrezT1M1otv77l7wzZv+84a2bR0sYA8Anz+4SI7tT0n9mHfv6yzmXlzdna37druW7XUTCvuBz7otelC+e0MICihpbp6LbsxmfMU+1W5CC5V7G4NaejpvIXGrpZqTKwXvANdIlWaAFIo5V03xtAQX3LzejyNKMinJ6yCGdu4okcaczl2btazViA/Q1gb62taI0LsLZS6ve1Fd8awPSmppyJp4zvIoPLtKpPqSZlnKphf1+L3rtKmb667ksD6D9Yuif4Q/QnZ2hUXx9OYF/aFa5s0dClyhAEStdvPb8n2mudgvOFIYLj3YrgCITarpryDX4cF/jOAArWtfyTNMUjoKrz2j1smMac9tryJ+LVCsOdEeg/9HvClG/goYSDvzUuJbecGBdY7LcVd18ZAOb3K6QymrADy3m+lPiPqDLLHq2tOqxRPVSxScDNN1dYuHymLxos8dO4wHlDswnKiVhZ3c4Rx/PeWgOdpU70zshianTT6DfHhXetmtero08dZwQK1zZ/Uhg4FVOoDzjThLQSRzC7NLczHHrMsW4CFFJuAIUbNr9fRqK7sG3xHzXK14vGv6QjXNGmoUsVFwSscUFvtPch3e+wkHS4szq0MdXjgpQaQGF90xU4zeSHyMQkjbr4oyHl9e3VoSc1dKniAQFrXDDm/CnfggeK2zSjS/mXuCkzgKL6lnL09DcCnM4RoY8HlSjbE674kyZ4qnlIoLC+9SZ4oLC+zdI5Ljal32Yl3QAG+vsNgPVlrTqQ4uk/5ZpXHaiq6tPSp1JCCJweF0hr3/AExwmk8Otcw3FmXSjMXNt0EQa7losRvcYPRbxuH2Xjd1EJCVLtrK08iKitB5vzS4qJqNef4YTMJda5yc4j0NdImgFg+uyqgGEcQFav0s8uNf1MALvy3JxRHMTxsBvg3rH16s2bdT5z10KTFAMobGytwn7dfcjhRVq5pFLWEEA7WTT67cj+4jWbJiej0Ak1gILGxlwcLt2M19r3UJicZBSIaWQEgU+bgeCB/PomnalxRwASZgCWBUs1ej++y6lwlCMKk8BpAhca0vg5PFgsTuS4ICEGYFmuZcEYsl7B2iQBFwSCWOjcWLSuRW9fgo2EvTUAjOCtkbxluUj7QhvpnyWC4vIigbMIoFl9s6ih7XOJAOOZAVgjdwx2sedWbkBGg84zq9bijQHX3LwynQDaiFMHZPCBYC5IBBdPDMCa38fI/TFkcKFGJk/CJeGXOmsql2voUiUdCYwaeRVm+/c5yroSCelOuzaAa1dvG2MEjHYU5lOOCnRa+CU8DWbAH+cODV2qpCmBk8G+11/LNeG8WDpZOHsjEcV1bQCBnFMr0HO/zGnmsNz3U6PPvLyrOvRLp7qUT38C1mp+Z00I7m3kzShNfDc1qv8zC88v1wYg8UWm41wpsfr40Vfy22+vet2xLhUyigCM4AE8DGdgp1nMcYF1RoEc0WvtF/H8cm0AyNEFDnJ1Ei5KbuwMV6zYt2pVxIEeRTOYAPyzHojkRC7H2+Dhc4spX1DKmNGxZMmb54a5v6MxW/PeRDGYOYQu0PttZOX3mB4tba8uf9aGLEWyjMDexYtfQ5HnWj5fcUzfDGmY4/Fm+M/Rb4x7LJE7/VwbgKFEE15R2Mc73KX2RqPGjZ3Ly48OJ8UwEhgYEyZtXOi6C/TqSNNyqPqTWFWHRYz7xlw0vvDR5SE2/liQeD9lBFwbgDWaP3H0lQKroaMUJwaV5Dlsd5zZFQ6t3DVvHnzJ8yIB/xFw3QWyijQwoF1ZtmbNqmPGuIuVqY7wie+/ymaOziXgiQGciXbgkIT/PTcZ3iEBfxJw3QXyZ7GYKxKwR4AGYI8TpWwQwL7eQ/HErEWtfQsWxF/5jReRR+E0AI9AMhoQCJpPx+OAzzqfTLUzrMF5pAHEqzGG2ybQeWvlb+DWdcswClFTmHXDhCc9iAaQdOSZnaAyRtaghNbXwWdfx+E8K9Qdrnzq7IBU/t/TWaBUFoRp+4NAV/WX3sYe3tkF9W3XocF/FifMTIJD3F9K09jZsbz8RX/k8i+5oAH4rUYyIT9Sqi7Rf9qk9fP1RQNIcvVYp98E+gKXwonUJGwAnQQHv9KU5mFDBQ4FlPnf9Hea3AqhASSBt+UixgwGb0JXoET0iiuRZL/7P3QPcAuuoPBJrcInkBH8v7Ch9b/gSmZPQJjb0/Hg6STg9DQJGoCnON8bWcnazeN7jcid2OkfRgu36e5PXQHDuMIURh1OadwYiJj3cuNQ4iqJs0AJYpvf0FLYY0R+i+hX4mez8b8nMyNgCGEzx3gR/jKd77pLULkyLVoagNc1is9iCxtb7gDYdvRozvcg+rFYYX0YLibvTqSHNA/ymZZR0AA8rjY0/m+hu/NtRNvfz/fqwrhgVWFj23qv4mM8pwnQADxsCUUNrbeg3SfMjR+GzEv6fWXy8owADcAjlMVrmy7DjE6zR9HFjAb7rxsL1rXqHCAeM85sDqABeFH76PebhgHXjlrnnTnNQVCaqqGuro5155TcEPKEOAQUp7cK1rUVQ+czTvVcyE9/Km/yXBf6VB0gQAPwoCngBPSvOogG/pDkGoyQLz8R7B1r/ay/MXBejThsH/yHBeS7HaRJ0RgEuBAWA4zd28X1TRdjocuuX9TnDdO8pb226pmz4rfOTsOJKC3bDSm24u9PxksfU6Mfz69vm9YdLucW1HiwhgnnG2AYOHaC4Nz3Olty2AmFs42vGaLxv6veHa54Ljcw4hrcsHX+cUCqWXbSpkxsAjSA2GxsheBLns/bFFxq50O33bfe8oYypa1jZE2pLGPh5YIADcAFvAHVKTai+E1XTWinDbl+ka7akPUZ8XPx5FF5dtKOF01Wh9MA3Ff/pHhRYMC63+k+WHxS/1i8eDEOiJt2vDiyPZwG4L4FxD0LzVTKcvzq6EI36I82FCaU1e0cYUOOIjEI0ABigHFwOy5DTHM6dgWPt4YtnSMfOB43fQdlyTpRwsu6KmeBBxOgAbA9ZDUBGkBWVz8LTwNgG8hqAjSArK7+JBQeX8omIRXtJPgtkDY6KsYiYB2cHjCMexH+WdHYeqGobzmI/XFtndWhLU7XQ2Kl4dV9vgG8Isl4+glYG4PQ+H+NPxfi9yH8xqDxWxt47i9obHvQb/uaaQBsuJ4RsBblsDHI+pp1wlCRwvvR/MLG1gVDhaXqHg0gVeQzMN1jE978NIr1ieGKBo94i4YLT3YYDSDZxDM4Pbh5nB6veNg3fZmftnPSAOLVGMPtE5BirA3h0fuF8E27801GbICjCAl4ToAG4DlSRphOBGgA6VRbzKvnBGgAniNlhOlEgAaQTrXFvHpOgAbgOVJGmE4EaADpVFvMq+cEaACeI2WE6USABpBOtcW8ek6ABuA5UkaYTgRoAOlUW8yr5wRoAJ4jZYTpRIAGkE61xbx6ToAG4DlSRphOBHxlANg9fTIePMh4cfRovGQYrkNAiTwban377rknakMuKSK+MgAlRFx/mJApK16zaXJS6DAR2wRm17fAR6qcH1dBilf9tDHeVy4rChtaugAwPy5EIY5C5sc4Sd36N6UXPDTfFi8DcAzyBJ40v4gnNzgc8Vqnztg4d0w12PUj6iR9R7JKTcA5CbOhc4ENvcc7aypslMtGTB6I+MwtiurGU8SOAViv2oVoJGlx4WjTK5HVKxOTWVmTeg72n6PIK+rYP5evukAiYFgHQ6RJs/ZPJaZTTgwldvspv74ygM5bQy8Bzg4/AWJevCOAJ9vujtqK//EuRvcx+coArOKYZsQ6cvSU+6IxBp8R6DNM8S8+y5N/duefAdNdu/gP6Ccu8Bso5sc1gSq/Pf2tEvnuDWBlqitc8RDc6a1wjZwR+IXAKsz8bPZLZgbnw/7wPQW5L6pvLVNSWa72RqUgeSbpnkAP3uaVeKBtcx9VYmLw5RvgTFE7wqFdkUhgGv5vPT04O5SYNpCQWPFk3REwxKV+bvxWwX39BhhcM9bqbzQYxGKLzJdKXYywi2ASIxNSezqRSomD4NUIAA1A3TJWHHIne+AN2Z3hYpULUwO5iMuqqyBqLIrY+/p//rl6hFSHkceXcRzA3oCI7mkPV73sn+wxJyRAAiRAAiRAAiRAAiRAAiRAAiRAAiRAAiRAAiRAAiRAAiRAAiRAAiRAAiRAAiRAAiRAAiRAAiRAAiRAAiRAAiRAAiRAAiRAAiRAAiRAAiRAAiRAAiRAAiRAAiRAAiRAAiRAAiRAAiRAAiRAAiRAAiRAAiRAAiRAAiRAAiRAAiRAAiRAAiRAAiRAAiRAAiRAAiRAAiRAAiRAAiSQVAL/D8o72pQTokAmAAAAAElFTkSuQmCC;" vertex="1" parent="1">
          <mxGeometry x="212.5" y="1147" width="74" height="74" as="geometry" />
        </mxCell>
        <mxCell id="2o3iRJ-ItCkyY5d7TXHD-2" value="" style="shape=image;verticalLabelPosition=bottom;labelBackgroundColor=default;verticalAlign=top;aspect=fixed;imageAspect=0;image=data:image/png,iVBORw0KGgoAAAANSUhEUgAAAMAAAADACAYAAABS3GwHAAAACXBIWXMAAAsTAAALEwEAmpwYAAAURklEQVR4Xu2dC3RV1ZnH9z73hvAYBKLFysPpYyy17cx0xNalzGrt1EpeYCIE0XYUyE1SQJIbVKTO1EintrW0kIRX85KHYCssS4t5yfQBuqbOqFi0dmZNbW11LFhRrCKPJPeePf8Tgo2Qm3vOPufee+69/7PWXYSzv28/fnt/5+zH2d8WghcJkAAJkAAJkAAJkAAJkAAJkAAJkAAJkAAJkAAJkAAJkAAJkAAJkAAJkAAJkAAJkAAJkAAJkAAJkAAJkAAJkAAJkAAJkAAJkAAJkAAJkAAJkAAJkAAJkAAJkAAJkAAJkAAJkAAJkAAJkAAJkAAJkAAJkEBqCcjUJp9lqSsli9c3T1Om8RmUfIpSaqI0RJ+p5GtSyd8FA3LfnmXlh7KMSkqLSwNIAv5rN22aGOwNLkZSIavhD5ukEr8Shtxg5EYfaK+qOjGsLANdE6ABuEYYO4Kr6+qCo/Om3iGEqoNUbmzJIUOO4K2wtCMc2jVkKG96QoAG4AnGcyOZta7lg1FTPISQT50b6uCOEt8/kdNbuW/p0nccaFHUJgEagE1QTsQK61u+IKT4AXTynOgNI/t8NCpLH10e+u0wMgzSIBDQ0KFKLAIY5BbkTV0hpdgCkdGxxDTuTzQMcfMlBdc9+0L3HhqBBsBYKnwDxCLj8P61q7eNCY7ouR9q8xyqOhFXQom7OmtC9wkplRNFyg5NgAYwNBdHdwsamz4sTWM3uj1/60hRUxhWsOtksG8RxwWaAAep0QBcMixsaM3HLM/3Ec14l1E5VX9eSbOkq7rqd04VKf8XAhwD6LYG9PcL86Z+BY3f6vaM0opGidcwXrC6MiM09CdKIf/5I/mzDr7Q/QiNQAOgpcI3gAa42fe1jY2MVJvR+OdoqKMHo5qVIb/eVV3xCv6Whevvn66UuRq9+qs14jMxHLirY1nFtzkucE6PBuCQWXHD9y4xhfEjPDs+5lAV9iLeMqW4qbumovNs3bq6OuOpvClfxf17zg6z+f+dkd7cRXvvuPm4TXmKgQANwEEzKGpsLVKm2gFq4xyo9Yuiq/PrSESWxJvLL6pvnq2k3A6VsU7TgIH9CoPxko7l5S861s1SBRqAjYrvfzqfP/kuoeTXrLZsQ+UsEflw8JRcuOfO8mN2dIvXNX3UNK23jJhmR/4smTeVNOZ3VZfv1dDNOhWNyswuRgWN28+T4sRWNP4SjZJrz9tf09Q0bsQp4wGkOUsjXVMJ+RUYwWqOC4anRwMYhk9+fds0Q5rWk/ijw4jFCvozXhY3YtGqO5ZAvPsD44K7IWd9TOf8kuKhSE9uOccFsdHRAGKwKWhsnSWVib64PC+GSOzb6Isrwyz1ao6+YG1riTTUNiTofFwgxHMBQ5Q8sqzi97EznL0hNICz6t6vszFFa1suVYaw3kYf0WiuRzFAnt8Zrvh3Dd2MVqEBDKpeq9+d0xPYJpWarVHrJobHKzuXhb6TqH73wLjAmiEq1skfFs7u7Kgu/26i8qeRp5Sr0AAGqsDtzAuesDck4wlrvaGezptyD5aPrTUD5xf2FxijzBB3m51GRwMAB7d9bBk1SpM9917c0FyKmZ5tMIS/0rCCZwOGLOW4QGtO2zluv2p48TSN9OVWpGqWpaDx/o9hoI5xgbpEg/FRfEJxQ0d15U80dDNGJWvfACVrN4/vlX3b0R8u0qhNE43ujs7qirWp7k+7LYdSYkVXTWhNqsuhUQeeqGSlAbh5cqLL8Qa6Hjd014R+6kkNeBBJ/8zVhKmrhFT/qhVdFo8Lss4AihpbrseAdate31kcNM1IaXft4j9oNbQEK2Vy2RKFLmsMoGznzsCJV9/6Gl75d+nABKgdcqRZ6ffZk5lrmj8eDMofoZx/47Scfny7OS2DU/msMICijRsnqL6cBwEHu7ccX1H0929Df78xXfrJp8cF0QfRJSpwXFohfDO+0ci7Y5WMN4CihtZP4Is0awX1w47pCPG6FMa8jpryn2voplQlW954biFntAEU1beWKWnt3BJjnIJSUjwTMM3S9nDVy051/SRfWN88B2+urToMoHNQBGRJ562hl/xUJi/zkpEGYD393jn09r2Y575TC5YU28ZEjn151/LlJ7X0fabk5i1ojQuEIeZ1Lav4mc+K5Ul2Ms4AZq5pzQsETHhpkNdqEIpij3ptR3XF+nTp79sto9txEHa03d6xLNSQaVwyygCKG9v+3lTmbjSKD9ptGIPkjqC7VNZVXblfQzctVKw34/HDf/43PBzgzULr2j4meqwyU96MFoGMMYCihub5WKDSdVHyVCQSmLP3tkX/p9Us0kypoLFlLjxQbEG2s3ZsdKbK0t4ALBfko/ImfxOf+t6u2Q43nzgvuGTfwoWnNPXTUm1gXPBjZP5DGgV43TBFWXttxT4NXV+ppLUBFH+n6QKVY/wAA7XPa1CN4Lv/mo6aik2Z1q+1y8IaLxlB9SDeBjPt6gySS7v1kaHKmLYGgC2L/4AGbPX3/3qogg17z/LIZoi5GOw+PqxcFgSeHhe89XUUdaVecdUDY6LvVKXruCAtDaCgsfmLOD2lFRU2UqPSnsQc/5x+r2y83iVQ2NAMr9bSWjPRcet+wFDm9em4ZpJWBtDf358wZTWm5MKabbdNyZNLu6qrezT1M1otv77l7wzZv+84a2bR0sYA8Anz+4SI7tT0n9mHfv6yzmXlzdna37druW7XUTCvuBz7otelC+e0MICihpbp6LbsxmfMU+1W5CC5V7G4NaejpvIXGrpZqTKwXvANdIlWaAFIo5V03xtAQX3LzejyNKMinJ6yCGdu4okcaczl2btazViA/Q1gb62taI0LsLZS6ve1Fd8awPSmppyJp4zvIoPLtKpPqSZlnKphf1+L3rtKmb667ksD6D9Yuif4Q/QnZ2hUXx9OYF/aFa5s0dClyhAEStdvPb8n2mudgvOFIYLj3YrgCITarpryDX4cF/jOAArWtfyTNMUjoKrz2j1smMac9tryJ+LVCsOdEeg/9HvClG/goYSDvzUuJbecGBdY7LcVd18ZAOb3K6QymrADy3m+lPiPqDLLHq2tOqxRPVSxScDNN1dYuHymLxos8dO4wHlDswnKiVhZ3c4Rx/PeWgOdpU70zshianTT6DfHhXetmtero08dZwQK1zZ/Uhg4FVOoDzjThLQSRzC7NLczHHrMsW4CFFJuAIUbNr9fRqK7sG3xHzXK14vGv6QjXNGmoUsVFwSscUFvtPch3e+wkHS4szq0MdXjgpQaQGF90xU4zeSHyMQkjbr4oyHl9e3VoSc1dKniAQFrXDDm/CnfggeK2zSjS/mXuCkzgKL6lnL09DcCnM4RoY8HlSjbE674kyZ4qnlIoLC+9SZ4oLC+zdI5Ljal32Yl3QAG+vsNgPVlrTqQ4uk/5ZpXHaiq6tPSp1JCCJweF0hr3/AExwmk8Otcw3FmXSjMXNt0EQa7losRvcYPRbxuH2Xjd1EJCVLtrK08iKitB5vzS4qJqNef4YTMJda5yc4j0NdImgFg+uyqgGEcQFav0s8uNf1MALvy3JxRHMTxsBvg3rH16s2bdT5z10KTFAMobGytwn7dfcjhRVq5pFLWEEA7WTT67cj+4jWbJiej0Ak1gILGxlwcLt2M19r3UJicZBSIaWQEgU+bgeCB/PomnalxRwASZgCWBUs1ej++y6lwlCMKk8BpAhca0vg5PFgsTuS4ICEGYFmuZcEYsl7B2iQBFwSCWOjcWLSuRW9fgo2EvTUAjOCtkbxluUj7QhvpnyWC4vIigbMIoFl9s6ih7XOJAOOZAVgjdwx2sedWbkBGg84zq9bijQHX3LwynQDaiFMHZPCBYC5IBBdPDMCa38fI/TFkcKFGJk/CJeGXOmsql2voUiUdCYwaeRVm+/c5yroSCelOuzaAa1dvG2MEjHYU5lOOCnRa+CU8DWbAH+cODV2qpCmBk8G+11/LNeG8WDpZOHsjEcV1bQCBnFMr0HO/zGnmsNz3U6PPvLyrOvRLp7qUT38C1mp+Z00I7m3kzShNfDc1qv8zC88v1wYg8UWm41wpsfr40Vfy22+vet2xLhUyigCM4AE8DGdgp1nMcYF1RoEc0WvtF/H8cm0AyNEFDnJ1Ei5KbuwMV6zYt2pVxIEeRTOYAPyzHojkRC7H2+Dhc4spX1DKmNGxZMmb54a5v6MxW/PeRDGYOYQu0PttZOX3mB4tba8uf9aGLEWyjMDexYtfQ5HnWj5fcUzfDGmY4/Fm+M/Rb4x7LJE7/VwbgKFEE15R2Mc73KX2RqPGjZ3Ly48OJ8UwEhgYEyZtXOi6C/TqSNNyqPqTWFWHRYz7xlw0vvDR5SE2/liQeD9lBFwbgDWaP3H0lQKroaMUJwaV5Dlsd5zZFQ6t3DVvHnzJ8yIB/xFw3QWyijQwoF1ZtmbNqmPGuIuVqY7wie+/ymaOziXgiQGciXbgkIT/PTcZ3iEBfxJw3QXyZ7GYKxKwR4AGYI8TpWwQwL7eQ/HErEWtfQsWxF/5jReRR+E0AI9AMhoQCJpPx+OAzzqfTLUzrMF5pAHEqzGG2ybQeWvlb+DWdcswClFTmHXDhCc9iAaQdOSZnaAyRtaghNbXwWdfx+E8K9Qdrnzq7IBU/t/TWaBUFoRp+4NAV/WX3sYe3tkF9W3XocF/FifMTIJD3F9K09jZsbz8RX/k8i+5oAH4rUYyIT9Sqi7Rf9qk9fP1RQNIcvVYp98E+gKXwonUJGwAnQQHv9KU5mFDBQ4FlPnf9Hea3AqhASSBt+UixgwGb0JXoET0iiuRZL/7P3QPcAuuoPBJrcInkBH8v7Ch9b/gSmZPQJjb0/Hg6STg9DQJGoCnON8bWcnazeN7jcid2OkfRgu36e5PXQHDuMIURh1OadwYiJj3cuNQ4iqJs0AJYpvf0FLYY0R+i+hX4mez8b8nMyNgCGEzx3gR/jKd77pLULkyLVoagNc1is9iCxtb7gDYdvRozvcg+rFYYX0YLibvTqSHNA/ymZZR0AA8rjY0/m+hu/NtRNvfz/fqwrhgVWFj23qv4mM8pwnQADxsCUUNrbeg3SfMjR+GzEv6fWXy8owADcAjlMVrmy7DjE6zR9HFjAb7rxsL1rXqHCAeM85sDqABeFH76PebhgHXjlrnnTnNQVCaqqGuro5155TcEPKEOAQUp7cK1rUVQ+czTvVcyE9/Km/yXBf6VB0gQAPwoCngBPSvOogG/pDkGoyQLz8R7B1r/ay/MXBejThsH/yHBeS7HaRJ0RgEuBAWA4zd28X1TRdjocuuX9TnDdO8pb226pmz4rfOTsOJKC3bDSm24u9PxksfU6Mfz69vm9YdLucW1HiwhgnnG2AYOHaC4Nz3Olty2AmFs42vGaLxv6veHa54Ljcw4hrcsHX+cUCqWXbSpkxsAjSA2GxsheBLns/bFFxq50O33bfe8oYypa1jZE2pLGPh5YIADcAFvAHVKTai+E1XTWinDbl+ka7akPUZ8XPx5FF5dtKOF01Wh9MA3Ff/pHhRYMC63+k+WHxS/1i8eDEOiJt2vDiyPZwG4L4FxD0LzVTKcvzq6EI36I82FCaU1e0cYUOOIjEI0ABigHFwOy5DTHM6dgWPt4YtnSMfOB43fQdlyTpRwsu6KmeBBxOgAbA9ZDUBGkBWVz8LTwNgG8hqAjSArK7+JBQeX8omIRXtJPgtkDY6KsYiYB2cHjCMexH+WdHYeqGobzmI/XFtndWhLU7XQ2Kl4dV9vgG8Isl4+glYG4PQ+H+NPxfi9yH8xqDxWxt47i9obHvQb/uaaQBsuJ4RsBblsDHI+pp1wlCRwvvR/MLG1gVDhaXqHg0gVeQzMN1jE978NIr1ieGKBo94i4YLT3YYDSDZxDM4Pbh5nB6veNg3fZmftnPSAOLVGMPtE5BirA3h0fuF8E27801GbICjCAl4ToAG4DlSRphOBGgA6VRbzKvnBGgAniNlhOlEgAaQTrXFvHpOgAbgOVJGmE4EaADpVFvMq+cEaACeI2WE6USABpBOtcW8ek6ABuA5UkaYTgRoAOlUW8yr5wRoAJ4jZYTpRIAGkE61xbx6ToAG4DlSRphOBHxlANg9fTIePMh4cfRovGQYrkNAiTwban377rknakMuKSK+MgAlRFx/mJApK16zaXJS6DAR2wRm17fAR6qcH1dBilf9tDHeVy4rChtaugAwPy5EIY5C5sc4Sd36N6UXPDTfFi8DcAzyBJ40v4gnNzgc8Vqnztg4d0w12PUj6iR9R7JKTcA5CbOhc4ENvcc7aypslMtGTB6I+MwtiurGU8SOAViv2oVoJGlx4WjTK5HVKxOTWVmTeg72n6PIK+rYP5evukAiYFgHQ6RJs/ZPJaZTTgwldvspv74ygM5bQy8Bzg4/AWJevCOAJ9vujtqK//EuRvcx+coArOKYZsQ6cvSU+6IxBp8R6DNM8S8+y5N/duefAdNdu/gP6Ccu8Bso5sc1gSq/Pf2tEvnuDWBlqitc8RDc6a1wjZwR+IXAKsz8bPZLZgbnw/7wPQW5L6pvLVNSWa72RqUgeSbpnkAP3uaVeKBtcx9VYmLw5RvgTFE7wqFdkUhgGv5vPT04O5SYNpCQWPFk3REwxKV+bvxWwX39BhhcM9bqbzQYxGKLzJdKXYywi2ASIxNSezqRSomD4NUIAA1A3TJWHHIne+AN2Z3hYpULUwO5iMuqqyBqLIrY+/p//rl6hFSHkceXcRzA3oCI7mkPV73sn+wxJyRAAiRAAiRAAiRAAiRAAiRAAiRAAiRAAiRAAiRAAiRAAiRAAiRAAiRAAiRAAiRAAiRAAiRAAiRAAiRAAiRAAiRAAiRAAiRAAiRAAiRAAiRAAiRAAiRAAiRAAiRAAiRAAiRAAiRAAiRAAiRAAiRAAiRAAiRAAiRAAiRAAiRAAiRAAiRAAiRAAiRAAiRAAiRAAiRAAiRAAiRAAiSQVAL/D8o72pQTokAmAAAAAElFTkSuQmCC;" vertex="1" parent="1">
          <mxGeometry x="289" y="1147" width="74" height="74" as="geometry" />
        </mxCell>
        <mxCell id="2o3iRJ-ItCkyY5d7TXHD-3" value="" style="shape=image;verticalLabelPosition=bottom;labelBackgroundColor=default;verticalAlign=top;aspect=fixed;imageAspect=0;image=data:image/png,iVBORw0KGgoAAAANSUhEUgAAAMAAAADACAYAAABS3GwHAAAACXBIWXMAAAsTAAALEwEAmpwYAAAURklEQVR4Xu2dC3RV1ZnH9z73hvAYBKLFysPpYyy17cx0xNalzGrt1EpeYCIE0XYUyE1SQJIbVKTO1EintrW0kIRX85KHYCssS4t5yfQBuqbOqFi0dmZNbW11LFhRrCKPJPeePf8Tgo2Qm3vOPufee+69/7PWXYSzv28/fnt/5+zH2d8WghcJkAAJkAAJkAAJkAAJkAAJkAAJkAAJkAAJkAAJkAAJkAAJkAAJkAAJkAAJkAAJkAAJkAAJkAAJkAAJkAAJkAAJkAAJkAAJkAAJkAAJkAAJkAAJkAAJkAAJkAAJkAAJkAAJkAAJkAAJkAAJkAAJkAAJkEBqCcjUJp9lqSsli9c3T1Om8RmUfIpSaqI0RJ+p5GtSyd8FA3LfnmXlh7KMSkqLSwNIAv5rN22aGOwNLkZSIavhD5ukEr8Shtxg5EYfaK+qOjGsLANdE6ABuEYYO4Kr6+qCo/Om3iGEqoNUbmzJIUOO4K2wtCMc2jVkKG96QoAG4AnGcyOZta7lg1FTPISQT50b6uCOEt8/kdNbuW/p0nccaFHUJgEagE1QTsQK61u+IKT4AXTynOgNI/t8NCpLH10e+u0wMgzSIBDQ0KFKLAIY5BbkTV0hpdgCkdGxxDTuTzQMcfMlBdc9+0L3HhqBBsBYKnwDxCLj8P61q7eNCY7ouR9q8xyqOhFXQom7OmtC9wkplRNFyg5NgAYwNBdHdwsamz4sTWM3uj1/60hRUxhWsOtksG8RxwWaAAep0QBcMixsaM3HLM/3Ec14l1E5VX9eSbOkq7rqd04VKf8XAhwD6LYG9PcL86Z+BY3f6vaM0opGidcwXrC6MiM09CdKIf/5I/mzDr7Q/QiNQAOgpcI3gAa42fe1jY2MVJvR+OdoqKMHo5qVIb/eVV3xCv6Whevvn66UuRq9+qs14jMxHLirY1nFtzkucE6PBuCQWXHD9y4xhfEjPDs+5lAV9iLeMqW4qbumovNs3bq6OuOpvClfxf17zg6z+f+dkd7cRXvvuPm4TXmKgQANwEEzKGpsLVKm2gFq4xyo9Yuiq/PrSESWxJvLL6pvnq2k3A6VsU7TgIH9CoPxko7l5S861s1SBRqAjYrvfzqfP/kuoeTXrLZsQ+UsEflw8JRcuOfO8mN2dIvXNX3UNK23jJhmR/4smTeVNOZ3VZfv1dDNOhWNyswuRgWN28+T4sRWNP4SjZJrz9tf09Q0bsQp4wGkOUsjXVMJ+RUYwWqOC4anRwMYhk9+fds0Q5rWk/ijw4jFCvozXhY3YtGqO5ZAvPsD44K7IWd9TOf8kuKhSE9uOccFsdHRAGKwKWhsnSWVib64PC+GSOzb6Isrwyz1ao6+YG1riTTUNiTofFwgxHMBQ5Q8sqzi97EznL0hNICz6t6vszFFa1suVYaw3kYf0WiuRzFAnt8Zrvh3Dd2MVqEBDKpeq9+d0xPYJpWarVHrJobHKzuXhb6TqH73wLjAmiEq1skfFs7u7Kgu/26i8qeRp5Sr0AAGqsDtzAuesDck4wlrvaGezptyD5aPrTUD5xf2FxijzBB3m51GRwMAB7d9bBk1SpM9917c0FyKmZ5tMIS/0rCCZwOGLOW4QGtO2zluv2p48TSN9OVWpGqWpaDx/o9hoI5xgbpEg/FRfEJxQ0d15U80dDNGJWvfACVrN4/vlX3b0R8u0qhNE43ujs7qirWp7k+7LYdSYkVXTWhNqsuhUQeeqGSlAbh5cqLL8Qa6Hjd014R+6kkNeBBJ/8zVhKmrhFT/qhVdFo8Lss4AihpbrseAdate31kcNM1IaXft4j9oNbQEK2Vy2RKFLmsMoGznzsCJV9/6Gl75d+nABKgdcqRZ6ffZk5lrmj8eDMofoZx/47Scfny7OS2DU/msMICijRsnqL6cBwEHu7ccX1H0929Df78xXfrJp8cF0QfRJSpwXFohfDO+0ci7Y5WMN4CihtZP4Is0awX1w47pCPG6FMa8jpryn2voplQlW954biFntAEU1beWKWnt3BJjnIJSUjwTMM3S9nDVy051/SRfWN88B2+urToMoHNQBGRJ562hl/xUJi/zkpEGYD393jn09r2Y575TC5YU28ZEjn151/LlJ7X0fabk5i1ojQuEIeZ1Lav4mc+K5Ul2Ms4AZq5pzQsETHhpkNdqEIpij3ptR3XF+nTp79sto9txEHa03d6xLNSQaVwyygCKG9v+3lTmbjSKD9ptGIPkjqC7VNZVXblfQzctVKw34/HDf/43PBzgzULr2j4meqwyU96MFoGMMYCihub5WKDSdVHyVCQSmLP3tkX/p9Us0kypoLFlLjxQbEG2s3ZsdKbK0t4ALBfko/ImfxOf+t6u2Q43nzgvuGTfwoWnNPXTUm1gXPBjZP5DGgV43TBFWXttxT4NXV+ppLUBFH+n6QKVY/wAA7XPa1CN4Lv/mo6aik2Z1q+1y8IaLxlB9SDeBjPt6gySS7v1kaHKmLYGgC2L/4AGbPX3/3qogg17z/LIZoi5GOw+PqxcFgSeHhe89XUUdaVecdUDY6LvVKXruCAtDaCgsfmLOD2lFRU2UqPSnsQc/5x+r2y83iVQ2NAMr9bSWjPRcet+wFDm9em4ZpJWBtDf358wZTWm5MKabbdNyZNLu6qrezT1M1otv77l7wzZv+84a2bR0sYA8Anz+4SI7tT0n9mHfv6yzmXlzdna37druW7XUTCvuBz7otelC+e0MICihpbp6LbsxmfMU+1W5CC5V7G4NaejpvIXGrpZqTKwXvANdIlWaAFIo5V03xtAQX3LzejyNKMinJ6yCGdu4okcaczl2btazViA/Q1gb62taI0LsLZS6ve1Fd8awPSmppyJp4zvIoPLtKpPqSZlnKphf1+L3rtKmb667ksD6D9Yuif4Q/QnZ2hUXx9OYF/aFa5s0dClyhAEStdvPb8n2mudgvOFIYLj3YrgCITarpryDX4cF/jOAArWtfyTNMUjoKrz2j1smMac9tryJ+LVCsOdEeg/9HvClG/goYSDvzUuJbecGBdY7LcVd18ZAOb3K6QymrADy3m+lPiPqDLLHq2tOqxRPVSxScDNN1dYuHymLxos8dO4wHlDswnKiVhZ3c4Rx/PeWgOdpU70zshianTT6DfHhXetmtero08dZwQK1zZ/Uhg4FVOoDzjThLQSRzC7NLczHHrMsW4CFFJuAIUbNr9fRqK7sG3xHzXK14vGv6QjXNGmoUsVFwSscUFvtPch3e+wkHS4szq0MdXjgpQaQGF90xU4zeSHyMQkjbr4oyHl9e3VoSc1dKniAQFrXDDm/CnfggeK2zSjS/mXuCkzgKL6lnL09DcCnM4RoY8HlSjbE674kyZ4qnlIoLC+9SZ4oLC+zdI5Ljal32Yl3QAG+vsNgPVlrTqQ4uk/5ZpXHaiq6tPSp1JCCJweF0hr3/AExwmk8Otcw3FmXSjMXNt0EQa7losRvcYPRbxuH2Xjd1EJCVLtrK08iKitB5vzS4qJqNef4YTMJda5yc4j0NdImgFg+uyqgGEcQFav0s8uNf1MALvy3JxRHMTxsBvg3rH16s2bdT5z10KTFAMobGytwn7dfcjhRVq5pFLWEEA7WTT67cj+4jWbJiej0Ak1gILGxlwcLt2M19r3UJicZBSIaWQEgU+bgeCB/PomnalxRwASZgCWBUs1ej++y6lwlCMKk8BpAhca0vg5PFgsTuS4ICEGYFmuZcEYsl7B2iQBFwSCWOjcWLSuRW9fgo2EvTUAjOCtkbxluUj7QhvpnyWC4vIigbMIoFl9s6ih7XOJAOOZAVgjdwx2sedWbkBGg84zq9bijQHX3LwynQDaiFMHZPCBYC5IBBdPDMCa38fI/TFkcKFGJk/CJeGXOmsql2voUiUdCYwaeRVm+/c5yroSCelOuzaAa1dvG2MEjHYU5lOOCnRa+CU8DWbAH+cODV2qpCmBk8G+11/LNeG8WDpZOHsjEcV1bQCBnFMr0HO/zGnmsNz3U6PPvLyrOvRLp7qUT38C1mp+Z00I7m3kzShNfDc1qv8zC88v1wYg8UWm41wpsfr40Vfy22+vet2xLhUyigCM4AE8DGdgp1nMcYF1RoEc0WvtF/H8cm0AyNEFDnJ1Ei5KbuwMV6zYt2pVxIEeRTOYAPyzHojkRC7H2+Dhc4spX1DKmNGxZMmb54a5v6MxW/PeRDGYOYQu0PttZOX3mB4tba8uf9aGLEWyjMDexYtfQ5HnWj5fcUzfDGmY4/Fm+M/Rb4x7LJE7/VwbgKFEE15R2Mc73KX2RqPGjZ3Ly48OJ8UwEhgYEyZtXOi6C/TqSNNyqPqTWFWHRYz7xlw0vvDR5SE2/liQeD9lBFwbgDWaP3H0lQKroaMUJwaV5Dlsd5zZFQ6t3DVvHnzJ8yIB/xFw3QWyijQwoF1ZtmbNqmPGuIuVqY7wie+/ymaOziXgiQGciXbgkIT/PTcZ3iEBfxJw3QXyZ7GYKxKwR4AGYI8TpWwQwL7eQ/HErEWtfQsWxF/5jReRR+E0AI9AMhoQCJpPx+OAzzqfTLUzrMF5pAHEqzGG2ybQeWvlb+DWdcswClFTmHXDhCc9iAaQdOSZnaAyRtaghNbXwWdfx+E8K9Qdrnzq7IBU/t/TWaBUFoRp+4NAV/WX3sYe3tkF9W3XocF/FifMTIJD3F9K09jZsbz8RX/k8i+5oAH4rUYyIT9Sqi7Rf9qk9fP1RQNIcvVYp98E+gKXwonUJGwAnQQHv9KU5mFDBQ4FlPnf9Hea3AqhASSBt+UixgwGb0JXoET0iiuRZL/7P3QPcAuuoPBJrcInkBH8v7Ch9b/gSmZPQJjb0/Hg6STg9DQJGoCnON8bWcnazeN7jcid2OkfRgu36e5PXQHDuMIURh1OadwYiJj3cuNQ4iqJs0AJYpvf0FLYY0R+i+hX4mez8b8nMyNgCGEzx3gR/jKd77pLULkyLVoagNc1is9iCxtb7gDYdvRozvcg+rFYYX0YLibvTqSHNA/ymZZR0AA8rjY0/m+hu/NtRNvfz/fqwrhgVWFj23qv4mM8pwnQADxsCUUNrbeg3SfMjR+GzEv6fWXy8owADcAjlMVrmy7DjE6zR9HFjAb7rxsL1rXqHCAeM85sDqABeFH76PebhgHXjlrnnTnNQVCaqqGuro5155TcEPKEOAQUp7cK1rUVQ+czTvVcyE9/Km/yXBf6VB0gQAPwoCngBPSvOogG/pDkGoyQLz8R7B1r/ay/MXBejThsH/yHBeS7HaRJ0RgEuBAWA4zd28X1TRdjocuuX9TnDdO8pb226pmz4rfOTsOJKC3bDSm24u9PxksfU6Mfz69vm9YdLucW1HiwhgnnG2AYOHaC4Nz3Olty2AmFs42vGaLxv6veHa54Ljcw4hrcsHX+cUCqWXbSpkxsAjSA2GxsheBLns/bFFxq50O33bfe8oYypa1jZE2pLGPh5YIADcAFvAHVKTai+E1XTWinDbl+ka7akPUZ8XPx5FF5dtKOF01Wh9MA3Ff/pHhRYMC63+k+WHxS/1i8eDEOiJt2vDiyPZwG4L4FxD0LzVTKcvzq6EI36I82FCaU1e0cYUOOIjEI0ABigHFwOy5DTHM6dgWPt4YtnSMfOB43fQdlyTpRwsu6KmeBBxOgAbA9ZDUBGkBWVz8LTwNgG8hqAjSArK7+JBQeX8omIRXtJPgtkDY6KsYiYB2cHjCMexH+WdHYeqGobzmI/XFtndWhLU7XQ2Kl4dV9vgG8Isl4+glYG4PQ+H+NPxfi9yH8xqDxWxt47i9obHvQb/uaaQBsuJ4RsBblsDHI+pp1wlCRwvvR/MLG1gVDhaXqHg0gVeQzMN1jE978NIr1ieGKBo94i4YLT3YYDSDZxDM4Pbh5nB6veNg3fZmftnPSAOLVGMPtE5BirA3h0fuF8E27801GbICjCAl4ToAG4DlSRphOBGgA6VRbzKvnBGgAniNlhOlEgAaQTrXFvHpOgAbgOVJGmE4EaADpVFvMq+cEaACeI2WE6USABpBOtcW8ek6ABuA5UkaYTgRoAOlUW8yr5wRoAJ4jZYTpRIAGkE61xbx6ToAG4DlSRphOBHxlANg9fTIePMh4cfRovGQYrkNAiTwban377rknakMuKSK+MgAlRFx/mJApK16zaXJS6DAR2wRm17fAR6qcH1dBilf9tDHeVy4rChtaugAwPy5EIY5C5sc4Sd36N6UXPDTfFi8DcAzyBJ40v4gnNzgc8Vqnztg4d0w12PUj6iR9R7JKTcA5CbOhc4ENvcc7aypslMtGTB6I+MwtiurGU8SOAViv2oVoJGlx4WjTK5HVKxOTWVmTeg72n6PIK+rYP5evukAiYFgHQ6RJs/ZPJaZTTgwldvspv74ygM5bQy8Bzg4/AWJevCOAJ9vujtqK//EuRvcx+coArOKYZsQ6cvSU+6IxBp8R6DNM8S8+y5N/duefAdNdu/gP6Ccu8Bso5sc1gSq/Pf2tEvnuDWBlqitc8RDc6a1wjZwR+IXAKsz8bPZLZgbnw/7wPQW5L6pvLVNSWa72RqUgeSbpnkAP3uaVeKBtcx9VYmLw5RvgTFE7wqFdkUhgGv5vPT04O5SYNpCQWPFk3REwxKV+bvxWwX39BhhcM9bqbzQYxGKLzJdKXYywi2ASIxNSezqRSomD4NUIAA1A3TJWHHIne+AN2Z3hYpULUwO5iMuqqyBqLIrY+/p//rl6hFSHkceXcRzA3oCI7mkPV73sn+wxJyRAAiRAAiRAAiRAAiRAAiRAAiRAAiRAAiRAAiRAAiRAAiRAAiRAAiRAAiRAAiRAAiRAAiRAAiRAAiRAAiRAAiRAAiRAAiRAAiRAAiRAAiRAAiRAAiRAAiRAAiRAAiRAAiRAAiRAAiRAAiRAAiRAAiRAAiRAAiRAAiRAAiRAAiRAAiRAAiRAAiRAAiRAAiRAAiRAAiRAAiRAAiSQVAL/D8o72pQTokAmAAAAAElFTkSuQmCC;" vertex="1" parent="1">
          <mxGeometry x="366.5" y="1147" width="74" height="74" as="geometry" />
        </mxCell>
        <mxCell id="2o3iRJ-ItCkyY5d7TXHD-4" value="" style="shape=image;verticalLabelPosition=bottom;labelBackgroundColor=default;verticalAlign=top;aspect=fixed;imageAspect=0;image=data:image/png,iVBORw0KGgoAAAANSUhEUgAAAMAAAADACAYAAABS3GwHAAAACXBIWXMAAAsTAAALEwEAmpwYAAAQGklEQVR4Xu2dC3BU1RnHz7mbhEd4CPgYDD6qY7XV8TFIdbS2oSCYbLSiJlrkKQkRWwihYm0tRGgdXzUkC5ZZs0Gzoo7AjEwlCaAdrVU7I0WtUjsdrY8RS1VADIYkZO89/e5CMCHZzX2dzZ67/52JuHe/853v+33nv3vvuefeyxheIAACIAACIAACIAACIAACIAACIAACIAACIAACIAACIAACfiXA/ZpYuuc1bU3DmA69c4LQDB7oEDu23Fm+N91j9mN8EEAKq1pctSGnddSBaxnns6nbAvrLOtq9zgTfzrkRbR2RvfnluXPbUxhWRncFAaSg/EWhyA8MwWjQi1uou9FJuxTsa8bZRs5ZtHFh6askFpHUHh+6IgABuMKXuHFR9do8Q8uaSYPZ/LY/L7Fl0k8+FEKsZ5qINi8q/09SS3zoiAAE4Ahb342KwuGhegefxkV8F2cS/Wl9WzrYKthr5q9Cx2Dj2RfLy7924AFN+iAAAfQBxdYmIXhhbf1VtP8+WzBeTG2H22pv39g8PvgT5zzauu/TbS+vWBGz7wItughAAA7HQrC6/iwRMGZRc/PvOw7duG32OR1XPM0MFm2qnP+2W2eZ2B4CsFH1gtD6EZrRViyO7Nf/kJqmE793hGBRnp31VNPP5/7PRloZbZpOBUzLQlRVVWlvjDl9MheGuV8/jf6GpGWg3wal0/++wJlowJRq/5WCABIwCq6q+55B8/U0CzmDTPISmKX35iNTqpvoHEO0qWLeXzGl2rtcEEA3JlOrI6MDAfEz2mR+20/ojUvpLR/RlOqTmFLtWcOMF0B+VVVW7qi8QprBmU179EWEJ0fpYW4t+Nep8A3ZRtaGzZVzD1hr4k+rjBVAQShyCZ1jNc/OTqfSnuTP8vabVbtg4nmNaw2ZOqWaUQK4rqbulBgXt9LkjbmLc2G/wyOzDD6nWaRnmMbprHPpW5mSuu8FUBAKDdKModcJRrM4nE+lwnYtQMuUGtvPU7B3zRNtMUN/altl+R77DtRp4VsBFITqLj+yi8NupnKMUqckaRVpfEqVjo2iubGDmzcuWdKWVtF5EIyvBDDlkXWnBQL6TFozY+7ifNcDPnBxjIBoocGyySAxNC8se8UvU6rKC2DKw9HcrJzDN9CJH1qLwyZSvbxbgIbhn4jARzRw1sd0Ht22pPSDREYqbFdTALQAragm8uOjJ6puooE/TAXYPo3xdfo1iObogWdVnFJVSgAFofDZmtDMVZczafryTJ8OKFXT6qDB9DydbGs49NVnW1VZpZr2ApgcDo/MbuMl/MiJqitVHR0ZFbdgX9CvwjO0aLAh3adU01IAxRs2BFr3tFxNuzazad/+eho8gzNqAPkpWZpSpaOyJ3XdWJ+OU6ppJYCp1Y+dH9DiSxLMBWhj/TQOkAvT6RfhRW7waK7R8ly6TKkOuADM24Mc1jumx9fiMDYeAyUTCKTPlOqACGB8OJx98qFAkAfo7KzgQSp5diaUHTn2RYB/zARbr/FYdEvF7e/3ZSFzW0oFEKytG2/E9+uZueT4RJmJwbd6BGgX6W9cCLqqLfZs4x13fJWKDKQLYOqq8NhAQJtBKjevnb0gFUmhD+UJxKdU6TxPtG3fp80yp1SlCCD/8ccH57Z0Xn90v/5qKkdA+ZIggYEi8CWt3n1aM/TolsryN70OwlMBBGsfu4JxbY4wRAnN5Iz0Olj4y3gCu8yFeV5OqboWQOGayBnMMGYyodEujjgn40sEAKkgQKtUxZ/pmCEaGCSe21Jefshpp44EkP/oo8NyY4NujK+xZzyfOnfkx2nQaAcC3QgcpP/fpNG9kbYsLv2L3VWq1gcuLUArWBOZGF9jL9iN1GkuygACaUbgE5pWf9IQnfVbKxd8bCU2SwII1kToZlDifnJ4thWnsAGBASbQSbtIq3L3n7Bs44qSw8liSSqAgtC6kzSh/5HW5NyUzAk+A4E0JfAO04wZTQvL300UX0IBBEN1NwiDraW9+5MTNcZ2EFCAQAeN4WUT9u1+ZMWKFXQetuerlwCKq6uHtAaGR8jMvF0IXiDgFwKvxHJixdsXLPiie0I9BHBkGfLXz5HBtX7JGnmAQDcCO7TBRn73adMe18+2/rfFvIMCBj/GjF8JTBAd2vzuyfUQANdYvl8zR14gYBKg2XzztvbHXj0EYBiiFZhAwN8ERI9Vpj1vIRIQ2/2dPLLLdAIaE03dGfQQQPPC+c3mCYRMh4T8/UqAV2+pmG9O8hx79bqJVNOisl/SUodfk0XSM2h+RYS8fEmAFsuJxU2L5t15fHa9zgN0GQRrIxfQrbOfoPe4Tvd4anivEoHXNabPSXS5Za9fgK7MGitKdx3av/tyWgaxnLbR2gq8QEApAu10L6mlE/bvvirR4DezSfgL0D3VolD9RYbQG8j8IqUQINhMJfAGN9icxsqyf/UHwJIATCfmnRxOaQssZ1zcTW9xj/3+yOLzgSBAx6383tyxIx7aWFJi3tq935dlAXR5Mu/sQL8bDfQ0kfP79Q4DEEgRAbo67E1N8NnmrrudLhMeAyRy0lhRttNgbeaB8QP0Z0lliXxhOwh4QKCTnmZT1bZv92V2B7/Zt+1fgO4BF9aEL6OL4J+gbed5kAhcgIBdAu8wQ8xuqpz/tt2GXfauBGA6MW+BMrRFv8+cZ6W3tn9RnAaOdhlNIEaXPj7w+RB95c7yclczlK4F0FWGgtWRK7kh1tF7PJooo8em3OTp8Vf/FHTrnaaF8/7uRU+eCcAM5shDp0+bRucOLuSaGOJFgH72QVfcGXTzsF5XKfk5Z6e5cS7ahMH/MSxvxPNWZ3ic9oV2IAACIAACIAACIAACIAACIAACIAACIAACfiPg6TSoFTgFoci1nBm30YkM8+yxJ49GomWve+hE3Eudhwc9uH3pLEfXNRfWRugO18bNdGabzmMI1yf0aL6aLqdgn9B/mg7t/yzk5CEP8WnlMeN+QeuuguTvTPrXg3rRY+qYoEcR8Q20dKDBSs2OtykKh4fqbfxXtARhIn126vGfO3zfSbzeo+Dqt1aU9bhs0aE/S808AGqpn7hRQW3dMupwpfUWdi35+4IPvrR50YwWOy0prjDF1eN2GXba928rXsode8LVduavq6qqtB2j816kgWoOMikvEsK6xor58+w4N+8MPjSWs4PayFv+QlckNi0uM9eaSX+5/qazGuE1NfXn0iCrsmrvzE6cw0W7rT6CtfUT5Q5+MxM+sXXPgTI7Ob0xKo8GprzBb8ZCPyi3FdbUmU/wsfwaGsteRsbyBr8ZCWcrg9X1Z1kOyoVhygTAmf4jilP+o5KEsFVQOhE72QU/G001W/1onE+x4dyxKYlgkr3GKYkr28gS+fbicmadOgFw7tW+YvJMOTstuUHPT+n0emriYiLPVlyMjbNj79SWlhjYiov6SU1cQtiqo9P8UyYACjA1xxs2DxTpuQepiYseXWKvSHbt7XnvsqagbMVF67xs2TuLKt4qJf2kUgAuWKApCMghAAHI4QqvihCAABQpFMKUQwACkMMVXhUhAAEoUiiEKYcABCCHK7wqQgACUKRQCFMOAQhADld4VYQABKBIoRCmHAIQgByu8KoIAQhAkUIhTDkEIAA5XOFVEQIQgCKFQphyCEAAcrjCqyIEIABFCoUw5RCAAORwhVdFCEAAihQKYcohAAHI4QqvihCAABQpFMKUQwACkMMVXhUhAAEoUiiEKYcABCCHK7wqQgACUKRQCFMOAQhADld4VYQABKBIoRCmHAIQgByu8KoIAQhAkUIhTDkEIAA5XOFVEQIQgCKFQphyCEAAcrjCqyIEIABFCoUw5RCAAORwhVdFCEAAihQKYcohAAHI4QqvihCAABQpFMKUQwACkMMVXhUhAAEoUiiEKYcABCCHK7wqQgACUKRQCFMOAQhADld4VYQABKBIoRCmHAIQgByu8KoIAQhAkUIhTDkEIAA5XOFVEQIQgCKFQphyCEAAcrjCqyIEIABFCoUw5RCAAORwhVdFCEAAihQKYcohAAHI4QqvihCAABQpFMKUQwACkMMVXhUhAAEoUiiEKYcABCCHK7wqQgACUKRQCFMOAQhADld4VYQABKBIoRCmHAIQgByu8KoIAQhAkUIhTDkEIAA5XOFVEQIQgCKFQphyCEAAcrjCqyIEuKw4p61pGNPZ3n7Mv5Gl3cU4Wyqrv2/9ihatU5xttR89O7CaM3GLVXsXdju1TuMaq+2NbG0r2Y63au/Ujgq0iXcaC6y2p7j+Tbajrdo7thPsYS1mPNTV/rAY0rZ96axWx/4SNPRUAJPD4ZHZ7VotOQ1Sfycm6BObQcAJAcE5e88w2EPNi8uiThz01cYzARRXVw9pDQx/izo5t6+OsA0EPCPA2V1Ni8oe9sKfZ8cArdrwCgx+L0oCH/0R4IItn7J27cn92Vn53BMBmPv71NndVjqEDQi4JSAYG5bVkXWPWz9me08E0KF33EMHuCO9CAg+QMASAc5uL6oJn27JNomRawEUromcwRi/I0kf+AgEZBDIMbh2r1vHrgXAdPF7CmKQ20DQHgQcEJhVtDp8noN2x5q4EkBRqP4i8jTdTQBoCwIuCASEof3ORXt3xwA6Mx6kzl2JyE3waAsCdEB8Y7C2zvEJQ8eD95rayCSajpqKEoDAABPgBmf3OY3BmQCE4JoQDzjtFO1AwEsC5hdx0aq6fCc+HQmgYHX9XJr2vNRJh2gDAjIIGBpbxeiL2a5vRwLghrjVbkewBwHJBC6euqru+3b7cCQA+vYfZbcj2IOAbAK0X257XDoTAGM7ZScD/yBgk8DhwSJnl802zqYwua7dTztb39jtDPYgIIsALZX+w+bKuQfs+nf0C9C4ZN6HuhA/oc7M5c94gcBAEjhI5wKWNy4s/a2TIGwfNR/fibkslbcFTsoKaK59He8b70EgGYGYztr35uqf7Cwv70xmh89AAARAAARAAARAAARAAARAAARAAASIQK+Zm+serB+u5WgB0AEBPxLIzss9uLGkRO/KLS4A85Ym3wSGrSQ9TKcNp/oxceQEAkcJtNG/r3HGKxsrSnfRTdEED4YiL9DJhElABAIZRKBd04xLAoWjx/2Ukv5NBiWOVEHAJJBFX/rjaCmEuAI8QCAjCRj8ChIAN29qhRcIZB4BzsY4WgyXeaSQsV8JQAB+rSzyskQAArCECUZ+JQAB+LWyyMsSAQjAEiYY+ZUABODXyiIvSwQgAEuYYORXAhCAXyuLvCwRgAAsYYKRXwlAAH6tLPKyRAACsIQJRn4lAAH4tbLIyxIBCMASJhj5lQAE4NfKIi9LBOg5F3yvJUsYgYD/COzV6Pa4r/kvL2QEAlYI8FfjF8UXhOq24nlfVoDBxkcEWnWdXxw/BmgbnnU97QrREx/5xz5KEKmAQB8ERAsTvNkQ2vhtS0o/6HVfoOKqDTlfntmKg+M+0GGT+gRenjOng3Ha38ELBEAABEAABEAABEAABEAABEAABEAABEAABEAABEAABEDA9wT+DxiRlXPi9QlgAAAAAElFTkSuQmCC;" vertex="1" parent="1">
          <mxGeometry x="222.25" y="1097" width="53.5" height="53.5" as="geometry" />
        </mxCell>
        <mxCell id="2o3iRJ-ItCkyY5d7TXHD-5" value="" style="shape=image;verticalLabelPosition=bottom;labelBackgroundColor=default;verticalAlign=top;aspect=fixed;imageAspect=0;image=data:image/png,iVBORw0KGgoAAAANSUhEUgAAAMAAAADACAYAAABS3GwHAAAACXBIWXMAAAsTAAALEwEAmpwYAAAQGklEQVR4Xu2dC3BU1RnHz7mbhEd4CPgYDD6qY7XV8TFIdbS2oSCYbLSiJlrkKQkRWwihYm0tRGgdXzUkC5ZZs0Gzoo7AjEwlCaAdrVU7I0WtUjsdrY8RS1VADIYkZO89/e5CMCHZzX2dzZ67/52JuHe/853v+33nv3vvuefeyxheIAACIAACIAACIAACIAACIAACIAACIAACIAACIAACIAACfiXA/ZpYuuc1bU3DmA69c4LQDB7oEDu23Fm+N91j9mN8EEAKq1pctSGnddSBaxnns6nbAvrLOtq9zgTfzrkRbR2RvfnluXPbUxhWRncFAaSg/EWhyA8MwWjQi1uou9FJuxTsa8bZRs5ZtHFh6askFpHUHh+6IgABuMKXuHFR9do8Q8uaSYPZ/LY/L7Fl0k8+FEKsZ5qINi8q/09SS3zoiAAE4Ahb342KwuGhegefxkV8F2cS/Wl9WzrYKthr5q9Cx2Dj2RfLy7924AFN+iAAAfQBxdYmIXhhbf1VtP8+WzBeTG2H22pv39g8PvgT5zzauu/TbS+vWBGz7wItughAAA7HQrC6/iwRMGZRc/PvOw7duG32OR1XPM0MFm2qnP+2W2eZ2B4CsFH1gtD6EZrRViyO7Nf/kJqmE793hGBRnp31VNPP5/7PRloZbZpOBUzLQlRVVWlvjDl9MheGuV8/jf6GpGWg3wal0/++wJlowJRq/5WCABIwCq6q+55B8/U0CzmDTPISmKX35iNTqpvoHEO0qWLeXzGl2rtcEEA3JlOrI6MDAfEz2mR+20/ojUvpLR/RlOqTmFLtWcOMF0B+VVVW7qi8QprBmU179EWEJ0fpYW4t+Nep8A3ZRtaGzZVzD1hr4k+rjBVAQShyCZ1jNc/OTqfSnuTP8vabVbtg4nmNaw2ZOqWaUQK4rqbulBgXt9LkjbmLc2G/wyOzDD6nWaRnmMbprHPpW5mSuu8FUBAKDdKModcJRrM4nE+lwnYtQMuUGtvPU7B3zRNtMUN/altl+R77DtRp4VsBFITqLj+yi8NupnKMUqckaRVpfEqVjo2iubGDmzcuWdKWVtF5EIyvBDDlkXWnBQL6TFozY+7ifNcDPnBxjIBoocGyySAxNC8se8UvU6rKC2DKw9HcrJzDN9CJH1qLwyZSvbxbgIbhn4jARzRw1sd0Ht22pPSDREYqbFdTALQAragm8uOjJ6puooE/TAXYPo3xdfo1iObogWdVnFJVSgAFofDZmtDMVZczafryTJ8OKFXT6qDB9DydbGs49NVnW1VZpZr2ApgcDo/MbuMl/MiJqitVHR0ZFbdgX9CvwjO0aLAh3adU01IAxRs2BFr3tFxNuzazad/+eho8gzNqAPkpWZpSpaOyJ3XdWJ+OU6ppJYCp1Y+dH9DiSxLMBWhj/TQOkAvT6RfhRW7waK7R8ly6TKkOuADM24Mc1jumx9fiMDYeAyUTCKTPlOqACGB8OJx98qFAkAfo7KzgQSp5diaUHTn2RYB/zARbr/FYdEvF7e/3ZSFzW0oFEKytG2/E9+uZueT4RJmJwbd6BGgX6W9cCLqqLfZs4x13fJWKDKQLYOqq8NhAQJtBKjevnb0gFUmhD+UJxKdU6TxPtG3fp80yp1SlCCD/8ccH57Z0Xn90v/5qKkdA+ZIggYEi8CWt3n1aM/TolsryN70OwlMBBGsfu4JxbY4wRAnN5Iz0Olj4y3gCu8yFeV5OqboWQOGayBnMMGYyodEujjgn40sEAKkgQKtUxZ/pmCEaGCSe21Jefshpp44EkP/oo8NyY4NujK+xZzyfOnfkx2nQaAcC3QgcpP/fpNG9kbYsLv2L3VWq1gcuLUArWBOZGF9jL9iN1GkuygACaUbgE5pWf9IQnfVbKxd8bCU2SwII1kToZlDifnJ4thWnsAGBASbQSbtIq3L3n7Bs44qSw8liSSqAgtC6kzSh/5HW5NyUzAk+A4E0JfAO04wZTQvL300UX0IBBEN1NwiDraW9+5MTNcZ2EFCAQAeN4WUT9u1+ZMWKFXQetuerlwCKq6uHtAaGR8jMvF0IXiDgFwKvxHJixdsXLPiie0I9BHBkGfLXz5HBtX7JGnmAQDcCO7TBRn73adMe18+2/rfFvIMCBj/GjF8JTBAd2vzuyfUQANdYvl8zR14gYBKg2XzztvbHXj0EYBiiFZhAwN8ERI9Vpj1vIRIQ2/2dPLLLdAIaE03dGfQQQPPC+c3mCYRMh4T8/UqAV2+pmG9O8hx79bqJVNOisl/SUodfk0XSM2h+RYS8fEmAFsuJxU2L5t15fHa9zgN0GQRrIxfQrbOfoPe4Tvd4anivEoHXNabPSXS5Za9fgK7MGitKdx3av/tyWgaxnLbR2gq8QEApAu10L6mlE/bvvirR4DezSfgL0D3VolD9RYbQG8j8IqUQINhMJfAGN9icxsqyf/UHwJIATCfmnRxOaQssZ1zcTW9xj/3+yOLzgSBAx6383tyxIx7aWFJi3tq935dlAXR5Mu/sQL8bDfQ0kfP79Q4DEEgRAbo67E1N8NnmrrudLhMeAyRy0lhRttNgbeaB8QP0Z0lliXxhOwh4QKCTnmZT1bZv92V2B7/Zt+1fgO4BF9aEL6OL4J+gbed5kAhcgIBdAu8wQ8xuqpz/tt2GXfauBGA6MW+BMrRFv8+cZ6W3tn9RnAaOdhlNIEaXPj7w+RB95c7yclczlK4F0FWGgtWRK7kh1tF7PJooo8em3OTp8Vf/FHTrnaaF8/7uRU+eCcAM5shDp0+bRucOLuSaGOJFgH72QVfcGXTzsF5XKfk5Z6e5cS7ahMH/MSxvxPNWZ3ic9oV2IAACIAACIAACIAACIAACIAACIAACIAACfiPg6TSoFTgFoci1nBm30YkM8+yxJ49GomWve+hE3Eudhwc9uH3pLEfXNRfWRugO18bNdGabzmMI1yf0aL6aLqdgn9B/mg7t/yzk5CEP8WnlMeN+QeuuguTvTPrXg3rRY+qYoEcR8Q20dKDBSs2OtykKh4fqbfxXtARhIn126vGfO3zfSbzeo+Dqt1aU9bhs0aE/S808AGqpn7hRQW3dMupwpfUWdi35+4IPvrR50YwWOy0prjDF1eN2GXba928rXsode8LVduavq6qqtB2j816kgWoOMikvEsK6xor58+w4N+8MPjSWs4PayFv+QlckNi0uM9eaSX+5/qazGuE1NfXn0iCrsmrvzE6cw0W7rT6CtfUT5Q5+MxM+sXXPgTI7Ob0xKo8GprzBb8ZCPyi3FdbUmU/wsfwaGsteRsbyBr8ZCWcrg9X1Z1kOyoVhygTAmf4jilP+o5KEsFVQOhE72QU/G001W/1onE+x4dyxKYlgkr3GKYkr28gS+fbicmadOgFw7tW+YvJMOTstuUHPT+n0emriYiLPVlyMjbNj79SWlhjYiov6SU1cQtiqo9P8UyYACjA1xxs2DxTpuQepiYseXWKvSHbt7XnvsqagbMVF67xs2TuLKt4qJf2kUgAuWKApCMghAAHI4QqvihCAABQpFMKUQwACkMMVXhUhAAEoUiiEKYcABCCHK7wqQgACUKRQCFMOAQhADld4VYQABKBIoRCmHAIQgByu8KoIAQhAkUIhTDkEIAA5XOFVEQIQgCKFQphyCEAAcrjCqyIEIABFCoUw5RCAAORwhVdFCEAAihQKYcohAAHI4QqvihCAABQpFMKUQwACkMMVXhUhAAEoUiiEKYcABCCHK7wqQgACUKRQCFMOAQhADld4VYQABKBIoRCmHAIQgByu8KoIAQhAkUIhTDkEIAA5XOFVEQIQgCKFQphyCEAAcrjCqyIEIABFCoUw5RCAAORwhVdFCEAAihQKYcohAAHI4QqvihCAABQpFMKUQwACkMMVXhUhAAEoUiiEKYcABCCHK7wqQgACUKRQCFMOAQhADld4VYQABKBIoRCmHAIQgByu8KoIAQhAkUIhTDkEIAA5XOFVEQIQgCKFQphyCEAAcrjCqyIEIABFCoUw5RCAAORwhVdFCEAAihQKYcohAAHI4QqvihCAABQpFMKUQwACkMMVXhUhAAEoUiiEKYcABCCHK7wqQgACUKRQCFMOAQhADld4VYQABKBIoRCmHAIQgByu8KoIAQhAkUIhTDkEIAA5XOFVEQIQgCKFQphyCEAAcrjCqyIEuKw4p61pGNPZ3n7Mv5Gl3cU4Wyqrv2/9ihatU5xttR89O7CaM3GLVXsXdju1TuMaq+2NbG0r2Y63au/Ujgq0iXcaC6y2p7j+Tbajrdo7thPsYS1mPNTV/rAY0rZ96axWx/4SNPRUAJPD4ZHZ7VotOQ1Sfycm6BObQcAJAcE5e88w2EPNi8uiThz01cYzARRXVw9pDQx/izo5t6+OsA0EPCPA2V1Ni8oe9sKfZ8cArdrwCgx+L0oCH/0R4IItn7J27cn92Vn53BMBmPv71NndVjqEDQi4JSAYG5bVkXWPWz9me08E0KF33EMHuCO9CAg+QMASAc5uL6oJn27JNomRawEUromcwRi/I0kf+AgEZBDIMbh2r1vHrgXAdPF7CmKQ20DQHgQcEJhVtDp8noN2x5q4EkBRqP4i8jTdTQBoCwIuCASEof3ORXt3xwA6Mx6kzl2JyE3waAsCdEB8Y7C2zvEJQ8eD95rayCSajpqKEoDAABPgBmf3OY3BmQCE4JoQDzjtFO1AwEsC5hdx0aq6fCc+HQmgYHX9XJr2vNRJh2gDAjIIGBpbxeiL2a5vRwLghrjVbkewBwHJBC6euqru+3b7cCQA+vYfZbcj2IOAbAK0X257XDoTAGM7ZScD/yBgk8DhwSJnl802zqYwua7dTztb39jtDPYgIIsALZX+w+bKuQfs+nf0C9C4ZN6HuhA/oc7M5c94gcBAEjhI5wKWNy4s/a2TIGwfNR/fibkslbcFTsoKaK59He8b70EgGYGYztr35uqf7Cwv70xmh89AAARAAARAAARAAARAAARAAARAAASIQK+Zm+serB+u5WgB0AEBPxLIzss9uLGkRO/KLS4A85Ym3wSGrSQ9TKcNp/oxceQEAkcJtNG/r3HGKxsrSnfRTdEED4YiL9DJhElABAIZRKBd04xLAoWjx/2Ukv5NBiWOVEHAJJBFX/rjaCmEuAI8QCAjCRj8ChIAN29qhRcIZB4BzsY4WgyXeaSQsV8JQAB+rSzyskQAArCECUZ+JQAB+LWyyMsSAQjAEiYY+ZUABODXyiIvSwQgAEuYYORXAhCAXyuLvCwRgAAsYYKRXwlAAH6tLPKyRAACsIQJRn4lAAH4tbLIyxIBCMASJhj5lQAE4NfKIi9LBOg5F3yvJUsYgYD/COzV6Pa4r/kvL2QEAlYI8FfjF8UXhOq24nlfVoDBxkcEWnWdXxw/BmgbnnU97QrREx/5xz5KEKmAQB8ERAsTvNkQ2vhtS0o/6HVfoOKqDTlfntmKg+M+0GGT+gRenjOng3Ha38ELBEAABEAABEAABEAABEAABEAABEAABEAABEAABEAABEDA9wT+DxiRlXPi9QlgAAAAAElFTkSuQmCC;" vertex="1" parent="1">
          <mxGeometry x="299.25" y="1097" width="53.5" height="53.5" as="geometry" />
        </mxCell>
        <mxCell id="2o3iRJ-ItCkyY5d7TXHD-6" value="" style="shape=image;verticalLabelPosition=bottom;labelBackgroundColor=default;verticalAlign=top;aspect=fixed;imageAspect=0;image=data:image/png,iVBORw0KGgoAAAANSUhEUgAAAMAAAADACAYAAABS3GwHAAAACXBIWXMAAAsTAAALEwEAmpwYAAAQGklEQVR4Xu2dC3BU1RnHz7mbhEd4CPgYDD6qY7XV8TFIdbS2oSCYbLSiJlrkKQkRWwihYm0tRGgdXzUkC5ZZs0Gzoo7AjEwlCaAdrVU7I0WtUjsdrY8RS1VADIYkZO89/e5CMCHZzX2dzZ67/52JuHe/853v+33nv3vvuefeyxheIAACIAACIAACIAACIAACIAACIAACIAACIAACIAACIAACfiXA/ZpYuuc1bU3DmA69c4LQDB7oEDu23Fm+N91j9mN8EEAKq1pctSGnddSBaxnns6nbAvrLOtq9zgTfzrkRbR2RvfnluXPbUxhWRncFAaSg/EWhyA8MwWjQi1uou9FJuxTsa8bZRs5ZtHFh6askFpHUHh+6IgABuMKXuHFR9do8Q8uaSYPZ/LY/L7Fl0k8+FEKsZ5qINi8q/09SS3zoiAAE4Ahb342KwuGhegefxkV8F2cS/Wl9WzrYKthr5q9Cx2Dj2RfLy7924AFN+iAAAfQBxdYmIXhhbf1VtP8+WzBeTG2H22pv39g8PvgT5zzauu/TbS+vWBGz7wItughAAA7HQrC6/iwRMGZRc/PvOw7duG32OR1XPM0MFm2qnP+2W2eZ2B4CsFH1gtD6EZrRViyO7Nf/kJqmE793hGBRnp31VNPP5/7PRloZbZpOBUzLQlRVVWlvjDl9MheGuV8/jf6GpGWg3wal0/++wJlowJRq/5WCABIwCq6q+55B8/U0CzmDTPISmKX35iNTqpvoHEO0qWLeXzGl2rtcEEA3JlOrI6MDAfEz2mR+20/ojUvpLR/RlOqTmFLtWcOMF0B+VVVW7qi8QprBmU179EWEJ0fpYW4t+Nep8A3ZRtaGzZVzD1hr4k+rjBVAQShyCZ1jNc/OTqfSnuTP8vabVbtg4nmNaw2ZOqWaUQK4rqbulBgXt9LkjbmLc2G/wyOzDD6nWaRnmMbprHPpW5mSuu8FUBAKDdKModcJRrM4nE+lwnYtQMuUGtvPU7B3zRNtMUN/altl+R77DtRp4VsBFITqLj+yi8NupnKMUqckaRVpfEqVjo2iubGDmzcuWdKWVtF5EIyvBDDlkXWnBQL6TFozY+7ifNcDPnBxjIBoocGyySAxNC8se8UvU6rKC2DKw9HcrJzDN9CJH1qLwyZSvbxbgIbhn4jARzRw1sd0Ht22pPSDREYqbFdTALQAragm8uOjJ6puooE/TAXYPo3xdfo1iObogWdVnFJVSgAFofDZmtDMVZczafryTJ8OKFXT6qDB9DydbGs49NVnW1VZpZr2ApgcDo/MbuMl/MiJqitVHR0ZFbdgX9CvwjO0aLAh3adU01IAxRs2BFr3tFxNuzazad/+eho8gzNqAPkpWZpSpaOyJ3XdWJ+OU6ppJYCp1Y+dH9DiSxLMBWhj/TQOkAvT6RfhRW7waK7R8ly6TKkOuADM24Mc1jumx9fiMDYeAyUTCKTPlOqACGB8OJx98qFAkAfo7KzgQSp5diaUHTn2RYB/zARbr/FYdEvF7e/3ZSFzW0oFEKytG2/E9+uZueT4RJmJwbd6BGgX6W9cCLqqLfZs4x13fJWKDKQLYOqq8NhAQJtBKjevnb0gFUmhD+UJxKdU6TxPtG3fp80yp1SlCCD/8ccH57Z0Xn90v/5qKkdA+ZIggYEi8CWt3n1aM/TolsryN70OwlMBBGsfu4JxbY4wRAnN5Iz0Olj4y3gCu8yFeV5OqboWQOGayBnMMGYyodEujjgn40sEAKkgQKtUxZ/pmCEaGCSe21Jefshpp44EkP/oo8NyY4NujK+xZzyfOnfkx2nQaAcC3QgcpP/fpNG9kbYsLv2L3VWq1gcuLUArWBOZGF9jL9iN1GkuygACaUbgE5pWf9IQnfVbKxd8bCU2SwII1kToZlDifnJ4thWnsAGBASbQSbtIq3L3n7Bs44qSw8liSSqAgtC6kzSh/5HW5NyUzAk+A4E0JfAO04wZTQvL300UX0IBBEN1NwiDraW9+5MTNcZ2EFCAQAeN4WUT9u1+ZMWKFXQetuerlwCKq6uHtAaGR8jMvF0IXiDgFwKvxHJixdsXLPiie0I9BHBkGfLXz5HBtX7JGnmAQDcCO7TBRn73adMe18+2/rfFvIMCBj/GjF8JTBAd2vzuyfUQANdYvl8zR14gYBKg2XzztvbHXj0EYBiiFZhAwN8ERI9Vpj1vIRIQ2/2dPLLLdAIaE03dGfQQQPPC+c3mCYRMh4T8/UqAV2+pmG9O8hx79bqJVNOisl/SUodfk0XSM2h+RYS8fEmAFsuJxU2L5t15fHa9zgN0GQRrIxfQrbOfoPe4Tvd4anivEoHXNabPSXS5Za9fgK7MGitKdx3av/tyWgaxnLbR2gq8QEApAu10L6mlE/bvvirR4DezSfgL0D3VolD9RYbQG8j8IqUQINhMJfAGN9icxsqyf/UHwJIATCfmnRxOaQssZ1zcTW9xj/3+yOLzgSBAx6383tyxIx7aWFJi3tq935dlAXR5Mu/sQL8bDfQ0kfP79Q4DEEgRAbo67E1N8NnmrrudLhMeAyRy0lhRttNgbeaB8QP0Z0lliXxhOwh4QKCTnmZT1bZv92V2B7/Zt+1fgO4BF9aEL6OL4J+gbed5kAhcgIBdAu8wQ8xuqpz/tt2GXfauBGA6MW+BMrRFv8+cZ6W3tn9RnAaOdhlNIEaXPj7w+RB95c7yclczlK4F0FWGgtWRK7kh1tF7PJooo8em3OTp8Vf/FHTrnaaF8/7uRU+eCcAM5shDp0+bRucOLuSaGOJFgH72QVfcGXTzsF5XKfk5Z6e5cS7ahMH/MSxvxPNWZ3ic9oV2IAACIAACIAACIAACIAACIAACIAACIAACfiPg6TSoFTgFoci1nBm30YkM8+yxJ49GomWve+hE3Eudhwc9uH3pLEfXNRfWRugO18bNdGabzmMI1yf0aL6aLqdgn9B/mg7t/yzk5CEP8WnlMeN+QeuuguTvTPrXg3rRY+qYoEcR8Q20dKDBSs2OtykKh4fqbfxXtARhIn126vGfO3zfSbzeo+Dqt1aU9bhs0aE/S808AGqpn7hRQW3dMupwpfUWdi35+4IPvrR50YwWOy0prjDF1eN2GXba928rXsode8LVduavq6qqtB2j816kgWoOMikvEsK6xor58+w4N+8MPjSWs4PayFv+QlckNi0uM9eaSX+5/qazGuE1NfXn0iCrsmrvzE6cw0W7rT6CtfUT5Q5+MxM+sXXPgTI7Ob0xKo8GprzBb8ZCPyi3FdbUmU/wsfwaGsteRsbyBr8ZCWcrg9X1Z1kOyoVhygTAmf4jilP+o5KEsFVQOhE72QU/G001W/1onE+x4dyxKYlgkr3GKYkr28gS+fbicmadOgFw7tW+YvJMOTstuUHPT+n0emriYiLPVlyMjbNj79SWlhjYiov6SU1cQtiqo9P8UyYACjA1xxs2DxTpuQepiYseXWKvSHbt7XnvsqagbMVF67xs2TuLKt4qJf2kUgAuWKApCMghAAHI4QqvihCAABQpFMKUQwACkMMVXhUhAAEoUiiEKYcABCCHK7wqQgACUKRQCFMOAQhADld4VYQABKBIoRCmHAIQgByu8KoIAQhAkUIhTDkEIAA5XOFVEQIQgCKFQphyCEAAcrjCqyIEIABFCoUw5RCAAORwhVdFCEAAihQKYcohAAHI4QqvihCAABQpFMKUQwACkMMVXhUhAAEoUiiEKYcABCCHK7wqQgACUKRQCFMOAQhADld4VYQABKBIoRCmHAIQgByu8KoIAQhAkUIhTDkEIAA5XOFVEQIQgCKFQphyCEAAcrjCqyIEIABFCoUw5RCAAORwhVdFCEAAihQKYcohAAHI4QqvihCAABQpFMKUQwACkMMVXhUhAAEoUiiEKYcABCCHK7wqQgACUKRQCFMOAQhADld4VYQABKBIoRCmHAIQgByu8KoIAQhAkUIhTDkEIAA5XOFVEQIQgCKFQphyCEAAcrjCqyIEIABFCoUw5RCAAORwhVdFCEAAihQKYcohAAHI4QqvihCAABQpFMKUQwACkMMVXhUhAAEoUiiEKYcABCCHK7wqQgACUKRQCFMOAQhADld4VYQABKBIoRCmHAIQgByu8KoIAQhAkUIhTDkEIAA5XOFVEQIQgCKFQphyCEAAcrjCqyIEuKw4p61pGNPZ3n7Mv5Gl3cU4Wyqrv2/9ihatU5xttR89O7CaM3GLVXsXdju1TuMaq+2NbG0r2Y63au/Ujgq0iXcaC6y2p7j+Tbajrdo7thPsYS1mPNTV/rAY0rZ96axWx/4SNPRUAJPD4ZHZ7VotOQ1Sfycm6BObQcAJAcE5e88w2EPNi8uiThz01cYzARRXVw9pDQx/izo5t6+OsA0EPCPA2V1Ni8oe9sKfZ8cArdrwCgx+L0oCH/0R4IItn7J27cn92Vn53BMBmPv71NndVjqEDQi4JSAYG5bVkXWPWz9me08E0KF33EMHuCO9CAg+QMASAc5uL6oJn27JNomRawEUromcwRi/I0kf+AgEZBDIMbh2r1vHrgXAdPF7CmKQ20DQHgQcEJhVtDp8noN2x5q4EkBRqP4i8jTdTQBoCwIuCASEof3ORXt3xwA6Mx6kzl2JyE3waAsCdEB8Y7C2zvEJQ8eD95rayCSajpqKEoDAABPgBmf3OY3BmQCE4JoQDzjtFO1AwEsC5hdx0aq6fCc+HQmgYHX9XJr2vNRJh2gDAjIIGBpbxeiL2a5vRwLghrjVbkewBwHJBC6euqru+3b7cCQA+vYfZbcj2IOAbAK0X257XDoTAGM7ZScD/yBgk8DhwSJnl802zqYwua7dTztb39jtDPYgIIsALZX+w+bKuQfs+nf0C9C4ZN6HuhA/oc7M5c94gcBAEjhI5wKWNy4s/a2TIGwfNR/fibkslbcFTsoKaK59He8b70EgGYGYztr35uqf7Cwv70xmh89AAARAAARAAARAAARAAARAAARAAASIQK+Zm+serB+u5WgB0AEBPxLIzss9uLGkRO/KLS4A85Ym3wSGrSQ9TKcNp/oxceQEAkcJtNG/r3HGKxsrSnfRTdEED4YiL9DJhElABAIZRKBd04xLAoWjx/2Ukv5NBiWOVEHAJJBFX/rjaCmEuAI8QCAjCRj8ChIAN29qhRcIZB4BzsY4WgyXeaSQsV8JQAB+rSzyskQAArCECUZ+JQAB+LWyyMsSAQjAEiYY+ZUABODXyiIvSwQgAEuYYORXAhCAXyuLvCwRgAAsYYKRXwlAAH6tLPKyRAACsIQJRn4lAAH4tbLIyxIBCMASJhj5lQAE4NfKIi9LBOg5F3yvJUsYgYD/COzV6Pa4r/kvL2QEAlYI8FfjF8UXhOq24nlfVoDBxkcEWnWdXxw/BmgbnnU97QrREx/5xz5KEKmAQB8ERAsTvNkQ2vhtS0o/6HVfoOKqDTlfntmKg+M+0GGT+gRenjOng3Ha38ELBEAABEAABEAABEAABEAABEAABEAABEAABEAABEAABEDA9wT+DxiRlXPi9QlgAAAAAElFTkSuQmCC;" vertex="1" parent="1">
          <mxGeometry x="376.25" y="1097.25" width="53.5" height="53.5" as="geometry" />
        </mxCell>
      </root>
    </mxGraphModel>
  </diagram>
</mxfile>
